<svg width="440" height="102" viewBox="0 0 440 102" fill="none" xmlns="http://www.w3.org/2000/svg">
<path d="M69.7445 43.6679L69.4865 43.7711L59.5304 48.3107L48.8521 43.4616L57.7249 39.4379L57.7765 39.3863L59.0146 38.8188L69.7445 43.6679Z" fill="#CFCFCF"/>
<path d="M59.0145 91.1789L15.218 71.3182L19.3964 69.4095L5.4166 63.0645L6.10352e-05 65.5406V68.5842C6.10352e-05 73.7428 2.99206 78.4371 7.73797 80.5521L51.2766 100.31C56.1773 102.528 61.8518 102.528 66.7524 100.31L70.2603 98.7104V86.0718L59.0145 91.1789Z" fill="#CFCFCF"/>
<path d="M118.029 65.5919C118.029 72.6076 113.954 78.9527 107.557 81.8415L104.823 83.0796V72.2465L104.049 71.8854L102.759 71.3179L73.8713 58.2151V45.5249L101.625 58.1119V68.0164L106.061 66.0046L112.561 63.0642L118.029 65.5919Z" fill="#CFCFCF"/>
<path d="M73.2523 61.3621L73.4071 61.4137V61.3105L73.2523 61.3621Z" fill="#CFCFCF"/>
<path d="M70.2603 66.1595V78.8497L59.0145 83.9567L57.7765 83.3893L57.7249 83.3377L27.0312 69.461L23.2138 67.7071L9.23397 61.362L5.46819 59.6597L6.10352e-05 57.1835V45.6798L5.26184 43.3069H5.31343L19.2417 49.6004L15.2695 51.4575L19.3964 53.3146L23.2138 55.0685L37.1936 61.362L41.011 63.1159L59.0145 71.2665L70.2603 66.1595Z" fill="#A2A2A2"/>
<path d="M118.029 45.6797V57.1834L112.612 59.6595L108.795 61.3618L104.823 63.1674V52.3859L104.049 52.0248L102.811 51.4573L59.0145 31.5967L40.8562 39.8504L26.8764 33.5054L57.7249 19.5255H57.7765L59.0145 18.9065L102.192 38.5092V48.5169L106.628 46.505L113.283 43.5131L118.029 45.6797Z" fill="#A2A2A2"/>
<path d="M108.073 21.3828L66.0818 2.34753C61.9034 0.438844 57.1575 0.438844 52.979 2.34753L10.9879 21.3828C4.59123 24.2716 0.51593 30.6167 0.51593 37.6324L5.31344 39.799L9.13081 41.5014L23.1106 47.8465L26.928 49.5488L27.2891 49.7035L31.1065 51.4059L45.0863 57.751L48.9037 59.4533L58.2923 63.735H58.3439L59.6336 64.3024L69.8476 59.6597L70.8793 59.1954V46.5052L59.6336 51.6122H59.582L59.0145 51.3543L45.0347 45.0092L41.2173 43.3069L40.8562 43.1521L37.0389 41.4498L23.059 35.1047L19.2417 33.4024L15.7854 31.9064L59.582 12.0457L103.327 31.9064L104.617 32.4738L105.39 32.8349V43.668L109.517 41.8109L113.283 40.1085L118.596 37.7356C118.545 30.6683 114.47 24.2716 108.073 21.3828Z" fill="#CFCFCF"/>
<path d="M160.02 85.3494C156.151 85.3494 152.695 84.524 149.703 82.8217C146.659 81.1194 144.286 78.798 142.584 75.8576C140.882 72.9172 140.005 69.5641 140.005 65.8499C140.005 63.0126 140.521 60.4333 141.552 58.0604C142.584 55.6874 144.028 53.624 145.886 51.8701C147.743 50.1161 149.909 48.7233 152.437 47.7948C154.965 46.8146 157.699 46.3503 160.639 46.3503C163.115 46.3503 165.437 46.6599 167.552 47.3305C169.667 48.0011 171.627 48.9812 173.381 50.3741L169.46 56.616C168.325 55.5842 167.036 54.862 165.54 54.3462C164.044 53.8303 162.496 53.624 160.845 53.624C158.266 53.624 156.048 54.0883 154.191 55.0684C152.334 56.0485 150.889 57.4413 149.858 59.2469C148.826 61.0524 148.31 63.2706 148.31 65.8499C148.31 69.6673 149.445 72.7108 151.663 74.8774C153.881 77.0441 156.977 78.1274 160.845 78.1274C162.703 78.1274 164.405 77.7663 166.056 77.0956C167.706 76.425 169.048 75.4965 170.131 74.4132L174.052 80.6035C172.091 82.0995 169.925 83.2344 167.5 84.1114C165.024 84.9367 162.548 85.3494 160.02 85.3494Z" fill="#CFCFCF"/>
<path d="M197.523 85.3497C193.654 85.3497 190.198 84.4728 187.206 82.6673C184.214 80.9133 181.841 78.5404 180.139 75.5484C178.436 72.608 177.559 69.358 177.559 65.7986C177.559 63.1677 178.024 60.6916 179.004 58.3702C179.984 56.0488 181.377 53.9338 183.131 52.1283C184.936 50.3228 187.051 48.8784 189.476 47.8467C191.9 46.8149 194.583 46.2991 197.472 46.2991C201.289 46.2991 204.745 47.176 207.737 48.9815C210.729 50.7355 213.102 53.1084 214.804 56.1004C216.507 59.0408 217.384 62.2908 217.384 65.8502C217.384 68.4295 216.92 70.9056 215.939 73.2786C214.959 75.6515 213.566 77.715 211.812 79.5205C210.007 81.326 207.944 82.7704 205.519 83.8022C203.094 84.8339 200.464 85.3497 197.523 85.3497ZM197.523 78.1277C199.793 78.1277 201.805 77.6118 203.559 76.6317C205.313 75.6515 206.705 74.2071 207.737 72.4016C208.769 70.5445 209.285 68.3779 209.285 65.9018C209.285 63.4256 208.769 61.2075 207.737 59.4019C206.705 57.5448 205.313 56.152 203.559 55.1719C201.805 54.1917 199.741 53.6759 197.472 53.6759C195.202 53.6759 193.19 54.1917 191.384 55.1719C189.63 56.152 188.238 57.5964 187.206 59.4019C186.226 61.259 185.71 63.4256 185.71 65.9018C185.71 68.3779 186.226 70.5961 187.258 72.4016C188.289 74.2587 189.682 75.6515 191.436 76.6317C193.241 77.6118 195.253 78.1277 197.523 78.1277Z" fill="#CFCFCF"/>
<path d="M225.689 84.2663V47.4854H233.891V52.1797C235.439 50.1163 237.193 48.6203 239.256 47.7433C241.268 46.8148 243.383 46.4021 245.55 46.4021C248.903 46.4021 251.689 47.0727 253.907 48.414C256.125 49.7552 257.776 51.4575 258.807 53.5726C259.891 55.6876 260.407 57.8542 260.407 60.0724V84.3179H252.204V62.6517C252.204 60.0208 251.431 57.9058 249.831 56.3066C248.232 54.7075 246.066 53.9337 243.28 53.9337C241.423 53.9337 239.824 54.3464 238.379 55.1201C236.935 55.9455 235.852 57.0804 235.026 58.5248C234.201 59.9692 233.788 61.6716 233.788 63.5803V84.2663H225.689Z" fill="#CFCFCF"/>
<path d="M288.315 85.3494C284.446 85.3494 280.989 84.524 277.997 82.8217C274.954 81.1194 272.581 78.798 270.879 75.8576C269.176 72.9172 268.299 69.5641 268.299 65.8499C268.299 63.0126 268.815 60.4333 269.847 58.0604C270.879 55.6874 272.323 53.624 274.18 51.8701C276.037 50.1161 278.204 48.7233 280.732 47.7948C283.259 46.8146 285.993 46.3503 288.934 46.3503C291.41 46.3503 293.731 46.6599 295.846 47.3305C297.961 48.0011 299.922 48.9812 301.675 50.3741L297.755 56.616C296.62 55.5842 295.33 54.862 293.834 54.3462C292.338 53.8303 290.791 53.624 289.14 53.624C286.561 53.624 284.343 54.0883 282.485 55.0684C280.628 56.0485 279.184 57.4413 278.152 59.2469C277.121 61.0524 276.605 63.2706 276.605 65.8499C276.605 69.6673 277.74 72.7108 279.958 74.8774C282.176 77.0441 285.271 78.1274 289.14 78.1274C290.997 78.1274 292.7 77.7663 294.35 77.0956C296.001 76.425 297.342 75.4965 298.426 74.4132L302.346 80.6035C300.386 82.0995 298.219 83.2344 295.795 84.1114C293.319 84.9367 290.842 85.3494 288.315 85.3494Z" fill="#CFCFCF"/>
<path d="M325.818 85.3494C321.846 85.3494 318.389 84.524 315.397 82.9249C312.405 81.3257 310.084 79.0043 308.382 76.1155C306.731 73.1751 305.854 69.822 305.854 65.9531C305.854 63.1158 306.318 60.5365 307.298 58.112C308.278 55.739 309.62 53.624 311.374 51.8701C313.128 50.1161 315.191 48.7233 317.564 47.7948C319.937 46.8146 322.516 46.3503 325.302 46.3503C328.345 46.3503 331.079 46.8662 333.452 47.9495C335.825 49.0328 337.786 50.5288 339.385 52.4891C340.932 54.3978 342.067 56.6676 342.738 59.2469C343.409 61.8262 343.512 64.6634 343.047 67.707H313.695C313.643 69.8736 314.108 71.7823 315.139 73.433C316.171 75.0838 317.616 76.3734 319.524 77.302C321.433 78.2305 323.651 78.6948 326.23 78.6948C328.294 78.6948 330.306 78.3853 332.266 77.7663C334.226 77.1472 335.98 76.2187 337.579 74.9806L340.726 80.8614C339.54 81.8416 338.095 82.6669 336.393 83.3376C334.691 84.0082 332.937 84.524 331.131 84.8851C329.274 85.1947 327.52 85.3494 325.818 85.3494ZM314.159 61.6714H335C334.948 58.8858 334.02 56.7191 332.318 55.1716C330.615 53.624 328.191 52.7986 325.095 52.7986C322.052 52.7986 319.576 53.5724 317.564 55.1716C315.604 56.7191 314.469 58.8858 314.159 61.6714Z" fill="#CFCFCF"/>
<path d="M355.635 40.8823C354.19 40.8823 352.901 40.418 351.869 39.4894C350.786 38.5609 350.27 37.3228 350.27 35.8268C350.27 34.2792 350.786 33.0412 351.869 32.1126C352.952 31.1841 354.19 30.6682 355.635 30.6682C357.079 30.6682 358.369 31.1325 359.4 32.1126C360.484 33.0412 361 34.3308 361 35.8268C361 37.3228 360.484 38.5609 359.4 39.4894C358.369 40.418 357.131 40.8823 355.635 40.8823ZM351.559 84.2662V47.4853H359.762V84.2662H351.559Z" fill="#CFCFCF"/>
<path d="M366.674 54.1915V47.4338H375.805V54.1915H366.674ZM386.586 85.3495C382.975 85.3495 380.138 84.3178 377.971 82.2028C375.805 80.1393 374.721 76.941 374.721 72.6594V36.7039H382.872V47.4338H393.086V54.1915H382.872V70.8538C382.872 73.4331 383.336 75.2387 384.316 76.322C385.297 77.3537 386.689 77.9211 388.443 77.9211C389.32 77.9211 390.146 77.818 390.919 77.6116C391.693 77.4053 392.364 77.1473 392.983 76.8378L394.427 83.4408C393.344 84.0083 392.157 84.421 390.765 84.7821C389.475 85.1948 388.031 85.3495 386.586 85.3495Z" fill="#CFCFCF"/>
<path d="M419.601 85.3497C415.732 85.3497 412.276 84.4728 409.284 82.6673C406.292 80.8617 403.919 78.5404 402.217 75.5484C400.514 72.608 399.637 69.358 399.637 65.7986C399.637 63.1677 400.102 60.6916 401.082 58.3702C402.062 56.0488 403.455 53.9338 405.209 52.1283C407.014 50.3228 409.129 48.8784 411.554 47.8467C413.978 46.8149 416.661 46.2991 419.55 46.2991C423.367 46.2991 426.823 47.176 429.815 48.9815C432.807 50.7355 435.18 53.1084 436.883 56.1004C438.585 59.0408 439.462 62.2908 439.462 65.8502C439.462 68.4295 438.998 70.9056 438.018 73.2786C437.037 75.6515 435.645 77.715 433.891 79.5205C432.085 81.326 430.022 82.7704 427.597 83.8022C425.173 84.8339 422.49 85.3497 419.601 85.3497ZM419.601 78.1277C421.871 78.1277 423.883 77.6118 425.637 76.6317C427.391 75.6515 428.784 74.2071 429.815 72.4016C430.847 70.5445 431.363 68.3779 431.363 65.9018C431.363 63.4256 430.847 61.2075 429.815 59.4019C428.784 57.5448 427.391 56.152 425.637 55.1719C423.883 54.1917 421.819 53.6759 419.55 53.6759C417.28 53.6759 415.268 54.1917 413.463 55.1719C411.709 56.152 410.316 57.5964 409.284 59.4019C408.304 61.259 407.788 63.4256 407.788 65.9018C407.788 68.3779 408.304 70.5961 409.336 72.4016C410.367 74.2071 411.76 75.6515 413.514 76.6317C415.32 77.6118 417.331 78.1277 419.601 78.1277Z" fill="#CFCFCF"/>
<path d="M145.06 41.1402C144.183 41.1402 143.409 40.9339 142.739 40.5728C142.068 40.2117 141.501 39.6958 141.14 39.0252C140.727 38.3546 140.572 37.6324 140.572 36.7554C140.572 36.1364 140.675 35.5174 140.933 35.0015C141.14 34.4856 141.501 34.0214 141.913 33.6087C142.326 33.196 142.842 32.8865 143.409 32.6801C143.977 32.4738 144.596 32.3706 145.266 32.3706C145.834 32.3706 146.35 32.4222 146.814 32.577C147.278 32.7317 147.743 32.9381 148.155 33.2476L147.278 34.6404C147.02 34.434 146.711 34.2277 146.401 34.1245C146.092 34.0214 145.731 33.9698 145.37 33.9698C144.802 33.9698 144.286 34.0729 143.874 34.2793C143.461 34.4856 143.151 34.7952 142.894 35.2078C142.636 35.6205 142.532 36.1364 142.532 36.7038C142.532 37.5808 142.79 38.2514 143.306 38.7157C143.822 39.18 144.493 39.4379 145.37 39.4379C145.782 39.4379 146.195 39.3863 146.556 39.2316C146.917 39.0768 147.227 38.8705 147.485 38.6125L148.362 40.0053C147.897 40.3149 147.433 40.6244 146.866 40.7791C146.298 40.9339 145.628 41.1402 145.06 41.1402Z" fill="#CFCFCF"/>
<path d="M153.52 41.1406C152.643 41.1406 151.869 40.9342 151.199 40.5215C150.528 40.1088 150.012 39.593 149.6 38.9224C149.239 38.2517 149.032 37.5295 149.032 36.7042C149.032 36.1367 149.135 35.5693 149.342 35.0534C149.548 34.5375 149.858 34.0733 150.27 33.6606C150.683 33.2479 151.147 32.9384 151.715 32.6804C152.282 32.4225 152.85 32.3193 153.52 32.3193C154.397 32.3193 155.171 32.5257 155.842 32.9384C156.512 33.3511 157.028 33.8669 157.441 34.5375C157.802 35.2082 158.008 35.9304 158.008 36.7557C158.008 37.3232 157.905 37.8906 157.699 38.4065C157.492 38.9224 157.183 39.3866 156.77 39.7993C156.357 40.212 155.893 40.5215 155.326 40.7795C154.758 41.0374 154.191 41.1406 153.52 41.1406ZM153.52 39.5414C154.036 39.5414 154.5 39.4382 154.861 39.1803C155.274 38.9739 155.584 38.6128 155.79 38.2001C155.996 37.7875 156.151 37.3232 156.151 36.7557C156.151 36.1883 156.048 35.724 155.79 35.3113C155.532 34.8986 155.223 34.5891 154.861 34.3312C154.449 34.1248 153.984 34.0217 153.52 34.0217C153.004 34.0217 152.54 34.1248 152.179 34.3312C151.766 34.5375 151.457 34.8986 151.25 35.3113C151.044 35.724 150.889 36.2399 150.889 36.7557C150.889 37.3232 150.992 37.7875 151.25 38.2001C151.457 38.6128 151.818 38.9224 152.179 39.1803C152.54 39.4382 153.004 39.5414 153.52 39.5414Z" fill="#CFCFCF"/>
<path d="M159.865 40.8823V32.6285H161.722V33.6603C162.083 33.196 162.445 32.8865 162.909 32.6801C163.373 32.4738 163.837 32.3706 164.353 32.3706C165.127 32.3706 165.746 32.5254 166.21 32.8349C166.726 33.1444 167.087 33.5055 167.294 34.0214C167.552 34.4856 167.655 35.0015 167.655 35.4658V40.9339H165.798V36.0332C165.798 35.4142 165.643 34.9499 165.282 34.5888C164.921 34.2277 164.456 34.0729 163.786 34.0729C163.373 34.0729 163.012 34.1761 162.703 34.3309C162.393 34.4856 162.135 34.7436 161.929 35.1047C161.722 35.4142 161.671 35.8269 161.671 36.2396V40.8823H159.865Z" fill="#CFCFCF"/>
<path d="M172.917 41.1406C172.246 41.1406 171.575 41.0374 171.008 40.831C170.44 40.6247 169.925 40.3668 169.512 40.0572L170.183 38.716C170.544 39.0255 171.008 39.2319 171.472 39.4382C171.936 39.6446 172.452 39.6961 172.917 39.6961C173.432 39.6961 173.897 39.593 174.155 39.3866C174.464 39.1803 174.619 38.9224 174.619 38.6128C174.619 38.3033 174.464 38.0454 174.206 37.8906C173.948 37.7359 173.432 37.5811 172.71 37.4264C171.679 37.22 170.905 36.9105 170.44 36.4978C169.976 36.0851 169.718 35.5693 169.718 34.8471C169.718 34.3312 169.873 33.9185 170.131 33.5058C170.389 33.0931 170.802 32.8352 171.266 32.6289C171.73 32.4225 172.298 32.3193 172.968 32.3193C173.587 32.3193 174.155 32.4225 174.722 32.5773C175.29 32.732 175.754 32.99 176.167 33.2995L175.496 34.6407C175.29 34.4344 175.032 34.2796 174.774 34.1764C174.516 34.0217 174.206 33.9185 173.897 33.8669C173.587 33.8153 173.278 33.7637 172.968 33.7637C172.504 33.7637 172.143 33.8669 171.833 34.0217C171.524 34.1764 171.369 34.4344 171.369 34.7439C171.369 35.0534 171.524 35.3113 171.782 35.4661C172.04 35.6208 172.555 35.7756 173.226 35.9304C174.309 36.1883 175.083 36.4978 175.547 36.8589C176.012 37.2716 176.218 37.7875 176.218 38.4581C176.218 38.9739 176.063 39.4382 175.805 39.8509C175.496 40.2636 175.135 40.5731 174.619 40.7795C174.206 41.0374 173.587 41.1406 172.917 41.1406Z" fill="#CFCFCF"/>
<path d="M177.405 34.1246V32.6286H179.468V34.1246H177.405ZM181.893 41.1404C181.067 41.1404 180.448 40.8824 179.932 40.4181C179.468 39.9539 179.21 39.2317 179.21 38.2515V30.2041H181.067V32.6286H183.389V34.1246H181.067V37.8904C181.067 38.4579 181.17 38.8706 181.377 39.1285C181.583 39.3864 181.893 39.4896 182.305 39.4896C182.512 39.4896 182.666 39.4896 182.873 39.438C183.028 39.3864 183.182 39.3348 183.337 39.2833L183.647 40.7792C183.389 40.8824 183.131 40.9856 182.821 41.0888C182.512 41.0888 182.202 41.1404 181.893 41.1404Z" fill="#CFCFCF"/>
<path d="M185.555 40.8823V32.6285H187.412V33.7634C187.722 33.2476 188.083 32.8865 188.547 32.6801C189.011 32.4738 189.476 32.3706 189.992 32.3706C190.146 32.3706 190.301 32.3706 190.456 32.3706C190.611 32.3706 190.765 32.4222 190.869 32.4222L190.611 34.3309C190.456 34.2793 190.25 34.2277 190.095 34.2277C189.94 34.1761 189.734 34.1761 189.579 34.1761C188.96 34.1761 188.392 34.3825 187.98 34.7436C187.567 35.1563 187.361 35.6721 187.361 36.3427V40.8307H185.555V40.8823Z" fill="#CFCFCF"/>
<path d="M195.615 41.1404C194.892 41.1404 194.273 40.9856 193.757 40.6761C193.293 40.3666 192.932 40.0055 192.674 39.4896C192.416 38.9737 192.313 38.4579 192.313 37.8904V32.6287H194.17V37.5809C194.17 38.1484 194.325 38.6126 194.686 38.9222C195.047 39.2833 195.511 39.438 196.079 39.438C196.492 39.438 196.801 39.3349 197.111 39.1801C197.42 39.0253 197.678 38.7674 197.833 38.4579C198.039 38.1484 198.091 37.7873 198.091 37.3746V32.6287H199.948V40.8824H198.297V39.9023C197.988 40.315 197.575 40.5729 197.162 40.8308C196.749 41.0372 196.234 41.1404 195.615 41.1404Z" fill="#CFCFCF"/>
<path d="M201.547 34.1246V32.6286H203.61V34.1246H201.547ZM206.035 41.1404C205.209 41.1404 204.59 40.8824 204.075 40.4181C203.61 39.9539 203.352 39.2317 203.352 38.2515V30.2041H205.209V32.6286H207.531V34.1246H205.209V37.8904C205.209 38.4579 205.313 38.8706 205.519 39.1285C205.725 39.3864 206.035 39.4896 206.448 39.4896C206.654 39.4896 206.809 39.4896 207.015 39.438C207.17 39.3864 207.325 39.3348 207.479 39.2833L207.789 40.7792C207.531 40.8824 207.273 40.9856 206.963 41.0888C206.654 41.0888 206.344 41.1404 206.035 41.1404Z" fill="#CFCFCF"/>
<path d="M213.463 41.1406C212.586 41.1406 211.813 40.9342 211.142 40.5215C210.471 40.1088 209.955 39.593 209.543 38.9224C209.182 38.2517 208.975 37.5295 208.975 36.7042C208.975 36.1367 209.079 35.5693 209.285 35.0534C209.491 34.5375 209.801 34.0733 210.213 33.6606C210.626 33.2479 211.09 32.9384 211.658 32.6804C212.225 32.4225 212.793 32.3193 213.463 32.3193C214.34 32.3193 215.114 32.5257 215.785 32.9384C216.455 33.3511 216.971 33.8669 217.384 34.5375C217.745 35.2082 217.951 35.9304 217.951 36.7557C217.951 37.3232 217.848 37.8906 217.642 38.4065C217.435 38.9224 217.126 39.3866 216.713 39.7993C216.301 40.212 215.836 40.5215 215.269 40.7795C214.701 41.0374 214.082 41.1406 213.463 41.1406ZM213.463 39.5414C213.979 39.5414 214.443 39.4382 214.805 39.1803C215.217 38.9739 215.527 38.6128 215.733 38.2001C215.939 37.7875 216.094 37.3232 216.094 36.7557C216.094 36.1883 215.991 35.724 215.733 35.3113C215.475 34.8986 215.166 34.5891 214.805 34.3312C214.392 34.1248 213.928 34.0217 213.463 34.0217C212.947 34.0217 212.483 34.1248 212.122 34.3312C211.709 34.5375 211.4 34.8986 211.194 35.3113C210.987 35.724 210.832 36.2399 210.832 36.7557C210.832 37.3232 210.936 37.7875 211.194 38.2001C211.4 38.6128 211.761 38.9224 212.122 39.1803C212.483 39.4382 212.947 39.5414 213.463 39.5414Z" fill="#CFCFCF"/>
<path d="M219.757 40.8823V32.6285H221.614V33.7634C221.923 33.2476 222.285 32.8865 222.749 32.6801C223.213 32.4738 223.677 32.3706 224.193 32.3706C224.348 32.3706 224.503 32.3706 224.657 32.3706C224.812 32.3706 224.967 32.4222 225.07 32.4222L224.812 34.3309C224.657 34.2793 224.451 34.2277 224.296 34.2277C224.142 34.1761 223.935 34.1761 223.78 34.1761C223.161 34.1761 222.594 34.3825 222.181 34.7436C221.769 35.1563 221.562 35.6721 221.562 36.3427V40.8307H219.757V40.8823Z" fill="#CFCFCF"/>
<path d="M228.939 41.1404C228.372 41.1404 227.856 41.0372 227.443 40.8309C227.03 40.6245 226.669 40.315 226.411 39.9023C226.153 39.4896 226.05 39.0254 226.05 38.5095C226.05 38.0452 226.153 37.6325 226.411 37.2714C226.618 36.9103 226.979 36.6008 227.495 36.3429C227.959 36.0849 228.578 35.9302 229.352 35.8786C230.126 35.7754 231.003 35.827 232.086 35.9302L232.137 37.2198C231.364 37.1167 230.745 37.0651 230.177 37.0651C229.61 37.0651 229.197 37.1683 228.836 37.2714C228.475 37.3746 228.217 37.5294 228.062 37.7357C227.907 37.9421 227.804 38.1484 227.804 38.4063C227.804 38.819 227.959 39.1285 228.217 39.3349C228.526 39.5412 228.888 39.6444 229.403 39.6444C229.816 39.6444 230.229 39.5412 230.538 39.3865C230.848 39.2317 231.157 39.0254 231.364 38.7158C231.57 38.4063 231.673 38.0968 231.673 37.7357V35.5175C231.673 35.1564 231.57 34.8469 231.415 34.5374C231.26 34.2794 231.003 34.0731 230.693 33.9183C230.384 33.7636 229.971 33.712 229.507 33.712C229.094 33.712 228.63 33.7636 228.217 33.9183C227.804 34.0731 227.392 34.2794 227.03 34.5374L226.515 33.1961C227.03 32.835 227.598 32.5771 228.114 32.4739C228.681 32.3192 229.197 32.2676 229.713 32.2676C230.487 32.2676 231.157 32.3708 231.673 32.6287C232.241 32.8866 232.653 33.2477 232.963 33.712C233.272 34.1763 233.427 34.7953 233.427 35.5691V40.8825H231.776V39.9023C231.518 40.315 231.106 40.6245 230.59 40.8309C230.074 41.0372 229.558 41.1404 228.939 41.1404Z" fill="#CFCFCF"/>
</svg>
