<svg width="42" height="41" viewBox="0 0 42 41" fill="none" xmlns="http://www.w3.org/2000/svg">
<path d="M20.7693 0.916016C15.2374 0.916016 14.5418 0.941016 12.3682 1.03602C10.1947 1.13602 8.71431 1.47102 7.41734 1.96602C6.05627 2.46683 4.82375 3.25451 3.80671 4.27352C2.76811 5.27137 1.96528 6.48063 1.45484 7.81602C0.950317 9.08602 0.606326 10.541 0.506951 12.666C0.410124 14.8035 0.384644 15.4835 0.384644 20.9185C0.384644 26.3485 0.410124 27.0285 0.506951 29.161C0.608874 31.291 0.950317 32.7435 1.45484 34.016C1.97719 35.331 2.67282 36.446 3.80671 37.5585C4.93806 38.671 6.0745 39.356 7.41479 39.866C8.71431 40.361 10.1922 40.6985 12.3632 40.796C14.5392 40.891 15.2323 40.916 20.7693 40.916C26.3062 40.916 26.9968 40.891 29.1728 40.796C31.3412 40.696 32.8268 40.361 34.1237 39.866C35.4839 39.3649 36.7155 38.5772 37.7318 37.5585C38.8657 36.446 39.5613 35.331 40.0837 34.016C40.5857 32.7435 40.9296 31.291 41.0316 29.161C41.1284 27.0285 41.1539 26.3485 41.1539 20.916C41.1539 15.4835 41.1284 14.8035 41.0316 12.6685C40.9296 10.541 40.5857 9.08602 40.0837 7.81602C39.5732 6.48063 38.7704 5.27137 37.7318 4.27352C36.7148 3.25451 35.4823 2.46683 34.1212 1.96602C32.8217 1.47102 31.3387 1.13352 29.1703 1.03602C26.9942 0.941016 26.3037 0.916016 20.7642 0.916016H20.7693ZM18.9423 4.52102H20.7718C26.2145 4.52102 26.8592 4.53852 29.0072 4.63602C30.9947 4.72352 32.0751 5.05102 32.7936 5.32352C33.7441 5.68602 34.4244 6.12102 35.1379 6.82102C35.8513 7.52102 36.2921 8.18602 36.6616 9.12102C36.9419 9.82352 37.2732 10.8835 37.3623 12.8335C37.4617 14.941 37.4821 15.5735 37.4821 20.911C37.4821 26.2485 37.4617 26.8835 37.3623 28.991C37.2732 30.941 36.9394 31.9985 36.6616 32.7035C36.3325 33.5708 35.8112 34.3555 35.1353 35.001C34.4219 35.701 33.7441 36.1335 32.7911 36.496C32.0776 36.771 30.9972 37.096 29.0072 37.186C26.8592 37.281 26.2145 37.3035 20.7718 37.3035C15.3291 37.3035 14.6819 37.281 12.5339 37.186C10.5464 37.096 9.46854 36.771 8.74998 36.496C7.86537 36.1742 7.06468 35.6635 6.40575 35.001C5.72866 34.355 5.20644 33.5694 4.8769 32.701C4.59916 31.9985 4.26536 30.9385 4.17618 28.9885C4.07936 26.881 4.05897 26.2485 4.05897 20.906C4.05897 15.5635 4.07936 14.936 4.17618 12.8285C4.26791 10.8785 4.59916 9.81852 4.87945 9.11352C5.24892 8.18102 5.69229 7.51352 6.40575 6.81352C7.11921 6.11352 7.797 5.68102 8.74998 5.31852C9.46854 5.04352 10.5464 4.71852 12.5339 4.62852C14.4144 4.54352 15.1431 4.51852 18.9423 4.51602V4.52102ZM31.6521 7.84102C31.3309 7.84102 31.0128 7.90309 30.716 8.02371C30.4192 8.14432 30.1495 8.3211 29.9224 8.54396C29.6953 8.76682 29.5151 9.03139 29.3921 9.32258C29.2692 9.61376 29.2059 9.92584 29.2059 10.241C29.2059 10.5562 29.2692 10.8683 29.3921 11.1595C29.5151 11.4506 29.6953 11.7152 29.9224 11.9381C30.1495 12.1609 30.4192 12.3377 30.716 12.4583C31.0128 12.5789 31.3309 12.641 31.6521 12.641C32.3009 12.641 32.923 12.3882 33.3818 11.9381C33.8405 11.488 34.0982 10.8775 34.0982 10.241C34.0982 9.6045 33.8405 8.99405 33.3818 8.54396C32.923 8.09387 32.3009 7.84102 31.6521 7.84102ZM20.7718 10.646C19.3833 10.6248 18.0043 10.8747 16.7152 11.3814C15.4261 11.888 14.2526 12.6412 13.263 13.5971C12.2734 14.553 11.4875 15.6924 10.9511 16.9492C10.4147 18.2059 10.1384 19.5548 10.1384 20.9173C10.1384 22.2798 10.4147 23.6286 10.9511 24.8854C11.4875 26.1421 12.2734 27.2816 13.263 28.2375C14.2526 29.1933 15.4261 29.9465 16.7152 30.4532C18.0043 30.9598 19.3833 31.2098 20.7718 31.1885C23.52 31.1464 26.1411 30.0458 28.0694 28.1241C29.9977 26.2025 31.0785 23.6139 31.0785 20.9173C31.0785 18.2206 29.9977 15.632 28.0694 13.7104C26.1411 11.7887 23.52 10.6881 20.7718 10.646ZM20.7718 14.2485C21.6642 14.2485 22.5479 14.421 23.3724 14.756C24.1969 15.0911 24.9461 15.5822 25.5771 16.2014C26.2081 16.8205 26.7087 17.5555 27.0502 18.3645C27.3918 19.1734 27.5675 20.0404 27.5675 20.916C27.5675 21.7916 27.3918 22.6586 27.0502 23.4676C26.7087 24.2765 26.2081 25.0115 25.5771 25.6307C24.9461 26.2498 24.1969 26.7409 23.3724 27.076C22.5479 27.4111 21.6642 27.5835 20.7718 27.5835C18.9695 27.5835 17.241 26.881 15.9665 25.6307C14.6921 24.3803 13.9761 22.6843 13.9761 20.916C13.9761 19.1477 14.6921 17.4518 15.9665 16.2014C17.241 14.951 18.9695 14.2485 20.7718 14.2485Z" fill="#A7A7A7"/>
</svg>
