<svg width="326" height="76" viewBox="0 0 326 76" fill="none" xmlns="http://www.w3.org/2000/svg">
<path d="M51.7217 32.1345L51.5304 32.211L44.147 35.5775L36.2281 31.9814L42.8081 28.9975L42.8464 28.9592L43.7645 28.5384L51.7217 32.1345Z" fill="#197255"/>
<path d="M43.7645 67.3679L11.2854 52.6395L14.3841 51.224L4.01685 46.5186L0 48.3549V50.612C0 54.4375 2.21883 57.9188 5.73835 59.4873L38.0261 74.1392C41.6604 75.7842 45.8685 75.7842 49.5028 74.1392L52.1042 72.9533V63.5806L43.7645 67.3679Z" fill="#197255"/>
<path d="M87.529 48.3931C87.529 53.5959 84.5068 58.3013 79.7631 60.4437L77.7355 61.3618V53.3281L77.1617 53.0603L76.2053 52.6395L54.7821 42.9226V33.5117L75.3636 42.8461V50.1911L78.6536 48.6992L83.4739 46.5186L87.529 48.3931Z" fill="#197255"/>
<path d="M54.323 45.2562L54.4378 45.2944V45.2179L54.323 45.2562Z" fill="#197255"/>
<path d="M52.1042 48.8139V58.2248L43.7645 62.0121L42.8463 61.5913L42.8081 61.5531L20.046 51.2623L17.215 49.9616L6.84776 45.2562L4.0551 43.9937L0 42.1575V33.6264L3.90208 31.8667H3.94033L14.2694 36.5339L11.3237 37.9111L14.3841 39.2883L17.215 40.589L27.5823 45.2562L30.4133 46.5569L43.7645 52.6012L52.1042 48.8139Z" fill="#D64123"/>
<path d="M87.529 33.6264V42.1575L83.5121 43.9937L80.6812 45.2562L77.7355 46.5951V38.5997L77.1617 38.3319L76.2435 37.9111L43.7645 23.1826L30.2985 29.3036L19.9312 24.5981L42.8081 14.2308H42.8463L43.7645 13.7718L75.7845 28.3089V35.7305L79.0745 34.2385L84.0094 32.0197L87.529 33.6264Z" fill="#D64123"/>
<path d="M80.1456 15.608L49.0055 1.49168C45.9068 0.0762194 42.3873 0.0762194 39.2886 1.49168L8.14845 15.608C3.40475 17.7503 0.382553 22.4558 0.382553 27.6586L3.94033 29.2653L6.77125 30.5277L17.1385 35.2332L19.9695 36.4956L20.2372 36.6104L23.0682 37.8728L33.4354 42.5783L36.2664 43.8407L43.2289 47.0159H43.2672L44.2235 47.4367L51.7982 43.9937L52.5633 43.6494V34.2385L44.2235 38.0258H44.1853L43.7645 37.8346L33.3972 33.1291L30.5663 31.8667L30.2985 31.7519L27.4676 30.4895L17.1003 25.784L14.2694 24.5216L11.7062 23.4122L44.1853 8.68374L76.6261 23.4122L77.5825 23.833L78.1563 24.1008V32.1345L81.2168 30.7573L84.0094 29.4948L87.9498 27.7351C87.9115 22.494 84.8893 17.7503 80.1456 15.608Z" fill="#197255"/>
<path d="M118.669 63.045C115.8 63.045 113.237 62.4329 111.018 61.1705C108.761 59.9081 107.001 58.1866 105.739 56.006C104.476 53.8254 103.826 51.3388 103.826 48.5844C103.826 46.4803 104.208 44.5675 104.974 42.8078C105.739 41.048 106.81 39.5178 108.187 38.2171C109.564 36.9164 111.171 35.8835 113.045 35.1949C114.92 34.4681 116.948 34.1237 119.128 34.1237C120.964 34.1237 122.686 34.3533 124.254 34.8506C125.823 35.3479 127.277 36.0748 128.577 37.1077L125.67 41.7366C124.828 40.9715 123.872 40.4359 122.762 40.0534C121.653 39.6708 120.505 39.5178 119.281 39.5178C117.368 39.5178 115.723 39.8621 114.346 40.589C112.969 41.3158 111.898 42.3487 111.133 43.6877C110.368 45.0266 109.985 46.6716 109.985 48.5844C109.985 51.4153 110.827 53.6724 112.472 55.2791C114.117 56.8859 116.412 57.6892 119.281 57.6892C120.658 57.6892 121.921 57.4215 123.145 56.9241C124.369 56.4268 125.364 55.7382 126.167 54.9348L129.075 59.5255C127.621 60.6349 126.014 61.4765 124.216 62.1269C122.38 62.739 120.544 63.045 118.669 63.045Z" fill="#197255"/>
<path d="M146.481 63.045C143.612 63.045 141.049 62.3947 138.83 61.0557C136.611 59.755 134.851 57.9953 133.589 55.7765C132.326 53.5959 131.676 51.1858 131.676 48.5461C131.676 46.5951 132.02 44.7588 132.747 43.0373C133.474 41.3158 134.507 39.7473 135.808 38.4084C137.147 37.0694 138.715 35.9983 140.513 35.2332C142.311 34.4681 144.3 34.0855 146.443 34.0855C149.274 34.0855 151.837 34.7358 154.056 36.0748C156.274 37.3755 158.034 39.1352 159.297 41.3541C160.559 43.5346 161.209 45.9448 161.209 48.5844C161.209 50.4972 160.865 52.3334 160.138 54.0932C159.411 55.853 158.378 57.3832 157.078 58.7221C155.739 60.0611 154.209 61.1323 152.411 61.8974C150.613 62.6625 148.662 63.045 146.481 63.045ZM146.481 57.6892C148.164 57.6892 149.656 57.3067 150.957 56.5798C152.258 55.853 153.29 54.7818 154.056 53.4429C154.821 52.0657 155.203 50.4589 155.203 48.6226C155.203 46.7864 154.821 45.1414 154.056 43.8024C153.29 42.4252 152.258 41.3923 150.957 40.6655C149.656 39.9386 148.126 39.5561 146.443 39.5561C144.759 39.5561 143.267 39.9386 141.929 40.6655C140.628 41.3923 139.595 42.4635 138.83 43.8024C138.103 45.1796 137.72 46.7864 137.72 48.6226C137.72 50.4589 138.103 52.1039 138.868 53.4429C139.633 54.8201 140.666 55.853 141.967 56.5798C143.306 57.3067 144.798 57.6892 146.481 57.6892Z" fill="#197255"/>
<path d="M167.368 62.2417V34.9654H173.451V38.4466C174.599 36.9164 175.9 35.807 177.43 35.1567C178.922 34.4681 180.49 34.162 182.097 34.162C184.584 34.162 186.649 34.6593 188.294 35.654C189.939 36.6486 191.164 37.9111 191.929 39.4795C192.732 41.048 193.115 42.6548 193.115 44.2998V62.2799H187.032V46.2125C187.032 44.2615 186.458 42.693 185.272 41.5071C184.086 40.3212 182.48 39.7473 180.414 39.7473C179.036 39.7473 177.851 40.0534 176.779 40.6272C175.708 41.2393 174.905 42.0809 174.293 43.1521C173.681 44.2233 173.375 45.4857 173.375 46.9011V62.2417H167.368Z" fill="#197255"/>
<path d="M213.811 63.045C210.942 63.045 208.379 62.4329 206.16 61.1705C203.903 59.9081 202.143 58.1866 200.881 56.006C199.618 53.8254 198.968 51.3388 198.968 48.5844C198.968 46.4803 199.35 44.5675 200.115 42.8078C200.881 41.048 201.952 39.5178 203.329 38.2171C204.706 36.9164 206.313 35.8835 208.187 35.1949C210.062 34.4681 212.089 34.1237 214.27 34.1237C216.106 34.1237 217.828 34.3533 219.396 34.8506C220.965 35.3479 222.418 36.0748 223.719 37.1077L220.812 41.7366C219.97 40.9715 219.014 40.4359 217.904 40.0534C216.795 39.6708 215.647 39.5178 214.423 39.5178C212.51 39.5178 210.865 39.8621 209.488 40.589C208.111 41.3158 207.04 42.3487 206.275 43.6877C205.509 45.0266 205.127 46.6716 205.127 48.5844C205.127 51.4153 205.969 53.6724 207.614 55.2791C209.259 56.8859 211.554 57.6892 214.423 57.6892C215.8 57.6892 217.063 57.4215 218.287 56.9241C219.511 56.4268 220.506 55.7382 221.309 54.9348L224.216 59.5255C222.763 60.6349 221.156 61.4765 219.358 62.1269C217.522 62.739 215.685 63.045 213.811 63.045Z" fill="#197255"/>
<path d="M241.623 63.045C238.677 63.045 236.114 62.4329 233.895 61.247C231.676 60.0611 229.955 58.3396 228.692 56.1973C227.468 54.0167 226.818 51.5301 226.818 48.6609C226.818 46.5568 227.162 44.6441 227.889 42.846C228.616 41.0863 229.61 39.5178 230.911 38.2171C232.212 36.9164 233.742 35.8835 235.502 35.1949C237.262 34.4681 239.174 34.1237 241.24 34.1237C243.497 34.1237 245.525 34.5063 247.285 35.3097C249.044 36.113 250.498 37.2225 251.684 38.6762C252.832 40.0916 253.673 41.7749 254.171 43.6877C254.668 45.6004 254.744 47.7045 254.4 49.9616H232.633C232.594 51.5683 232.939 52.9838 233.704 54.208C234.469 55.4322 235.54 56.3885 236.956 57.0771C238.371 57.7657 240.016 58.1101 241.929 58.1101C243.459 58.1101 244.951 57.8805 246.405 57.4214C247.858 56.9624 249.159 56.2738 250.345 55.3556L252.679 59.7168C251.799 60.4436 250.728 61.0557 249.465 61.5531C248.203 62.0504 246.902 62.4329 245.563 62.7007C244.186 62.9303 242.885 63.045 241.623 63.045ZM232.977 45.4857H248.432C248.394 43.4199 247.705 41.8131 246.443 40.6655C245.181 39.5178 243.383 38.9057 241.087 38.9057C238.83 38.9057 236.994 39.4795 235.502 40.6655C234.048 41.8131 233.206 43.4199 232.977 45.4857Z" fill="#197255"/>
<path d="M263.735 30.0686C262.663 30.0686 261.707 29.7243 260.942 29.0357C260.138 28.3471 259.756 27.429 259.756 26.3196C259.756 25.1719 260.138 24.2538 260.942 23.5652C261.745 22.8766 262.663 22.494 263.735 22.494C264.806 22.494 265.762 22.8383 266.527 23.5652C267.331 24.2538 267.713 25.2102 267.713 26.3196C267.713 27.429 267.331 28.3471 266.527 29.0357C265.762 29.7243 264.844 30.0686 263.735 30.0686ZM260.712 62.2417V34.9654H266.795V62.2417H260.712Z" fill="#197255"/>
<path d="M271.921 39.9386V34.9271H278.693V39.9386H271.921ZM286.688 63.045C284.01 63.045 281.906 62.2799 280.299 60.7114C278.693 59.1812 277.889 56.8094 277.889 53.6341V26.9699H283.934V34.9271H291.508V39.9386H283.934V52.2952C283.934 54.208 284.278 55.5469 285.005 56.3503C285.732 57.1154 286.764 57.5362 288.065 57.5362C288.716 57.5362 289.328 57.4597 289.901 57.3067C290.475 57.1537 290.973 56.9624 291.432 56.7328L292.503 61.6296C291.699 62.0504 290.82 62.3564 289.787 62.6242C288.83 62.9303 287.759 63.045 286.688 63.045Z" fill="#197255"/>
<path d="M311.172 63.045C308.302 63.045 305.739 62.3947 303.52 61.0557C301.302 59.7168 299.542 57.9953 298.279 55.7765C297.017 53.5959 296.367 51.1858 296.367 48.5461C296.367 46.5951 296.711 44.7588 297.438 43.0373C298.165 41.3158 299.197 39.7473 300.498 38.4084C301.837 37.0694 303.406 35.9983 305.204 35.2332C307.002 34.4681 308.991 34.0855 311.133 34.0855C313.964 34.0855 316.527 34.7358 318.746 36.0748C320.965 37.3755 322.725 39.1352 323.987 41.3541C325.25 43.5346 325.9 45.9448 325.9 48.5844C325.9 50.4972 325.556 52.3334 324.829 54.0932C324.102 55.853 323.069 57.3832 321.768 58.7221C320.429 60.0611 318.899 61.1323 317.101 61.8974C315.303 62.6625 313.314 63.045 311.172 63.045ZM311.172 57.6892C312.855 57.6892 314.347 57.3067 315.647 56.5798C316.948 55.853 317.981 54.7818 318.746 53.4429C319.511 52.0657 319.894 50.4589 319.894 48.6226C319.894 46.7864 319.511 45.1414 318.746 43.8024C317.981 42.4252 316.948 41.3923 315.647 40.6655C314.347 39.9386 312.817 39.5561 311.133 39.5561C309.45 39.5561 307.958 39.9386 306.619 40.6655C305.318 41.3923 304.286 42.4635 303.52 43.8024C302.794 45.1796 302.411 46.7864 302.411 48.6226C302.411 50.4589 302.794 52.1039 303.559 53.4429C304.324 54.7818 305.357 55.853 306.657 56.5798C307.996 57.3067 309.488 57.6892 311.172 57.6892Z" fill="#197255"/>
<path d="M107.575 30.2599C106.925 30.2599 106.351 30.1069 105.853 29.8391C105.356 29.5713 104.935 29.1888 104.668 28.6915C104.361 28.1941 104.247 27.6586 104.247 27.0082C104.247 26.5491 104.323 26.0901 104.514 25.7075C104.668 25.325 104.935 24.9807 105.241 24.6746C105.547 24.3686 105.93 24.139 106.351 23.986C106.772 23.833 107.231 23.7565 107.728 23.7565C108.149 23.7565 108.531 23.7947 108.876 23.9095C109.22 24.0243 109.564 24.1773 109.87 24.4068L109.22 25.4397C109.029 25.2867 108.799 25.1337 108.57 25.0572C108.34 24.9807 108.072 24.9424 107.804 24.9424C107.384 24.9424 107.001 25.0189 106.695 25.1719C106.389 25.325 106.159 25.5545 105.968 25.8605C105.777 26.1666 105.7 26.5491 105.7 26.97C105.7 27.6203 105.892 28.1176 106.274 28.4619C106.657 28.8062 107.154 28.9975 107.804 28.9975C108.111 28.9975 108.417 28.9592 108.684 28.8445C108.952 28.7297 109.182 28.5767 109.373 28.3854L110.023 29.4183C109.679 29.6478 109.335 29.8774 108.914 29.9921C108.493 30.1069 107.996 30.2599 107.575 30.2599Z" fill="#197255"/>
<path d="M113.849 30.2599C113.199 30.2599 112.625 30.1069 112.127 29.8009C111.63 29.4948 111.248 29.1123 110.941 28.6149C110.674 28.1176 110.521 27.582 110.521 26.97C110.521 26.5491 110.597 26.1283 110.75 25.7458C110.903 25.3632 111.133 25.0189 111.439 24.7129C111.745 24.4068 112.089 24.1773 112.51 23.986C112.931 23.7947 113.352 23.7182 113.849 23.7182C114.499 23.7182 115.073 23.8712 115.57 24.1773C116.068 24.4833 116.45 24.8659 116.756 25.3632C117.024 25.8605 117.177 26.3961 117.177 27.0082C117.177 27.429 117.101 27.8498 116.948 28.2324C116.795 28.6149 116.565 28.9592 116.259 29.2653C115.953 29.5713 115.609 29.8009 115.188 29.9922C114.767 30.1834 114.346 30.2599 113.849 30.2599ZM113.849 29.074C114.231 29.074 114.576 28.9975 114.844 28.8062C115.15 28.6532 115.379 28.3854 115.532 28.0794C115.685 27.7733 115.8 27.429 115.8 27.0082C115.8 26.5874 115.723 26.2431 115.532 25.9371C115.341 25.631 115.111 25.4015 114.844 25.2102C114.538 25.0572 114.193 24.9807 113.849 24.9807C113.466 24.9807 113.122 25.0572 112.854 25.2102C112.548 25.3632 112.319 25.631 112.166 25.9371C112.013 26.2431 111.898 26.6257 111.898 27.0082C111.898 27.429 111.974 27.7733 112.166 28.0794C112.319 28.3854 112.586 28.6149 112.854 28.8062C113.122 28.9975 113.466 29.074 113.849 29.074Z" fill="#197255"/>
<path d="M118.554 30.0687V23.9478H119.932V24.7129C120.199 24.3686 120.467 24.139 120.811 23.986C121.156 23.833 121.5 23.7565 121.883 23.7565C122.456 23.7565 122.915 23.8712 123.26 24.1008C123.642 24.3303 123.91 24.5981 124.063 24.9807C124.254 25.325 124.331 25.7075 124.331 26.0518V30.1069H122.954V26.4726C122.954 26.0136 122.839 25.6693 122.571 25.4015C122.303 25.1337 121.959 25.0189 121.462 25.0189C121.156 25.0189 120.888 25.0954 120.658 25.2102C120.429 25.325 120.238 25.5162 120.085 25.784C119.932 26.0136 119.893 26.3196 119.893 26.6257V30.0687H118.554Z" fill="#197255"/>
<path d="M128.233 30.2599C127.736 30.2599 127.238 30.1834 126.818 30.0304C126.397 29.8774 126.014 29.6861 125.708 29.4566L126.205 28.4619C126.473 28.6915 126.818 28.8445 127.162 28.9975C127.506 29.1505 127.889 29.1888 128.233 29.1888C128.616 29.1888 128.96 29.1123 129.151 28.9592C129.381 28.8062 129.495 28.6149 129.495 28.3854C129.495 28.1559 129.381 27.9646 129.189 27.8498C128.998 27.7351 128.616 27.6203 128.08 27.5055C127.315 27.3525 126.741 27.123 126.397 26.8169C126.052 26.5109 125.861 26.1283 125.861 25.5927C125.861 25.2102 125.976 24.9041 126.167 24.5981C126.358 24.2921 126.665 24.1008 127.009 23.9478C127.353 23.7947 127.774 23.7182 128.271 23.7182C128.73 23.7182 129.151 23.7947 129.572 23.9095C129.993 24.0243 130.337 24.2155 130.643 24.4451L130.146 25.4397C129.993 25.2867 129.801 25.1719 129.61 25.0954C129.419 24.9807 129.189 24.9041 128.96 24.8659C128.73 24.8276 128.501 24.7894 128.271 24.7894C127.927 24.7894 127.659 24.8659 127.43 24.9807C127.2 25.0954 127.085 25.2867 127.085 25.5162C127.085 25.7458 127.2 25.9371 127.391 26.0518C127.583 26.1666 127.965 26.2814 128.463 26.3961C129.266 26.5874 129.84 26.8169 130.184 27.0847C130.528 27.3908 130.681 27.7733 130.681 28.2706C130.681 28.6532 130.567 28.9975 130.375 29.3036C130.146 29.6096 129.878 29.8391 129.495 29.9922C129.189 30.1834 128.73 30.2599 128.233 30.2599Z" fill="#197255"/>
<path d="M131.561 25.0572V23.9478H133.092V25.0572H131.561ZM134.89 30.2599C134.277 30.2599 133.818 30.0687 133.436 29.7244C133.092 29.3801 132.9 28.8445 132.9 28.1176V22.1497H134.277V23.9478H135.999V25.0572H134.277V27.8498C134.277 28.2706 134.354 28.5767 134.507 28.768C134.66 28.9592 134.89 29.0358 135.196 29.0358C135.349 29.0358 135.463 29.0358 135.616 28.9975C135.731 28.9592 135.846 28.921 135.961 28.8827L136.19 29.9921C135.999 30.0687 135.808 30.1452 135.578 30.2217C135.349 30.2217 135.119 30.2599 134.89 30.2599Z" fill="#197255"/>
<path d="M137.606 30.0687V23.9478H138.983V24.7894C139.212 24.4068 139.48 24.139 139.824 23.986C140.169 23.833 140.513 23.7565 140.896 23.7565C141.01 23.7565 141.125 23.7565 141.24 23.7565C141.355 23.7565 141.469 23.7947 141.546 23.7947L141.355 25.2102C141.24 25.1719 141.087 25.1337 140.972 25.1337C140.857 25.0954 140.704 25.0954 140.59 25.0954C140.131 25.0954 139.71 25.2484 139.404 25.5162C139.098 25.8223 138.945 26.2048 138.945 26.7022V30.0304H137.606V30.0687Z" fill="#197255"/>
<path d="M145.066 30.2599C144.53 30.2599 144.071 30.1452 143.688 29.9156C143.344 29.6861 143.076 29.4183 142.885 29.0358C142.694 28.6532 142.617 28.2706 142.617 27.8498V23.9478H143.994V27.6203C143.994 28.0411 144.109 28.3854 144.377 28.6149C144.645 28.8827 144.989 28.9975 145.41 28.9975C145.716 28.9975 145.945 28.921 146.175 28.8062C146.404 28.6915 146.596 28.5002 146.711 28.2706C146.864 28.0411 146.902 27.7733 146.902 27.4673V23.9478H148.279V30.0687H147.055V29.3418C146.825 29.6478 146.519 29.8391 146.213 30.0304C145.907 30.1834 145.525 30.2599 145.066 30.2599Z" fill="#197255"/>
<path d="M149.465 25.0572V23.9478H150.995V25.0572H149.465ZM152.793 30.2599C152.181 30.2599 151.722 30.0687 151.339 29.7244C150.995 29.3801 150.804 28.8445 150.804 28.1176V22.1497H152.181V23.9478H153.903V25.0572H152.181V27.8498C152.181 28.2706 152.258 28.5767 152.411 28.768C152.564 28.9592 152.793 29.0358 153.099 29.0358C153.252 29.0358 153.367 29.0358 153.52 28.9975C153.635 28.9592 153.75 28.921 153.864 28.8827L154.094 29.9921C153.903 30.0687 153.711 30.1452 153.482 30.2217C153.252 30.2217 153.023 30.2599 152.793 30.2599Z" fill="#197255"/>
<path d="M158.302 30.2599C157.652 30.2599 157.078 30.1069 156.58 29.8009C156.083 29.4948 155.701 29.1123 155.395 28.6149C155.127 28.1176 154.974 27.582 154.974 26.97C154.974 26.5491 155.05 26.1283 155.203 25.7458C155.356 25.3632 155.586 25.0189 155.892 24.7129C156.198 24.4068 156.542 24.1773 156.963 23.986C157.384 23.7947 157.805 23.7182 158.302 23.7182C158.952 23.7182 159.526 23.8712 160.023 24.1773C160.521 24.4833 160.903 24.8659 161.209 25.3632C161.477 25.8605 161.63 26.3961 161.63 27.0082C161.63 27.429 161.554 27.8498 161.401 28.2324C161.248 28.6149 161.018 28.9592 160.712 29.2653C160.406 29.5713 160.062 29.8009 159.641 29.9922C159.22 30.1834 158.761 30.2599 158.302 30.2599ZM158.302 29.074C158.685 29.074 159.029 28.9975 159.297 28.8062C159.603 28.6532 159.832 28.3854 159.985 28.0794C160.138 27.7733 160.253 27.429 160.253 27.0082C160.253 26.5874 160.176 26.2431 159.985 25.9371C159.794 25.631 159.564 25.4015 159.297 25.2102C158.991 25.0572 158.646 24.9807 158.302 24.9807C157.919 24.9807 157.575 25.0572 157.307 25.2102C157.001 25.3632 156.772 25.631 156.619 25.9371C156.466 26.2431 156.351 26.6257 156.351 27.0082C156.351 27.429 156.427 27.7733 156.619 28.0794C156.772 28.3854 157.04 28.6149 157.307 28.8062C157.575 28.9975 157.919 29.074 158.302 29.074Z" fill="#197255"/>
<path d="M162.969 30.0687V23.9478H164.346V24.7894C164.576 24.4068 164.844 24.139 165.188 23.986C165.532 23.833 165.877 23.7565 166.259 23.7565C166.374 23.7565 166.489 23.7565 166.603 23.7565C166.718 23.7565 166.833 23.7947 166.909 23.7947L166.718 25.2102C166.603 25.1719 166.45 25.1337 166.336 25.1337C166.221 25.0954 166.068 25.0954 165.953 25.0954C165.494 25.0954 165.073 25.2484 164.767 25.5162C164.461 25.8223 164.308 26.2048 164.308 26.7022V30.0304H162.969V30.0687Z" fill="#197255"/>
<path d="M169.779 30.2599C169.358 30.2599 168.975 30.1834 168.669 30.0304C168.363 29.8774 168.095 29.6478 167.904 29.3418C167.713 29.0358 167.636 28.6915 167.636 28.3089C167.636 27.9646 167.713 27.6586 167.904 27.3908C168.057 27.123 168.325 26.8934 168.708 26.7022C169.052 26.5109 169.511 26.3961 170.085 26.3579C170.659 26.2813 171.309 26.3196 172.112 26.3961L172.151 27.3525C171.577 27.276 171.118 27.2377 170.697 27.2377C170.276 27.2377 169.97 27.3143 169.702 27.3908C169.434 27.4673 169.243 27.582 169.128 27.7351C169.014 27.8881 168.937 28.0411 168.937 28.2324C168.937 28.5384 169.052 28.768 169.243 28.921C169.473 29.074 169.74 29.1505 170.123 29.1505C170.429 29.1505 170.735 29.074 170.965 28.9592C171.194 28.8445 171.424 28.6915 171.577 28.4619C171.73 28.2324 171.806 28.0029 171.806 27.7351V26.0901C171.806 25.8223 171.73 25.5927 171.615 25.3632C171.5 25.1719 171.309 25.0189 171.079 24.9041C170.85 24.7894 170.544 24.7511 170.199 24.7511C169.893 24.7511 169.549 24.7894 169.243 24.9041C168.937 25.0189 168.631 25.1719 168.363 25.3632L167.981 24.3686C168.363 24.1008 168.784 23.9095 169.167 23.833C169.587 23.7182 169.97 23.68 170.353 23.68C170.926 23.68 171.424 23.7565 171.806 23.9478C172.227 24.139 172.533 24.4068 172.763 24.7511C172.992 25.0954 173.107 25.5545 173.107 26.1283V30.0687H171.883V29.3418C171.691 29.6478 171.385 29.8774 171.003 30.0304C170.62 30.1834 170.238 30.2599 169.779 30.2599Z" fill="#197255"/>
</svg>
