<svg width="430" height="411" viewBox="0 0 430 411" fill="none" xmlns="http://www.w3.org/2000/svg">
<path d="M113.626 351.072C114.346 356.578 118.785 359.777 123.77 359.777H125.977V361.166H95.7208V359.851H97.8784C100.879 359.851 103.582 356.9 103.31 353.899L97.0104 283.889L67.7712 348.89C67.7712 348.89 63.9024 357.346 63.0096 363.1H61.6952L26.1072 285.898L20.0064 353.899C19.7336 356.9 22.4368 359.826 25.4376 359.851H27.5952V361.166H0.662415V359.777H2.86961C7.85441 359.777 12.2936 356.553 13.0128 351.072L23.4784 261.842H24.768L63.6048 345.79L101.574 261.891H102.838L113.626 351.072Z" fill="white"/>
<path d="M209.181 351.692C212.008 357.421 216.199 359.802 219.919 359.802H220.961V361.19H192.416V359.802H193.532C196.706 359.802 200.278 356.776 198.442 351.444L190.854 332.918H155.638L147.974 351.047C145.842 356.627 149.512 359.777 152.761 359.777H153.877V361.166H127.341V359.777H128.432C132.127 359.777 136.492 357.421 139.344 351.742L168.162 290.064C168.112 290.064 173.221 279.375 173.518 275.73H174.833L209.181 351.692ZM189.118 328.777L173.494 290.709L157.398 328.777H189.118Z" fill="white"/>
<path d="M323.806 277.714L323.782 279.102H321.475C317.358 279.102 313.986 282.178 313.738 286.071V345.393C313.738 354.346 315.052 363.15 315.052 363.15H313.738L241.371 294.478V352.535C241.446 356.553 244.893 359.802 249.109 359.802H251.415L251.44 361.19H225.152L225.177 359.802H227.483C231.724 359.802 235.146 356.553 235.221 352.535V293.015C235.221 283.517 233.882 275.63 233.882 275.63L235.37 275.705L307.562 343.756V286.071C307.314 282.202 303.942 279.127 299.825 279.127H297.518L297.494 277.738L323.806 277.714Z" fill="white"/>
<path d="M415.864 351.022C418.666 357.222 423.825 359.777 428.09 359.777H429.256V361.166H397.934V359.777H399.149C402.745 359.777 406.465 356.602 404.431 351.047L395.528 327.338H358.055L348.73 351.122C346.771 356.627 350.466 359.777 354.038 359.777H355.253V361.166H327.254V359.777H328.494C332.734 359.777 337.868 357.222 340.67 351.022L372.216 276.151C372.216 276.151 377.374 264.892 377.374 261.817H378.639L415.864 351.022ZM393.966 323.197L377.201 278.532L359.692 323.197H393.966ZM377.3 253.93C383.178 247.582 389.08 241.382 394.958 235.727C397.14 237.885 399.174 240.34 400.637 243.043C393.172 247.408 385.707 251.227 378.267 254.898L377.3 253.93Z" fill="white"/>
<path d="M344.787 231.908C334.098 231.908 324.55 224.989 323.013 213.184L299.8 21.6288H297.072L261.583 100.071L216.398 0.201599H213.57C212.95 8.0136 201.989 30.9784 202.063 30.9784L169.129 101.485L132.152 21.5296H129.374L106.906 213.184C105.368 224.989 95.82 231.908 85.1312 231.908H80.3696V234.884H138.228V232.057H133.566C127.118 232.032 121.339 225.733 121.91 219.31L125.134 183.672H171.336V180.721H168.955C161.986 180.721 154.125 173.926 158.688 161.972L166.922 142.454L211.462 239.075H214.29C216.224 226.7 224.532 208.571 224.532 208.571L256.598 137.296L267.064 162.79C270.982 174.248 263.319 180.721 256.499 180.721H254.118V183.672H297.667L300.866 219.31C301.437 225.758 295.658 232.057 289.21 232.057H284.548V234.884H349.499V231.908H344.787ZM140.187 163.435C136.244 171.272 130.962 176.158 125.58 178.662L135.054 73.2872L158.514 124.202L140.187 163.435ZM215.554 201.85L177.04 118.572L213.496 32.2928L250.969 123.582L215.554 201.85ZM290.178 163.262L267.486 113.091L287.35 68.9472L296.7 172.834C294.319 170.305 292.112 167.155 290.178 163.262Z" fill="white"/>
<path d="M141.204 410.195V409.972H141.502C142.295 409.972 142.965 409.327 142.965 408.534V402.557H133.541V408.509C133.566 409.302 134.21 409.947 135.029 409.947H135.326V410.17H130.292V409.947H130.59C131.408 409.947 132.053 409.302 132.078 408.509V395.737C132.053 394.943 131.408 394.298 130.59 394.298H130.292V394.075H135.326V394.298H135.029C134.235 394.298 133.566 394.943 133.541 395.737V401.887H142.965V395.712C142.94 394.918 142.295 394.298 141.502 394.298H141.204V394.075H146.238V394.298H145.941C145.122 394.298 144.478 394.943 144.453 395.737V408.509C144.478 409.302 145.122 409.947 145.941 409.947H146.238V410.17L141.204 410.195Z" fill="white"/>
<path d="M188.398 402.135C188.398 407.17 185.026 410.518 180.115 410.518C175.205 410.518 171.832 407.17 171.832 402.135C171.832 397.101 175.205 393.753 180.115 393.753C185.026 393.753 188.398 397.101 188.398 402.135ZM186.638 402.135C186.638 397.522 184.034 394.447 180.115 394.447C176.197 394.447 173.593 397.522 173.593 402.135C173.593 406.748 176.197 409.823 180.115 409.823C184.009 409.848 186.638 406.748 186.638 402.135Z" fill="white"/>
<path d="M229.17 394.075V394.298H228.798C228.153 394.298 227.632 394.745 227.582 395.39V404.491C227.582 408.112 225.102 410.518 221.382 410.518C217.538 410.518 214.984 408.137 214.984 404.541V395.439C214.959 394.77 214.438 394.298 213.769 394.298H213.397V394.075H218.084V394.298H217.712C217.067 394.298 216.522 394.77 216.497 395.414V404.218C216.497 407.566 218.456 409.823 221.382 409.823C224.458 409.823 226.516 407.715 226.516 404.516V395.414C226.491 394.77 225.946 394.298 225.301 394.298H224.929V394.075H229.17Z" fill="white"/>
<path d="M261.831 403.4C262.749 404.243 262.997 405.285 262.997 406.202C262.997 408.757 261.335 410.518 258.682 410.518C257.541 410.518 255.681 410.195 254.788 409.253C254.614 408.534 254.714 407.07 255.061 406.029H255.259C255.036 408.41 256.524 409.922 258.582 409.798C260.269 409.699 261.682 408.558 261.682 406.698C261.682 405.806 261.36 405.086 260.79 404.541L256.375 400.449C255.433 399.606 255.135 398.49 255.135 397.597C255.135 395.662 256.549 393.703 259.178 393.703C259.773 393.703 260.542 393.802 261.162 393.951H262.079V394.224V396.778H261.856C261.856 395.315 260.69 394.398 259.252 394.398C257.566 394.398 256.425 395.638 256.425 397.051C256.425 397.646 256.623 398.514 257.342 399.184L261.831 403.4Z" fill="white"/>
<path d="M298.287 410.195H288.739V409.972H289.037C289.855 409.972 290.5 409.327 290.525 408.534V395.638C290.45 394.894 289.83 394.323 289.062 394.323H288.764V394.1H295.51C296.502 394.1 297.841 393.852 298.262 393.678V394.348V394.745V396.605H298.039V396.183C298.039 395.464 297.469 394.844 296.75 394.819H292.062V401.937H295.956C296.576 401.937 297.072 401.416 297.072 400.796V400.449H297.295V404.094H297.072V403.747C297.072 403.127 296.576 402.631 295.981 402.606H292.062V409.501H295.361C297.791 409.501 298.734 408.236 299.453 406.475H299.676L298.287 410.195Z" fill="white"/>
</svg>
