<svg width="40" height="41" viewBox="0 0 40 41" fill="none" xmlns="http://www.w3.org/2000/svg">
<path d="M34.1563 6.73113C32.3145 4.87988 30.1208 3.41226 27.7033 2.41388C25.2857 1.41551 22.6927 0.906364 20.0754 0.916154C9.10855 0.916154 0.170829 9.81112 0.160784 20.7311C0.160784 24.2286 1.07992 27.6311 2.81523 30.6436L6.10352e-05 40.916L10.5576 38.161C13.4769 39.7466 16.7498 40.5762 20.0754 40.5735H20.0854C31.0548 40.5735 39.99 31.6785 40.0001 20.7486C40.0023 18.1437 39.4869 15.5642 38.4835 13.1585C37.4802 10.7527 36.0112 8.56837 34.1563 6.73113ZM20.0754 37.2185C17.11 37.2162 14.1995 36.4219 11.6475 34.9185L11.0448 34.5585L4.78158 36.1935L6.4541 30.1111L6.06234 29.4836C4.4044 26.8594 3.52755 23.8211 3.53346 20.7211C3.53346 11.6561 10.9594 4.26114 20.0854 4.26114C22.2596 4.25726 24.413 4.68183 26.4215 5.51037C28.43 6.33891 30.2539 7.55503 31.7881 9.08863C33.3273 10.6165 34.5475 12.4325 35.3785 14.4319C36.2095 16.4314 36.6348 18.5748 36.6299 20.7386C36.6198 29.8361 29.1939 37.2185 20.0754 37.2185ZM29.1537 24.8836C28.659 24.6361 26.2155 23.4386 25.756 23.2686C25.2989 23.1061 24.9649 23.0211 24.6384 23.5161C24.3044 24.0086 23.3501 25.1311 23.0638 25.4536C22.7776 25.7861 22.4812 25.8236 21.984 25.5786C21.4893 25.3286 19.8845 24.8086 17.986 23.1161C16.5043 21.8036 15.5124 20.1786 15.216 19.6861C14.9297 19.1911 15.1884 18.9261 15.437 18.6786C15.6555 18.4586 15.9317 18.0986 16.1804 17.8136C16.4315 17.5286 16.5144 17.3186 16.6776 16.9886C16.8408 16.6536 16.763 16.3686 16.6399 16.1211C16.5144 15.8736 15.5224 13.4311 15.103 12.4461C14.7012 11.4736 14.2919 11.6086 13.9855 11.5961C13.6992 11.5786 13.3652 11.5786 13.0312 11.5786C12.779 11.585 12.5308 11.6431 12.3022 11.7494C12.0737 11.8557 11.8696 12.0077 11.7027 12.1961C11.2457 12.6911 9.96741 13.8886 9.96741 16.3311C9.96741 18.7736 11.7504 21.1211 12.0016 21.4536C12.2477 21.7861 15.5023 26.7836 20.4973 28.9336C21.6776 29.4461 22.6068 29.7486 23.3326 29.9786C24.5254 30.3586 25.6028 30.3011 26.4616 30.1786C27.4159 30.0336 29.4024 28.9786 29.8218 27.8211C30.2336 26.6611 30.2336 25.6711 30.108 25.4636C29.985 25.2536 29.651 25.1311 29.1537 24.8836Z" fill="#A7A7A7"/>
</svg>
