<?xml version="1.0" encoding="utf-8"?>
<!-- Generator: Adobe Illustrator 24.1.2, SVG Export Plug-In . SVG Version: 6.00 Build 0)  -->
<svg version="1.1" id="Camada_1" xmlns="http://www.w3.org/2000/svg" xmlns:xlink="http://www.w3.org/1999/xlink" x="0px" y="0px"
	 viewBox="0 0 2000 1000" style="enable-background:new 0 0 2000 1000;" xml:space="preserve">
<style type="text/css">
	.st0{fill:#28A992;}
	.st1{fill:#2C9C48;}
	.st2{fill:#4CB853;}
	.st3{fill:#1E9680;}
	.st4{fill:#F6851F;}
	.st5{fill:#F8961D;}
	.st6{fill:#E01F27;}
	.st7{fill:#CA2127;}
</style>
<g>
	<g>
		<path d="M1172.14,538.04c-0.23-39.81-0.46-78.98-0.69-118.29c5.12,0,9.97,0,14.95,0c0,45.53,0,91.1,0,136.86
			c-2.83,0-5.59,0-8.36,0c-2.39,0-4.78-0.08-7.16,0.03c-1.27,0.06-2.07-0.37-2.85-1.36c-8.13-10.29-16.31-20.53-24.48-30.79
			c-19.8-24.86-39.61-49.73-59.42-74.59c-3.22-4.04-6.43-8.07-9.55-11.99c0.42,39.44,0.85,78.96,1.28,118.59
			c-5.28,0-10.08,0-14.99,0c0-45.58,0-91.11,0-136.89c0.52,0,1.06,0,1.61,0c4.49,0,8.98,0.03,13.46-0.02
			c1.06-0.01,1.78,0.27,2.46,1.12c18.09,22.6,36.21,45.18,54.32,67.76c12.96,16.16,25.93,32.33,38.88,48.5
			C1171.78,537.18,1171.86,537.48,1172.14,538.04z"/>
		<path d="M1017.58,487.93c-0.26,15.1-3.67,29.19-12.63,41.53c-11.43,15.73-26.83,25.32-46.02,28.57
			c-15.99,2.71-31.78,1.78-46.69-4.9c-22.6-10.11-36.68-27.27-40.59-52.05c-2.45-15.51-1.26-30.77,5.83-44.99
			c10.1-20.27,26.65-32.67,48.68-37.4c16.08-3.45,32.17-2.78,47.49,3.49c23.1,9.47,37.7,26.39,42.39,51.21
			C1016.95,478.17,1017.09,483.09,1017.58,487.93z M943.89,546.25c4.27-0.5,8.61-0.69,12.81-1.57
			c16.98-3.56,30.03-12.77,38.37-28.08c6.6-12.12,7.59-25.26,5.81-38.7c-2.38-17.95-11.82-31.27-27.36-40.22
			c-13.45-7.74-28.05-9.37-42.97-6.05c-19.82,4.41-33.89,16.06-40.95,35.38c-3.82,10.45-4.11,21.33-2.47,32.25
			c1.54,10.26,5.53,19.49,12.51,27.27C911.43,539.67,926.31,545.88,943.89,546.25z"/>
		<path d="M1860,488.12c-0.35,15.76-4.13,30.37-13.88,42.98c-11.36,14.71-26.26,23.78-44.63,26.91
			c-15.39,2.63-30.61,1.88-45.12-4.15c-23.05-9.59-37.67-26.48-42.1-51.37c-2.95-16.54-1.61-32.78,6.29-47.85
			c9.91-18.89,25.66-30.78,46.38-35.59c17.43-4.05,34.82-3.27,51.32,4.07c21.73,9.67,35.5,26.18,40.07,49.79
			C1859.3,477.91,1859.46,483.05,1860,488.12z M1788.36,546.01c2.25-0.27,6.59-0.46,10.78-1.34c17.04-3.58,30.11-12.86,38.42-28.23
			c6.22-11.51,7.37-24.02,5.94-36.86c-2.11-18.93-11.7-32.97-28.18-42.21c-13.85-7.76-28.81-9.15-44-5.38
			c-18.83,4.68-32.26,16.09-39.14,34.48c-3.62,9.67-4.15,19.78-3.01,30.01c1.04,9.35,3.84,18.09,9.43,25.69
			C1750.42,538.22,1766.56,545.77,1788.36,546.01z"/>
		<path d="M1408.73,543.05c24.42,0,48.66,0,72.99,0c0,4.53,0,8.94,0,13.45c-29.55,0-59.06,0-88.7,0c0-45.57,0-91.13,0-136.79
			c28.53,0,57.01,0,85.59,0c0,4.36,0,8.65,0,13.15c-23.22,0-46.47,0-69.91,0c-0.04,0.79-0.1,1.39-0.1,2
			c-0.01,13.92,0.03,27.83-0.04,41.75c-0.01,1.63,0.52,1.95,2.03,1.95c19.54-0.05,39.08-0.03,58.62-0.03c0.73,0,1.46,0,2.32,0
			c0,4.45,0,8.78,0,13.28c-20.92,0-41.8,0-62.8,0C1408.73,508.91,1408.73,525.85,1408.73,543.05z"/>
		<path d="M1350.35,430.77c-2.16,4.19-4.26,8.26-6.31,12.23c-3.91-2.12-7.63-4.43-11.58-6.22c-17.95-8.13-36.34-9.51-54.51-1.38
			c-17.5,7.83-28,21.75-31.33,40.71c-2.23,12.7-1.45,25.28,3.7,37.22c6.89,16.01,19.49,25.38,36.09,29.62
			c9.74,2.49,19.66,2.22,29.6,1.19c10.56-1.09,20-5.12,28.87-10.72c0.33-0.21,0.67-0.41,1.13-0.69c1.46,4.39,2.86,8.68,4.35,12.94
			c0.4,1.14-0.48,1.26-1.02,1.59c-7.19,4.46-14.98,7.49-23.21,9.35c-10.86,2.46-21.88,3.39-32.97,2.35
			c-16.44-1.54-31.16-7.32-43.36-18.71c-8.93-8.34-14.35-18.79-17.24-30.53c-3.94-15.98-4.14-31.99,1.71-47.54
			c7.74-20.57,22.66-34.27,43.26-41.1c22.69-7.52,45.02-5.63,66.37,5.51c1.9,0.99,3.67,2.26,5.49,3.4
			C1349.68,430.2,1349.92,430.43,1350.35,430.77z"/>
		<path d="M831.03,532.67c1.53,4.55,2.99,8.82,4.34,13.12c0.11,0.36-0.5,1.16-0.97,1.45c-5.8,3.62-12.03,6.3-18.6,8.17
			c-12.41,3.52-25.09,4.72-37.9,3.54c-15.27-1.41-29.08-6.72-40.9-16.7c-9.54-8.07-15.51-18.45-18.8-30.34
			c-4.75-17.16-5.07-34.4,1.64-51.08c8.45-20.98,24.38-34.12,45.73-40.78c11.21-3.49,22.75-3.82,34.37-2.5
			c12.25,1.39,23.63,5.18,33.91,12.08c0.51,0.34,1,0.72,1.57,1.14c-2.17,4.17-4.3,8.28-6.23,11.99c-5.81-2.8-11.29-5.98-17.14-8.16
			c-16.67-6.2-33.54-6.51-49.78,1.15c-17.2,8.11-27.5,21.98-30.71,40.82c-2.06,12.07-1.33,24.04,3.22,35.48
			c6.47,16.25,18.84,25.99,35.42,30.64c8.91,2.5,18.04,2.45,27.19,1.88C809.65,543.77,820.7,539.6,831.03,532.67z"/>
		<path d="M1627.58,432.91c-14.21,0-28.11,0-42.1,0c0-4.42,0-8.72,0-13.16c33.2,0,66.44,0,99.79,0c0,4.33,0,8.66,0,13.18
			c-13.99,0-27.93,0-42.06,0c0,41.27,0,82.37,0,123.57c-5.27,0-10.35,0-15.63,0C1627.58,515.32,1627.58,474.24,1627.58,432.91z"/>
		<path d="M1526.44,419.67c5.18,0,10.21,0,15.38,0c0,45.61,0,91.17,0,136.82c-5.13,0-10.21,0-15.38,0
			C1526.44,510.89,1526.44,465.37,1526.44,419.67z"/>
	</g>
	<g>
		<path class="st0" d="M568.94,256.72c0-17.46-14.15-31.61-31.61-31.61c-9.37,0-17.79,4.08-23.57,10.56
			c-0.89,0.79-1.73,1.63-2.52,2.52c-0.89,0.79-1.73,1.63-2.52,2.52c-0.89,0.79-1.73,1.63-2.52,2.52c-0.89,0.79-1.73,1.63-2.52,2.52
			c-0.89,0.79-1.73,1.63-2.52,2.52c-0.89,0.79-1.73,1.63-2.52,2.52c-0.89,0.79-1.73,1.63-2.52,2.52c-0.89,0.79-1.73,1.63-2.52,2.52
			c-0.89,0.79-1.73,1.63-2.52,2.52c-0.89,0.79-1.73,1.63-2.52,2.52c-0.89,0.79-1.73,1.63-2.52,2.52c-0.89,0.79-1.73,1.63-2.52,2.52
			c-0.89,0.79-1.73,1.63-2.52,2.52c-0.89,0.79-1.73,1.63-2.52,2.52c-0.89,0.79-1.73,1.63-2.52,2.52c-0.89,0.79-1.73,1.63-2.52,2.52
			c-0.89,0.79-1.73,1.63-2.52,2.52c-0.89,0.79-1.73,1.63-2.52,2.52c-0.89,0.79-1.73,1.63-2.52,2.52c-0.89,0.79-1.73,1.63-2.52,2.52
			c-0.89,0.79-1.73,1.63-2.52,2.52c-0.89,0.79-1.73,1.63-2.52,2.52c-0.89,0.79-1.73,1.63-2.52,2.52c-0.89,0.79-1.73,1.63-2.52,2.52
			c-0.89,0.79-1.73,1.63-2.52,2.52c-0.89,0.79-1.73,1.63-2.52,2.52c-0.89,0.79-1.73,1.63-2.52,2.52c-0.89,0.79-1.73,1.63-2.52,2.52
			c-0.89,0.79-1.73,1.63-2.52,2.52c-0.89,0.79-1.73,1.63-2.52,2.52c-0.89,0.79-1.73,1.63-2.52,2.52c-0.89,0.79-1.73,1.63-2.52,2.52
			c-0.89,0.79-1.73,1.63-2.52,2.52c-0.89,0.79-1.73,1.63-2.52,2.52c-0.89,0.79-1.73,1.63-2.52,2.52c-0.89,0.79-1.73,1.63-2.52,2.52
			c-0.89,0.79-1.73,1.63-2.52,2.52c-0.89,0.79-1.73,1.63-2.52,2.52c-0.89,0.79-1.73,1.63-2.52,2.52c-0.89,0.79-1.73,1.63-2.52,2.52
			c-0.89,0.79-1.73,1.63-2.52,2.52c-0.89,0.79-1.73,1.63-2.52,2.52c-0.89,0.79-1.73,1.63-2.52,2.52c-0.89,0.79-1.73,1.63-2.52,2.52
			c-0.89,0.79-1.73,1.63-2.52,2.52c-0.89,0.79-1.73,1.63-2.52,2.52c-0.89,0.79-1.73,1.63-2.52,2.52c-0.89,0.79-1.73,1.63-2.52,2.52
			c-0.89,0.79-1.73,1.63-2.52,2.52c-0.89,0.79-1.73,1.63-2.52,2.52c-0.89,0.79-1.73,1.63-2.52,2.52c-0.89,0.79-1.73,1.63-2.52,2.52
			c-0.89,0.79-1.73,1.63-2.52,2.52c-0.89,0.79-1.73,1.63-2.52,2.52c-0.89,0.79-1.73,1.63-2.52,2.52c-0.89,0.79-1.73,1.63-2.52,2.52
			c-0.89,0.79-1.73,1.63-2.52,2.52c-0.89,0.79-1.73,1.63-2.52,2.52c-0.89,0.79-1.73,1.63-2.52,2.52c-0.89,0.79-1.73,1.63-2.52,2.52
			c-0.89,0.79-1.73,1.63-2.52,2.52c-0.89,0.79-1.73,1.63-2.52,2.52c-0.89,0.79-1.73,1.63-2.52,2.52c-0.89,0.79-1.73,1.63-2.52,2.52
			c-0.89,0.79-1.73,1.63-2.52,2.52c-0.89,0.79-1.73,1.63-2.52,2.52c-0.89,0.79-1.73,1.63-2.52,2.52c-0.89,0.79-1.73,1.63-2.52,2.52
			c-0.89,0.79-1.73,1.63-2.52,2.52c-0.89,0.79-1.73,1.63-2.52,2.52c-0.89,0.79-1.73,1.63-2.52,2.52c-0.89,0.79-1.73,1.63-2.52,2.52
			c-0.89,0.79-1.73,1.63-2.52,2.52c-0.89,0.79-1.73,1.63-2.52,2.52c-0.89,0.79-1.73,1.63-2.52,2.52c-0.89,0.79-1.73,1.63-2.52,2.52
			c-0.89,0.79-1.73,1.63-2.52,2.52c-0.89,0.79-1.73,1.63-2.52,2.52c-0.89,0.79-1.73,1.63-2.52,2.52c-0.89,0.79-1.73,1.63-2.52,2.52
			c-0.89,0.79-1.73,1.63-2.52,2.52c-0.89,0.79-1.73,1.63-2.52,2.52c-0.89,0.79-1.73,1.63-2.52,2.52c-0.89,0.79-1.73,1.63-2.52,2.52
			c-0.89,0.79-1.73,1.63-2.52,2.52c-0.89,0.79-1.73,1.63-2.52,2.52c-0.89,0.79-1.73,1.63-2.52,2.52c-0.89,0.79-1.73,1.63-2.52,2.52
			c-0.89,0.79-1.73,1.63-2.52,2.52c-0.89,0.79-1.73,1.63-2.52,2.52c-0.89,0.79-1.73,1.63-2.52,2.52c-0.89,0.79-1.73,1.63-2.52,2.52
			c-0.89,0.79-1.73,1.63-2.52,2.52c-0.89,0.79-1.73,1.63-2.52,2.52c-0.89,0.79-1.73,1.63-2.52,2.52c-0.89,0.79-1.73,1.63-2.52,2.52
			c-0.89,0.79-1.73,1.63-2.52,2.52c-0.89,0.79-1.73,1.63-2.52,2.52c-0.89,0.79-1.73,1.63-2.52,2.52c-0.89,0.79-1.73,1.63-2.52,2.52
			c-6.48,5.79-10.56,14.2-10.56,23.57c0,17.46,14.15,31.61,31.61,31.61c9.37,0,17.79-4.08,23.57-10.56
			c0.89-0.79,1.73-1.63,2.52-2.52c0.89-0.79,1.73-1.63,2.52-2.52c0.89-0.79,1.73-1.63,2.52-2.52c0.89-0.79,1.73-1.63,2.52-2.52
			c0.89-0.79,1.73-1.63,2.52-2.52c0.89-0.79,1.73-1.63,2.52-2.52c0.89-0.79,1.73-1.63,2.52-2.52c0.89-0.79,1.73-1.63,2.52-2.52
			c0.89-0.79,1.73-1.63,2.52-2.52c0.89-0.79,1.73-1.63,2.52-2.52c0.89-0.79,1.73-1.63,2.52-2.52c0.89-0.79,1.73-1.63,2.52-2.52
			c0.89-0.79,1.73-1.63,2.52-2.52c0.89-0.79,1.73-1.63,2.52-2.52c0.89-0.79,1.73-1.63,2.52-2.52c0.89-0.79,1.73-1.63,2.52-2.52
			c0.89-0.79,1.73-1.63,2.52-2.52c0.89-0.79,1.73-1.63,2.52-2.52c0.89-0.79,1.73-1.63,2.52-2.52c0.89-0.79,1.73-1.63,2.52-2.52
			c0.89-0.79,1.73-1.63,2.52-2.52c0.89-0.79,1.73-1.63,2.52-2.52c0.89-0.79,1.73-1.63,2.52-2.52c0.89-0.79,1.73-1.63,2.52-2.52
			c0.89-0.79,1.73-1.63,2.52-2.52c0.89-0.79,1.73-1.63,2.52-2.52c0.89-0.79,1.73-1.63,2.52-2.52c0.89-0.79,1.73-1.63,2.52-2.52
			c0.89-0.79,1.73-1.63,2.52-2.52c0.89-0.79,1.73-1.63,2.52-2.52c0.89-0.79,1.73-1.63,2.52-2.52c0.89-0.79,1.73-1.63,2.52-2.52
			c0.89-0.79,1.73-1.63,2.52-2.52c0.89-0.79,1.73-1.63,2.52-2.52c0.89-0.79,1.73-1.63,2.52-2.52c0.89-0.79,1.73-1.63,2.52-2.52
			c0.89-0.79,1.73-1.63,2.52-2.52c0.89-0.79,1.73-1.63,2.52-2.52c0.89-0.79,1.73-1.63,2.52-2.52c0.89-0.79,1.73-1.63,2.52-2.52
			c0.89-0.79,1.73-1.63,2.52-2.52c0.89-0.79,1.73-1.63,2.52-2.52c0.89-0.79,1.73-1.63,2.52-2.52c0.89-0.79,1.73-1.63,2.52-2.52
			c0.89-0.79,1.73-1.63,2.52-2.52c0.89-0.79,1.73-1.63,2.52-2.52c0.89-0.79,1.73-1.63,2.52-2.52c0.89-0.79,1.73-1.63,2.52-2.52
			c0.89-0.79,1.73-1.63,2.52-2.52c0.89-0.79,1.73-1.63,2.52-2.52c0.89-0.79,1.73-1.63,2.52-2.52c0.89-0.79,1.73-1.63,2.52-2.52
			c0.89-0.79,1.73-1.63,2.52-2.52c0.89-0.79,1.73-1.63,2.52-2.52c0.89-0.79,1.73-1.63,2.52-2.52c0.89-0.79,1.73-1.63,2.52-2.52
			c0.89-0.79,1.73-1.63,2.52-2.52c0.89-0.79,1.73-1.63,2.52-2.52c0.89-0.79,1.73-1.63,2.52-2.52c0.89-0.79,1.73-1.63,2.52-2.52
			c0.89-0.79,1.73-1.63,2.52-2.52c0.89-0.79,1.73-1.63,2.52-2.52c0.89-0.79,1.73-1.63,2.52-2.52c0.89-0.79,1.73-1.63,2.52-2.52
			c0.89-0.79,1.73-1.63,2.52-2.52c0.89-0.79,1.73-1.63,2.52-2.52c0.89-0.79,1.73-1.63,2.52-2.52c0.89-0.79,1.73-1.63,2.52-2.52
			c0.89-0.79,1.73-1.63,2.52-2.52c0.89-0.79,1.73-1.63,2.52-2.52c0.89-0.79,1.73-1.63,2.52-2.52c0.89-0.79,1.73-1.63,2.52-2.52
			c0.89-0.79,1.73-1.63,2.52-2.52c0.89-0.79,1.73-1.63,2.52-2.52c0.89-0.79,1.73-1.63,2.52-2.52c0.89-0.79,1.73-1.63,2.52-2.52
			c0.89-0.79,1.73-1.63,2.52-2.52c0.89-0.79,1.73-1.63,2.52-2.52c0.89-0.79,1.73-1.63,2.52-2.52c0.89-0.79,1.73-1.63,2.52-2.52
			c0.89-0.79,1.73-1.63,2.52-2.52c0.89-0.79,1.73-1.63,2.52-2.52c0.89-0.79,1.73-1.63,2.52-2.52c0.89-0.79,1.73-1.63,2.52-2.52
			c0.89-0.79,1.73-1.63,2.52-2.52c0.89-0.79,1.73-1.63,2.52-2.52c0.89-0.79,1.73-1.63,2.52-2.52c0.89-0.79,1.73-1.63,2.52-2.52
			c0.89-0.79,1.73-1.63,2.52-2.52c0.89-0.79,1.73-1.63,2.52-2.52c0.89-0.79,1.73-1.63,2.52-2.52c0.89-0.79,1.73-1.63,2.52-2.52
			c0.89-0.79,1.73-1.63,2.52-2.52c0.89-0.79,1.73-1.63,2.52-2.52c0.89-0.79,1.73-1.63,2.52-2.52c0.89-0.79,1.73-1.63,2.52-2.52
			c0.89-0.79,1.73-1.63,2.52-2.52c0.89-0.79,1.73-1.63,2.52-2.52c0.89-0.79,1.73-1.63,2.52-2.52c0.89-0.79,1.73-1.63,2.52-2.52
			C564.86,274.51,568.94,266.09,568.94,256.72z"/>
		<path class="st1" d="M557.14,695.61c-0.62-0.67-1.26-1.32-1.93-1.93c-0.62-0.67-1.26-1.31-1.93-1.93
			c-0.62-0.67-1.26-1.32-1.93-1.93c-0.62-0.67-1.26-1.32-1.93-1.93c-0.62-0.67-1.26-1.32-1.93-1.93c-0.62-0.67-1.26-1.32-1.93-1.93
			c-0.62-0.67-1.26-1.32-1.93-1.93c-0.62-0.67-1.26-1.32-1.93-1.93c-0.62-0.67-1.26-1.32-1.93-1.93c-0.62-0.67-1.26-1.32-1.93-1.93
			c-0.62-0.67-1.26-1.32-1.93-1.93c-0.62-0.67-1.26-1.32-1.93-1.93c-0.62-0.67-1.26-1.31-1.93-1.93c-0.62-0.67-1.26-1.32-1.93-1.93
			c-0.62-0.67-1.26-1.32-1.93-1.93c-0.62-0.67-1.26-1.32-1.93-1.93c-0.62-0.67-1.26-1.32-1.93-1.93c-0.62-0.67-1.26-1.32-1.93-1.93
			c-0.62-0.67-1.26-1.32-1.93-1.93c-0.62-0.67-1.26-1.32-1.93-1.93c-0.62-0.67-1.26-1.32-1.93-1.93c-0.62-0.67-1.26-1.32-1.93-1.93
			c-0.62-0.67-1.26-1.32-1.93-1.93c-0.62-0.67-1.26-1.32-1.93-1.93c-0.62-0.67-1.26-1.31-1.93-1.93c-0.62-0.67-1.26-1.32-1.93-1.93
			c-0.62-0.67-1.26-1.32-1.93-1.93c-0.62-0.67-1.26-1.32-1.93-1.93c-0.62-0.67-1.26-1.32-1.93-1.93c-0.62-0.67-1.26-1.32-1.93-1.93
			c-0.62-0.67-1.26-1.32-1.93-1.93c-0.62-0.67-1.26-1.32-1.93-1.93c-0.62-0.67-1.26-1.32-1.93-1.93c-0.62-0.67-1.26-1.32-1.93-1.93
			c-5.78-6.3-14.07-10.25-23.3-10.25c-17.46,0-31.61,14.15-31.61,31.61c0,9.22,3.95,17.52,10.25,23.29
			c0.62,0.67,1.26,1.32,1.93,1.93c0.62,0.67,1.26,1.32,1.93,1.93c0.62,0.67,1.26,1.32,1.93,1.93c0.62,0.67,1.26,1.32,1.93,1.93
			c0.62,0.67,1.26,1.32,1.93,1.93c0.62,0.67,1.26,1.32,1.93,1.93c0.62,0.67,1.26,1.32,1.93,1.93c0.62,0.67,1.26,1.32,1.93,1.93
			c0.62,0.67,1.26,1.32,1.93,1.93c0.62,0.67,1.26,1.31,1.93,1.93c0.62,0.67,1.26,1.32,1.93,1.93c0.62,0.67,1.26,1.32,1.93,1.93
			c0.62,0.67,1.26,1.32,1.93,1.93c0.62,0.67,1.26,1.32,1.93,1.93c0.62,0.67,1.26,1.32,1.93,1.93c0.62,0.67,1.26,1.32,1.93,1.93
			c0.62,0.67,1.26,1.31,1.93,1.93c0.62,0.67,1.26,1.32,1.93,1.93c0.62,0.67,1.26,1.32,1.93,1.93c0.62,0.67,1.26,1.32,1.93,1.93
			c0.62,0.67,1.26,1.32,1.93,1.93c0.62,0.67,1.26,1.31,1.93,1.93c0.62,0.67,1.26,1.32,1.93,1.93c0.62,0.67,1.26,1.32,1.93,1.93
			c0.62,0.67,1.26,1.32,1.93,1.93c0.62,0.67,1.26,1.32,1.93,1.93c0.62,0.67,1.26,1.32,1.93,1.93c0.62,0.67,1.26,1.31,1.93,1.93
			c0.62,0.67,1.26,1.32,1.93,1.93c0.62,0.67,1.26,1.32,1.93,1.93c0.62,0.67,1.26,1.32,1.93,1.93c0.62,0.67,1.26,1.32,1.93,1.93
			c0.62,0.67,1.26,1.32,1.93,1.93c0.62,0.67,1.26,1.31,1.93,1.93c5.78,6.3,14.08,10.25,23.3,10.25c17.46,0,31.61-14.15,31.61-31.61
			C567.38,709.68,563.43,701.39,557.14,695.61z"/>
		<path class="st2" d="M568.84,259.08c0.06-0.78,0.1-1.56,0.1-2.35c0-17.46-14.15-31.61-31.61-31.61
			c-17.46,0-31.61,14.15-31.61,31.61c0,0.75,0.04,1.49,0.09,2.23c-0.06,0.78-0.1,1.56-0.1,2.35c0,0.75,0.04,1.49,0.09,2.23
			c-0.06,0.78-0.1,1.56-0.1,2.35c0,0.75,0.04,1.49,0.09,2.23c-0.06,0.78-0.1,1.56-0.1,2.35c0,0.75,0.04,1.49,0.09,2.23
			c-0.06,0.78-0.1,1.56-0.1,2.35c0,0.75,0.04,1.49,0.09,2.23c-0.06,0.78-0.1,1.56-0.1,2.35c0,0.75,0.04,1.49,0.09,2.23
			c-0.06,0.78-0.1,1.56-0.1,2.35c0,0.75,0.04,1.49,0.09,2.23c-0.06,0.78-0.1,1.56-0.1,2.35c0,0.75,0.04,1.49,0.09,2.23
			c-0.06,0.78-0.1,1.56-0.1,2.35c0,0.75,0.04,1.49,0.09,2.23c-0.06,0.78-0.1,1.56-0.1,2.35c0,0.75,0.04,1.49,0.09,2.23
			c-0.06,0.78-0.1,1.56-0.1,2.35c0,0.75,0.04,1.49,0.09,2.23c-0.06,0.78-0.1,1.56-0.1,2.35c0,0.75,0.04,1.49,0.09,2.23
			c-0.06,0.78-0.1,1.56-0.1,2.35c0,0.75,0.04,1.49,0.09,2.23c-0.06,0.78-0.1,1.56-0.1,2.35c0,0.75,0.04,1.49,0.09,2.23
			c-0.06,0.78-0.1,1.56-0.1,2.35c0,0.75,0.04,1.49,0.09,2.23c-0.06,0.78-0.1,1.56-0.1,2.35c0,0.75,0.04,1.49,0.09,2.23
			c-0.06,0.78-0.1,1.56-0.1,2.35c0,0.75,0.04,1.49,0.09,2.23c-0.06,0.78-0.1,1.56-0.1,2.35c0,0.75,0.04,1.49,0.09,2.23
			c-0.06,0.78-0.1,1.56-0.1,2.35c0,0.75,0.04,1.49,0.09,2.23c-0.06,0.78-0.1,1.56-0.1,2.35c0,0.75,0.04,1.49,0.09,2.23
			c-0.06,0.78-0.1,1.56-0.1,2.35c0,0.75,0.04,1.49,0.09,2.23c-0.06,0.78-0.1,1.56-0.1,2.35c0,0.75,0.04,1.49,0.09,2.23
			c-0.06,0.78-0.1,1.56-0.1,2.35c0,0.75,0.04,1.49,0.09,2.23c-0.06,0.78-0.1,1.56-0.1,2.35c0,0.75,0.04,1.49,0.09,2.23
			c-0.06,0.78-0.1,1.56-0.1,2.35c0,0.75,0.04,1.49,0.09,2.23c-0.06,0.78-0.1,1.56-0.1,2.35c0,0.75,0.04,1.49,0.09,2.23
			c-0.06,0.78-0.1,1.56-0.1,2.35c0,0.75,0.04,1.49,0.09,2.23c-0.06,0.78-0.1,1.56-0.1,2.35c0,0.75,0.04,1.49,0.09,2.23
			c-0.06,0.78-0.1,1.56-0.1,2.35c0,0.75,0.04,1.49,0.09,2.23c-0.06,0.78-0.1,1.56-0.1,2.35c0,0.75,0.04,1.49,0.09,2.23
			c-0.06,0.78-0.1,1.56-0.1,2.35c0,0.75,0.04,1.49,0.09,2.23c-0.06,0.78-0.1,1.56-0.1,2.35c0,0.75,0.04,1.49,0.09,2.23
			c-0.06,0.78-0.1,1.56-0.1,2.35c0,0.75,0.04,1.49,0.09,2.23c-0.06,0.78-0.1,1.56-0.1,2.35c0,0.75,0.04,1.49,0.09,2.23
			c-0.06,0.78-0.1,1.56-0.1,2.35c0,0.75,0.04,1.49,0.09,2.23c-0.06,0.78-0.1,1.56-0.1,2.35c0,0.75,0.04,1.49,0.09,2.23
			c-0.06,0.78-0.1,1.56-0.1,2.35c0,0.75,0.04,1.49,0.09,2.23c-0.06,0.78-0.1,1.56-0.1,2.35c0,0.75,0.04,1.49,0.09,2.23
			c-0.06,0.78-0.1,1.56-0.1,2.35c0,0.75,0.04,1.49,0.09,2.23c-0.06,0.78-0.1,1.56-0.1,2.35c0,0.75,0.04,1.49,0.09,2.23
			c-0.06,0.78-0.1,1.56-0.1,2.35c0,0.75,0.04,1.49,0.09,2.23c-0.06,0.78-0.1,1.56-0.1,2.35c0,0.75,0.04,1.49,0.09,2.23
			c-0.06,0.78-0.1,1.56-0.1,2.35c0,0.75,0.04,1.49,0.09,2.23c-0.06,0.78-0.1,1.56-0.1,2.35c0,0.75,0.04,1.49,0.09,2.23
			c-0.06,0.78-0.1,1.56-0.1,2.35c0,0.75,0.04,1.49,0.09,2.23c-0.06,0.78-0.1,1.56-0.1,2.35c0,0.75,0.04,1.49,0.09,2.23
			c-0.06,0.78-0.1,1.56-0.1,2.35c0,0.75,0.04,1.49,0.09,2.23c-0.06,0.78-0.1,1.56-0.1,2.35c0,0.75,0.04,1.49,0.09,2.23
			c-0.06,0.78-0.1,1.56-0.1,2.35c0,0.75,0.04,1.49,0.09,2.23c-0.06,0.78-0.1,1.56-0.1,2.35c0,0.75,0.04,1.49,0.09,2.23
			c-0.06,0.78-0.1,1.56-0.1,2.35c0,0.75,0.04,1.49,0.09,2.23c-0.06,0.78-0.1,1.56-0.1,2.35c0,0.75,0.04,1.49,0.09,2.23
			c-0.06,0.78-0.1,1.56-0.1,2.35c0,0.75,0.04,1.49,0.09,2.23c-0.06,0.78-0.1,1.56-0.1,2.35c0,0.75,0.04,1.49,0.09,2.23
			c-0.06,0.78-0.1,1.56-0.1,2.35c0,0.75,0.04,1.49,0.09,2.23c-0.06,0.78-0.1,1.56-0.1,2.35c0,0.75,0.04,1.49,0.09,2.23
			c-0.06,0.78-0.1,1.56-0.1,2.35c0,0.75,0.04,1.49,0.09,2.23c-0.06,0.78-0.1,1.56-0.1,2.35c0,0.75,0.04,1.49,0.09,2.23
			c-0.06,0.78-0.1,1.56-0.1,2.35c0,0.75,0.04,1.49,0.09,2.23c-0.06,0.78-0.1,1.56-0.1,2.35c0,0.75,0.04,1.49,0.09,2.23
			c-0.06,0.78-0.1,1.56-0.1,2.35c0,0.75,0.04,1.49,0.09,2.23c-0.06,0.78-0.1,1.56-0.1,2.35c0,0.75,0.04,1.49,0.09,2.23
			c-0.06,0.78-0.1,1.56-0.1,2.35c0,0.75,0.04,1.49,0.09,2.23c-0.06,0.78-0.1,1.56-0.1,2.35c0,0.75,0.04,1.49,0.09,2.23
			c-0.06,0.78-0.1,1.56-0.1,2.35c0,0.75,0.04,1.49,0.09,2.23c-0.06,0.78-0.1,1.56-0.1,2.35c0,0.75,0.04,1.49,0.09,2.23
			c-0.06,0.78-0.1,1.56-0.1,2.35c0,0.75,0.04,1.49,0.09,2.23c-0.06,0.78-0.1,1.56-0.1,2.35c0,0.75,0.04,1.49,0.09,2.23
			c-0.06,0.78-0.1,1.56-0.1,2.35c0,0.75,0.04,1.49,0.09,2.23c-0.06,0.78-0.1,1.56-0.1,2.35c0,0.75,0.04,1.49,0.09,2.23
			c-0.06,0.78-0.1,1.56-0.1,2.35c0,0.75,0.04,1.49,0.09,2.23c-0.06,0.78-0.1,1.56-0.1,2.35c0,0.75,0.04,1.49,0.09,2.23
			c-0.06,0.78-0.1,1.56-0.1,2.35c0,0.75,0.04,1.49,0.09,2.23c-0.06,0.78-0.1,1.56-0.1,2.35c0,0.75,0.04,1.49,0.09,2.23
			c-0.06,0.78-0.1,1.56-0.1,2.35c0,0.75,0.04,1.49,0.09,2.23c-0.06,0.78-0.1,1.56-0.1,2.35c0,0.75,0.04,1.49,0.09,2.23
			c-0.06,0.78-0.1,1.56-0.1,2.35c0,0.75,0.04,1.49,0.09,2.23c-0.06,0.78-0.1,1.56-0.1,2.35c0,0.75,0.04,1.49,0.09,2.23
			c-0.06,0.78-0.1,1.56-0.1,2.35c0,0.75,0.04,1.49,0.09,2.23c-0.06,0.78-0.1,1.56-0.1,2.35c0,0.75,0.04,1.49,0.09,2.23
			c-0.06,0.78-0.1,1.56-0.1,2.35c0,0.75,0.04,1.49,0.09,2.23c-0.06,0.78-0.1,1.56-0.1,2.35c0,0.75,0.04,1.49,0.09,2.23
			c-0.06,0.78-0.1,1.56-0.1,2.35c0,0.75,0.04,1.49,0.09,2.23c-0.06,0.78-0.1,1.56-0.1,2.35c0,0.75,0.04,1.49,0.09,2.23
			c-0.06,0.78-0.1,1.56-0.1,2.35c0,0.75,0.04,1.49,0.09,2.23c-0.06,0.78-0.1,1.56-0.1,2.35c0,0.75,0.04,1.49,0.09,2.23
			c-0.06,0.78-0.1,1.56-0.1,2.35c0,0.75,0.04,1.49,0.09,2.23c-0.06,0.78-0.1,1.56-0.1,2.35c0,0.75,0.04,1.49,0.09,2.23
			c-0.06,0.78-0.1,1.56-0.1,2.35c0,0.75,0.04,1.49,0.09,2.23c-0.06,0.78-0.1,1.56-0.1,2.35c0,0.75,0.04,1.49,0.09,2.23
			c-0.06,0.78-0.1,1.56-0.1,2.35c0,0.75,0.04,1.49,0.09,2.23c-0.06,0.78-0.1,1.56-0.1,2.35c0,0.75,0.04,1.49,0.09,2.23
			c-0.06,0.78-0.1,1.56-0.1,2.35c0,0.75,0.04,1.49,0.09,2.23c-0.06,0.78-0.1,1.56-0.1,2.35c0,0.75,0.04,1.49,0.09,2.23
			c-0.06,0.78-0.1,1.56-0.1,2.35c0,0.75,0.04,1.49,0.09,2.23c-0.06,0.78-0.1,1.56-0.1,2.35c0,0.75,0.04,1.49,0.09,2.23
			c-0.06,0.78-0.1,1.56-0.1,2.35c0,0.75,0.04,1.49,0.09,2.23c-0.06,0.78-0.1,1.56-0.1,2.35c0,0.75,0.04,1.49,0.09,2.23
			c-0.06,0.78-0.1,1.56-0.1,2.35c0,0.75,0.04,1.49,0.09,2.23c-0.06,0.78-0.1,1.56-0.1,2.35c0,0.75,0.04,1.49,0.09,2.23
			c-0.06,0.78-0.1,1.56-0.1,2.35c0,0.75,0.04,1.49,0.09,2.23c-0.06,0.78-0.1,1.56-0.1,2.35c0,17.46,14.15,31.61,31.61,31.61
			c17.46,0,31.61-14.15,31.61-31.61c0-0.75-0.04-1.49-0.09-2.23c0.06-0.78,0.1-1.56,0.1-2.35c0-0.75-0.04-1.49-0.09-2.23
			c0.06-0.78,0.1-1.56,0.1-2.35c0-0.75-0.04-1.49-0.09-2.23c0.06-0.78,0.1-1.56,0.1-2.35c0-0.75-0.04-1.49-0.09-2.23
			c0.06-0.78,0.1-1.56,0.1-2.35c0-0.75-0.04-1.49-0.09-2.23c0.06-0.78,0.1-1.56,0.1-2.35c0-0.75-0.04-1.49-0.09-2.23
			c0.06-0.78,0.1-1.56,0.1-2.35c0-0.75-0.04-1.49-0.09-2.23c0.06-0.78,0.1-1.56,0.1-2.35c0-0.75-0.04-1.49-0.09-2.23
			c0.06-0.78,0.1-1.56,0.1-2.35c0-0.75-0.04-1.49-0.09-2.23c0.06-0.78,0.1-1.56,0.1-2.35c0-0.75-0.04-1.49-0.09-2.23
			c0.06-0.78,0.1-1.56,0.1-2.35c0-0.75-0.04-1.49-0.09-2.23c0.06-0.78,0.1-1.56,0.1-2.35c0-0.75-0.04-1.49-0.09-2.23
			c0.06-0.78,0.1-1.56,0.1-2.35c0-0.75-0.04-1.49-0.09-2.23c0.06-0.78,0.1-1.56,0.1-2.35c0-0.75-0.04-1.49-0.09-2.23
			c0.06-0.78,0.1-1.56,0.1-2.35c0-0.75-0.04-1.49-0.09-2.23c0.06-0.78,0.1-1.56,0.1-2.35c0-0.75-0.04-1.49-0.09-2.23
			c0.06-0.78,0.1-1.56,0.1-2.35c0-0.75-0.04-1.49-0.09-2.23c0.06-0.78,0.1-1.56,0.1-2.35c0-0.75-0.04-1.49-0.09-2.23
			c0.06-0.78,0.1-1.56,0.1-2.35c0-0.75-0.04-1.49-0.09-2.23c0.06-0.78,0.1-1.56,0.1-2.35c0-0.75-0.04-1.49-0.09-2.23
			c0.06-0.78,0.1-1.56,0.1-2.35c0-0.75-0.04-1.49-0.09-2.23c0.06-0.78,0.1-1.56,0.1-2.35c0-0.75-0.04-1.49-0.09-2.23
			c0.06-0.78,0.1-1.56,0.1-2.35c0-0.75-0.04-1.49-0.09-2.23c0.06-0.78,0.1-1.56,0.1-2.35c0-0.75-0.04-1.49-0.09-2.23
			c0.06-0.78,0.1-1.56,0.1-2.35c0-0.75-0.04-1.49-0.09-2.23c0.06-0.78,0.1-1.56,0.1-2.35c0-0.75-0.04-1.49-0.09-2.23
			c0.06-0.78,0.1-1.56,0.1-2.35c0-0.75-0.04-1.49-0.09-2.23c0.06-0.78,0.1-1.56,0.1-2.35c0-0.75-0.04-1.49-0.09-2.23
			c0.06-0.78,0.1-1.56,0.1-2.35c0-0.75-0.04-1.49-0.09-2.23c0.06-0.78,0.1-1.56,0.1-2.35c0-0.75-0.04-1.49-0.09-2.23
			c0.06-0.78,0.1-1.56,0.1-2.35c0-0.75-0.04-1.49-0.09-2.23c0.06-0.78,0.1-1.56,0.1-2.35c0-0.75-0.04-1.49-0.09-2.23
			c0.06-0.78,0.1-1.56,0.1-2.35c0-0.75-0.04-1.49-0.09-2.23c0.06-0.78,0.1-1.56,0.1-2.35c0-0.75-0.04-1.49-0.09-2.23
			c0.06-0.78,0.1-1.56,0.1-2.35c0-0.75-0.04-1.49-0.09-2.23c0.06-0.78,0.1-1.56,0.1-2.35c0-0.75-0.04-1.49-0.09-2.23
			c0.06-0.78,0.1-1.56,0.1-2.35c0-0.75-0.04-1.49-0.09-2.23c0.06-0.78,0.1-1.56,0.1-2.35c0-0.75-0.04-1.49-0.09-2.23
			c0.06-0.78,0.1-1.56,0.1-2.35c0-0.75-0.04-1.49-0.09-2.23c0.06-0.78,0.1-1.56,0.1-2.35c0-0.75-0.04-1.49-0.09-2.23
			c0.06-0.78,0.1-1.56,0.1-2.35c0-0.75-0.04-1.49-0.09-2.23c0.06-0.78,0.1-1.56,0.1-2.35c0-0.75-0.04-1.49-0.09-2.23
			c0.06-0.78,0.1-1.56,0.1-2.35c0-0.75-0.04-1.49-0.09-2.23c0.06-0.78,0.1-1.56,0.1-2.35c0-0.75-0.04-1.49-0.09-2.23
			c0.06-0.78,0.1-1.56,0.1-2.35c0-0.75-0.04-1.49-0.09-2.23c0.06-0.78,0.1-1.56,0.1-2.35c0-0.75-0.04-1.49-0.09-2.23
			c0.06-0.78,0.1-1.56,0.1-2.35c0-0.75-0.04-1.49-0.09-2.23c0.06-0.78,0.1-1.56,0.1-2.35c0-0.75-0.04-1.49-0.09-2.23
			c0.06-0.78,0.1-1.56,0.1-2.35c0-0.75-0.04-1.49-0.09-2.23c0.06-0.78,0.1-1.56,0.1-2.35c0-0.75-0.04-1.49-0.09-2.23
			c0.06-0.78,0.1-1.56,0.1-2.35c0-0.75-0.04-1.49-0.09-2.23c0.06-0.78,0.1-1.56,0.1-2.35c0-0.75-0.04-1.49-0.09-2.23
			c0.06-0.78,0.1-1.56,0.1-2.35c0-0.75-0.04-1.49-0.09-2.23c0.06-0.78,0.1-1.56,0.1-2.35c0-0.75-0.04-1.49-0.09-2.23
			c0.06-0.78,0.1-1.56,0.1-2.35c0-0.75-0.04-1.49-0.09-2.23c0.06-0.78,0.1-1.56,0.1-2.35c0-0.75-0.04-1.49-0.09-2.23
			c0.06-0.78,0.1-1.56,0.1-2.35c0-0.75-0.04-1.49-0.09-2.23c0.06-0.78,0.1-1.56,0.1-2.35c0-0.75-0.04-1.49-0.09-2.23
			c0.06-0.78,0.1-1.56,0.1-2.35c0-0.75-0.04-1.49-0.09-2.23c0.06-0.78,0.1-1.56,0.1-2.35c0-0.75-0.04-1.49-0.09-2.23
			c0.06-0.78,0.1-1.56,0.1-2.35c0-0.75-0.04-1.49-0.09-2.23c0.06-0.78,0.1-1.56,0.1-2.35c0-0.75-0.04-1.49-0.09-2.23
			c0.06-0.78,0.1-1.56,0.1-2.35c0-0.75-0.04-1.49-0.09-2.23c0.06-0.78,0.1-1.56,0.1-2.35c0-0.75-0.04-1.49-0.09-2.23
			c0.06-0.78,0.1-1.56,0.1-2.35c0-0.75-0.04-1.49-0.09-2.23c0.06-0.78,0.1-1.56,0.1-2.35c0-0.75-0.04-1.49-0.09-2.23
			c0.06-0.78,0.1-1.56,0.1-2.35c0-0.75-0.04-1.49-0.09-2.23c0.06-0.78,0.1-1.56,0.1-2.35c0-0.75-0.04-1.49-0.09-2.23
			c0.06-0.78,0.1-1.56,0.1-2.35c0-0.75-0.04-1.49-0.09-2.23c0.06-0.78,0.1-1.56,0.1-2.35c0-0.75-0.04-1.49-0.09-2.23
			c0.06-0.78,0.1-1.56,0.1-2.35c0-0.75-0.04-1.49-0.09-2.23c0.06-0.78,0.1-1.56,0.1-2.35c0-0.75-0.04-1.49-0.09-2.23
			c0.06-0.78,0.1-1.56,0.1-2.35c0-0.75-0.04-1.49-0.09-2.23c0.06-0.78,0.1-1.56,0.1-2.35c0-0.75-0.04-1.49-0.09-2.23
			c0.06-0.78,0.1-1.56,0.1-2.35c0-0.75-0.04-1.49-0.09-2.23c0.06-0.78,0.1-1.56,0.1-2.35c0-0.75-0.04-1.49-0.09-2.23
			c0.06-0.78,0.1-1.56,0.1-2.35c0-0.75-0.04-1.49-0.09-2.23c0.06-0.78,0.1-1.56,0.1-2.35c0-0.75-0.04-1.49-0.09-2.23
			c0.06-0.78,0.1-1.56,0.1-2.35c0-0.75-0.04-1.49-0.09-2.23c0.06-0.78,0.1-1.56,0.1-2.35c0-0.75-0.04-1.49-0.09-2.23
			c0.06-0.78,0.1-1.56,0.1-2.35c0-0.75-0.04-1.49-0.09-2.23c0.06-0.78,0.1-1.56,0.1-2.35c0-0.75-0.04-1.49-0.09-2.23
			c0.06-0.78,0.1-1.56,0.1-2.35c0-0.75-0.04-1.49-0.09-2.23c0.06-0.78,0.1-1.56,0.1-2.35c0-0.75-0.04-1.49-0.09-2.23
			c0.06-0.78,0.1-1.56,0.1-2.35c0-0.75-0.04-1.49-0.09-2.23c0.06-0.78,0.1-1.56,0.1-2.35c0-0.75-0.04-1.49-0.09-2.23
			c0.06-0.78,0.1-1.56,0.1-2.35c0-0.75-0.04-1.49-0.09-2.23c0.06-0.78,0.1-1.56,0.1-2.35c0-0.75-0.04-1.49-0.09-2.23
			c0.06-0.78,0.1-1.56,0.1-2.35c0-0.75-0.04-1.49-0.09-2.23c0.06-0.78,0.1-1.56,0.1-2.35c0-0.75-0.04-1.49-0.09-2.23
			c0.06-0.78,0.1-1.56,0.1-2.35c0-0.75-0.04-1.49-0.09-2.23c0.06-0.78,0.1-1.56,0.1-2.35c0-0.75-0.04-1.49-0.09-2.23
			c0.06-0.78,0.1-1.56,0.1-2.35c0-0.75-0.04-1.49-0.09-2.23c0.06-0.78,0.1-1.56,0.1-2.35c0-0.75-0.04-1.49-0.09-2.23
			c0.06-0.78,0.1-1.56,0.1-2.35c0-0.75-0.04-1.49-0.09-2.23c0.06-0.78,0.1-1.56,0.1-2.35c0-0.75-0.04-1.49-0.09-2.23
			c0.06-0.78,0.1-1.56,0.1-2.35c0-0.75-0.04-1.49-0.09-2.23c0.06-0.78,0.1-1.56,0.1-2.35c0-0.75-0.04-1.49-0.09-2.23
			c0.06-0.78,0.1-1.56,0.1-2.35c0-0.75-0.04-1.49-0.09-2.23c0.06-0.78,0.1-1.56,0.1-2.35c0-0.75-0.04-1.49-0.09-2.23
			c0.06-0.78,0.1-1.56,0.1-2.35C568.93,260.55,568.89,259.81,568.84,259.08z"/>
		<circle class="st3" cx="282.74" cy="511.31" r="31.61"/>
		<path class="st4" d="M262.48,373.54c-0.22-0.23-0.45-0.46-0.68-0.68c-0.22-0.23-0.45-0.46-0.68-0.69
			c-0.22-0.23-0.45-0.46-0.68-0.69c-0.22-0.23-0.45-0.46-0.68-0.69c-0.22-0.23-0.45-0.46-0.68-0.69c-0.22-0.23-0.45-0.46-0.68-0.69
			c-0.22-0.23-0.45-0.46-0.68-0.69c-0.22-0.23-0.45-0.46-0.68-0.69c-0.22-0.23-0.45-0.46-0.68-0.68c-0.22-0.23-0.45-0.46-0.68-0.69
			c-0.22-0.23-0.45-0.46-0.68-0.69c-0.22-0.23-0.45-0.46-0.68-0.68c-0.22-0.23-0.45-0.46-0.68-0.69c-0.22-0.23-0.45-0.46-0.68-0.69
			c-0.22-0.23-0.45-0.46-0.68-0.69c-0.22-0.23-0.45-0.46-0.68-0.68c-0.22-0.23-0.45-0.46-0.68-0.69c-0.22-0.23-0.45-0.46-0.68-0.69
			c-0.22-0.23-0.45-0.46-0.68-0.69c-0.22-0.23-0.45-0.46-0.68-0.69c-0.22-0.23-0.45-0.46-0.68-0.69c-0.22-0.23-0.45-0.46-0.68-0.68
			c-0.22-0.23-0.45-0.46-0.68-0.69c-0.22-0.23-0.45-0.46-0.68-0.68c-0.22-0.23-0.45-0.46-0.68-0.69c-0.22-0.23-0.45-0.46-0.68-0.69
			c-0.22-0.23-0.45-0.46-0.68-0.69c-0.22-0.23-0.45-0.46-0.68-0.69c-0.22-0.23-0.45-0.46-0.68-0.69c-0.22-0.23-0.45-0.46-0.68-0.69
			c-0.22-0.23-0.45-0.46-0.68-0.69c-0.22-0.23-0.45-0.46-0.68-0.68c-0.22-0.23-0.45-0.46-0.68-0.68c-0.22-0.23-0.45-0.46-0.68-0.69
			c-0.22-0.23-0.45-0.46-0.68-0.69c-0.22-0.23-0.45-0.46-0.68-0.69c-0.22-0.23-0.45-0.46-0.68-0.69c-0.22-0.23-0.45-0.46-0.68-0.69
			c-0.22-0.23-0.45-0.46-0.68-0.69c-0.22-0.23-0.45-0.46-0.68-0.69c-0.22-0.23-0.45-0.46-0.68-0.69c-0.22-0.23-0.45-0.46-0.68-0.69
			c-0.22-0.23-0.45-0.46-0.68-0.69c-0.22-0.23-0.45-0.46-0.68-0.68c-0.22-0.23-0.45-0.46-0.68-0.69c-0.22-0.23-0.45-0.46-0.68-0.68
			c-0.22-0.23-0.45-0.46-0.68-0.69c-0.22-0.23-0.45-0.46-0.68-0.68c-0.22-0.23-0.45-0.46-0.68-0.69c-0.22-0.23-0.45-0.46-0.68-0.69
			c-0.22-0.23-0.45-0.46-0.68-0.69c-0.22-0.23-0.45-0.46-0.68-0.69c-0.22-0.23-0.45-0.46-0.68-0.69c-0.22-0.23-0.45-0.46-0.68-0.68
			c-0.22-0.23-0.45-0.46-0.68-0.69c-0.22-0.23-0.45-0.46-0.68-0.68c-0.22-0.23-0.45-0.46-0.68-0.69c-0.22-0.23-0.45-0.46-0.68-0.69
			c-0.22-0.23-0.45-0.46-0.68-0.69c-0.22-0.23-0.45-0.46-0.68-0.69c-0.22-0.23-0.45-0.46-0.68-0.69c-0.22-0.23-0.45-0.46-0.68-0.69
			c-0.22-0.23-0.45-0.46-0.68-0.69c-0.22-0.23-0.45-0.46-0.68-0.68c-0.22-0.23-0.45-0.46-0.68-0.68c-0.22-0.23-0.45-0.46-0.68-0.69
			c-0.22-0.23-0.45-0.46-0.68-0.69c-0.22-0.23-0.45-0.46-0.68-0.69c-0.22-0.23-0.45-0.46-0.68-0.69c-0.22-0.23-0.45-0.46-0.68-0.69
			c-0.22-0.23-0.45-0.46-0.68-0.68c-0.22-0.23-0.45-0.46-0.68-0.69c-0.22-0.23-0.45-0.46-0.68-0.69c-0.22-0.23-0.45-0.46-0.68-0.69
			c-0.22-0.23-0.45-0.46-0.68-0.69c-0.22-0.23-0.45-0.46-0.68-0.68c-0.22-0.23-0.45-0.46-0.68-0.69c-0.22-0.23-0.45-0.46-0.68-0.69
			c-0.22-0.23-0.45-0.46-0.68-0.68c-0.22-0.23-0.45-0.46-0.68-0.69c-0.22-0.23-0.45-0.46-0.68-0.69c-0.22-0.23-0.45-0.46-0.68-0.69
			c-0.22-0.23-0.45-0.46-0.68-0.69c-0.22-0.23-0.45-0.46-0.68-0.69c-0.22-0.23-0.45-0.46-0.68-0.69c-0.22-0.23-0.45-0.46-0.68-0.69
			c-0.22-0.23-0.45-0.46-0.68-0.69c-0.22-0.23-0.45-0.46-0.68-0.69c-0.22-0.23-0.45-0.46-0.68-0.69c-0.22-0.23-0.45-0.46-0.68-0.69
			c-0.22-0.23-0.45-0.46-0.68-0.69c-0.22-0.23-0.45-0.46-0.68-0.69c-0.22-0.23-0.45-0.46-0.68-0.69c-0.22-0.23-0.45-0.46-0.68-0.69
			c-0.22-0.23-0.45-0.46-0.68-0.68c-0.22-0.23-0.45-0.46-0.68-0.69c-0.22-0.23-0.45-0.46-0.68-0.68c-0.22-0.23-0.45-0.46-0.68-0.69
			c-0.22-0.23-0.45-0.46-0.68-0.69c-0.22-0.23-0.45-0.46-0.68-0.69c-5.75-5.97-13.82-9.69-22.76-9.69
			c-17.46,0-31.61,14.15-31.61,31.61c0,8.86,3.65,16.87,9.53,22.61c0.22,0.23,0.45,0.46,0.68,0.69c0.22,0.23,0.45,0.46,0.68,0.69
			c0.22,0.23,0.45,0.46,0.68,0.69c0.22,0.23,0.45,0.46,0.68,0.69c0.22,0.23,0.45,0.46,0.68,0.68c0.22,0.23,0.45,0.46,0.68,0.69
			c0.22,0.23,0.45,0.46,0.68,0.69c0.22,0.23,0.45,0.46,0.68,0.69c0.22,0.23,0.45,0.46,0.68,0.69c0.22,0.23,0.45,0.46,0.68,0.69
			c0.22,0.23,0.45,0.46,0.68,0.69c0.22,0.23,0.45,0.46,0.68,0.69c0.22,0.23,0.45,0.46,0.68,0.68c0.22,0.23,0.45,0.46,0.68,0.69
			c0.22,0.23,0.45,0.46,0.68,0.69c0.22,0.23,0.45,0.46,0.68,0.68c0.22,0.23,0.45,0.46,0.68,0.69c0.22,0.23,0.45,0.46,0.68,0.69
			c0.22,0.23,0.45,0.46,0.68,0.69c0.22,0.23,0.45,0.46,0.68,0.69c0.22,0.23,0.45,0.46,0.68,0.68c0.22,0.23,0.45,0.46,0.68,0.69
			c0.22,0.23,0.45,0.46,0.68,0.69c0.22,0.23,0.45,0.46,0.68,0.69c0.22,0.23,0.45,0.46,0.68,0.69c0.22,0.23,0.45,0.46,0.68,0.68
			c0.22,0.23,0.45,0.46,0.68,0.69c0.22,0.23,0.45,0.46,0.68,0.69c0.22,0.23,0.45,0.46,0.68,0.68c0.22,0.23,0.45,0.46,0.68,0.69
			c0.22,0.23,0.45,0.46,0.68,0.69c0.22,0.23,0.45,0.46,0.68,0.69c0.22,0.23,0.45,0.46,0.68,0.69c0.22,0.23,0.45,0.46,0.68,0.69
			c0.22,0.23,0.45,0.46,0.68,0.69c0.22,0.23,0.45,0.46,0.68,0.69c0.22,0.23,0.45,0.46,0.68,0.68c0.22,0.23,0.45,0.46,0.68,0.69
			c0.22,0.23,0.45,0.46,0.68,0.69c0.22,0.23,0.45,0.46,0.68,0.69c0.22,0.23,0.45,0.46,0.68,0.69c0.22,0.23,0.45,0.46,0.68,0.69
			c0.22,0.23,0.45,0.46,0.68,0.69c0.22,0.23,0.45,0.46,0.68,0.69c0.22,0.23,0.45,0.46,0.68,0.68c0.22,0.23,0.45,0.46,0.68,0.69
			c0.22,0.23,0.45,0.46,0.68,0.69c0.22,0.23,0.45,0.46,0.68,0.68c0.22,0.23,0.45,0.46,0.68,0.69c0.22,0.23,0.45,0.46,0.68,0.69
			c0.22,0.23,0.45,0.46,0.68,0.69c0.22,0.23,0.45,0.46,0.68,0.69c0.22,0.23,0.45,0.46,0.68,0.68c0.22,0.23,0.45,0.46,0.68,0.69
			c0.22,0.23,0.45,0.46,0.68,0.69c0.22,0.23,0.45,0.46,0.68,0.69c0.22,0.23,0.45,0.46,0.68,0.69c0.22,0.23,0.45,0.46,0.68,0.68
			c0.22,0.23,0.45,0.46,0.68,0.69c0.22,0.23,0.45,0.46,0.68,0.68c0.22,0.23,0.45,0.46,0.68,0.69c0.22,0.23,0.45,0.46,0.68,0.69
			c0.22,0.23,0.45,0.46,0.68,0.69c0.22,0.23,0.45,0.46,0.68,0.69c0.22,0.23,0.45,0.46,0.68,0.69c0.22,0.23,0.45,0.46,0.68,0.69
			c0.22,0.23,0.45,0.46,0.68,0.69c0.22,0.23,0.45,0.46,0.68,0.68c0.22,0.23,0.45,0.46,0.68,0.68c0.22,0.23,0.45,0.46,0.68,0.69
			c0.22,0.23,0.45,0.46,0.68,0.69c0.22,0.23,0.45,0.46,0.68,0.69c0.22,0.23,0.45,0.46,0.68,0.69c0.22,0.23,0.45,0.46,0.68,0.69
			c0.22,0.23,0.45,0.46,0.68,0.69c0.22,0.23,0.45,0.46,0.68,0.68c0.22,0.23,0.45,0.46,0.68,0.69c0.22,0.23,0.45,0.46,0.68,0.69
			c0.22,0.23,0.45,0.46,0.68,0.69c0.22,0.23,0.45,0.46,0.68,0.68c0.22,0.23,0.45,0.46,0.68,0.69c0.22,0.23,0.45,0.46,0.68,0.69
			c0.22,0.23,0.45,0.46,0.68,0.69c0.22,0.23,0.45,0.46,0.68,0.68c0.22,0.23,0.45,0.46,0.68,0.69c0.22,0.23,0.45,0.46,0.68,0.69
			c0.22,0.23,0.45,0.46,0.68,0.69c0.22,0.23,0.45,0.46,0.68,0.69c0.22,0.23,0.45,0.46,0.68,0.69c0.22,0.23,0.45,0.46,0.68,0.69
			c0.22,0.23,0.45,0.46,0.68,0.69c0.22,0.23,0.45,0.46,0.68,0.69c0.22,0.23,0.45,0.46,0.68,0.69c0.22,0.23,0.45,0.46,0.68,0.69
			c0.22,0.23,0.45,0.46,0.68,0.69c0.22,0.23,0.45,0.46,0.68,0.69c0.22,0.23,0.45,0.46,0.68,0.69c0.22,0.23,0.45,0.46,0.68,0.69
			c0.22,0.23,0.45,0.46,0.68,0.69c0.22,0.23,0.45,0.46,0.68,0.68c5.75,5.97,13.82,9.69,22.76,9.69c17.46,0,31.61-14.15,31.61-31.61
			C272.01,387.29,268.36,379.28,262.48,373.54z"/>
		<path class="st5" d="M203.43,329.19c0.05-0.76,0.09-1.52,0.09-2.28c0-17.46-14.15-31.61-31.61-31.61
			c-17.46,0-31.61,14.15-31.61,31.61c0,0.77,0.04,1.53,0.09,2.28c-0.05,0.76-0.09,1.52-0.09,2.28c0,0.77,0.04,1.53,0.09,2.28
			c-0.05,0.76-0.09,1.52-0.09,2.28c0,0.77,0.04,1.53,0.09,2.28c-0.05,0.76-0.09,1.52-0.09,2.28c0,0.77,0.04,1.53,0.09,2.28
			c-0.05,0.76-0.09,1.52-0.09,2.28c0,0.77,0.04,1.53,0.09,2.28c-0.05,0.76-0.09,1.52-0.09,2.28c0,0.77,0.04,1.53,0.09,2.28
			c-0.05,0.76-0.09,1.52-0.09,2.28s0.04,1.53,0.09,2.28c-0.05,0.76-0.09,1.52-0.09,2.28c0,0.77,0.04,1.53,0.09,2.28
			c-0.05,0.76-0.09,1.52-0.09,2.28c0,0.77,0.04,1.53,0.09,2.28c-0.05,0.76-0.09,1.52-0.09,2.28c0,0.77,0.04,1.53,0.09,2.28
			c-0.05,0.76-0.09,1.52-0.09,2.28c0,0.77,0.04,1.53,0.09,2.28c-0.05,0.76-0.09,1.52-0.09,2.28c0,0.77,0.04,1.53,0.09,2.28
			c-0.05,0.76-0.09,1.52-0.09,2.28c0,0.77,0.04,1.53,0.09,2.28c-0.05,0.76-0.09,1.52-0.09,2.28s0.04,1.53,0.09,2.28
			c-0.05,0.76-0.09,1.52-0.09,2.28c0,0.77,0.04,1.53,0.09,2.28c-0.05,0.76-0.09,1.52-0.09,2.28c0,0.77,0.04,1.53,0.09,2.28
			c-0.05,0.76-0.09,1.52-0.09,2.28c0,0.77,0.04,1.53,0.09,2.28c-0.05,0.76-0.09,1.52-0.09,2.28c0,0.77,0.04,1.53,0.09,2.28
			c-0.05,0.76-0.09,1.52-0.09,2.28c0,0.77,0.04,1.53,0.09,2.28c-0.05,0.76-0.09,1.52-0.09,2.28c0,0.77,0.04,1.53,0.09,2.28
			c-0.05,0.76-0.09,1.52-0.09,2.28c0,0.77,0.04,1.53,0.09,2.28c-0.05,0.76-0.09,1.52-0.09,2.28c0,0.77,0.04,1.53,0.09,2.28
			c-0.05,0.76-0.09,1.52-0.09,2.28c0,0.77,0.04,1.53,0.09,2.28c-0.05,0.76-0.09,1.52-0.09,2.28c0,0.77,0.04,1.53,0.09,2.28
			c-0.05,0.76-0.09,1.52-0.09,2.28c0,0.77,0.04,1.53,0.09,2.28c-0.05,0.76-0.09,1.52-0.09,2.28c0,0.77,0.04,1.53,0.09,2.28
			c-0.05,0.76-0.09,1.52-0.09,2.28s0.04,1.53,0.09,2.28c-0.05,0.76-0.09,1.52-0.09,2.28s0.04,1.53,0.09,2.28
			c-0.05,0.76-0.09,1.52-0.09,2.28c0,0.77,0.04,1.53,0.09,2.28c-0.05,0.76-0.09,1.52-0.09,2.28c0,0.77,0.04,1.53,0.09,2.28
			c-0.05,0.76-0.09,1.52-0.09,2.28c0,0.77,0.04,1.53,0.09,2.28c-0.05,0.76-0.09,1.52-0.09,2.28c0,0.77,0.04,1.53,0.09,2.28
			c-0.05,0.76-0.09,1.52-0.09,2.28c0,0.77,0.04,1.53,0.09,2.28c-0.05,0.76-0.09,1.52-0.09,2.28c0,0.77,0.04,1.53,0.09,2.28
			c-0.05,0.76-0.09,1.52-0.09,2.28s0.04,1.53,0.09,2.28c-0.05,0.76-0.09,1.52-0.09,2.28c0,0.77,0.04,1.53,0.09,2.28
			c-0.05,0.76-0.09,1.52-0.09,2.28c0,0.77,0.04,1.53,0.09,2.28c-0.05,0.76-0.09,1.52-0.09,2.28c0,0.77,0.04,1.53,0.09,2.28
			c-0.05,0.76-0.09,1.52-0.09,2.28c0,0.77,0.04,1.53,0.09,2.28c-0.05,0.76-0.09,1.52-0.09,2.28c0,0.77,0.04,1.53,0.09,2.28
			c-0.05,0.76-0.09,1.52-0.09,2.28c0,0.77,0.04,1.53,0.09,2.28c-0.05,0.76-0.09,1.52-0.09,2.28s0.04,1.53,0.09,2.28
			c-0.05,0.76-0.09,1.52-0.09,2.28s0.04,1.53,0.09,2.28c-0.05,0.76-0.09,1.52-0.09,2.28s0.04,1.53,0.09,2.28
			c-0.05,0.76-0.09,1.52-0.09,2.28s0.04,1.53,0.09,2.28c-0.05,0.76-0.09,1.52-0.09,2.28s0.04,1.53,0.09,2.28
			c-0.05,0.76-0.09,1.52-0.09,2.28s0.04,1.53,0.09,2.28c-0.05,0.76-0.09,1.52-0.09,2.28s0.04,1.53,0.09,2.28
			c-0.05,0.76-0.09,1.52-0.09,2.28s0.04,1.53,0.09,2.28c-0.05,0.76-0.09,1.52-0.09,2.28s0.04,1.53,0.09,2.28
			c-0.05,0.76-0.09,1.52-0.09,2.28s0.04,1.53,0.09,2.28c-0.05,0.76-0.09,1.52-0.09,2.28s0.04,1.53,0.09,2.28
			c-0.05,0.76-0.09,1.52-0.09,2.28s0.04,1.53,0.09,2.28c-0.05,0.76-0.09,1.52-0.09,2.28s0.04,1.53,0.09,2.28
			c-0.05,0.76-0.09,1.52-0.09,2.28s0.04,1.53,0.09,2.28c-0.05,0.76-0.09,1.52-0.09,2.28s0.04,1.53,0.09,2.28
			c-0.05,0.76-0.09,1.52-0.09,2.28s0.04,1.53,0.09,2.28c-0.05,0.76-0.09,1.52-0.09,2.28c0,0.77,0.04,1.53,0.09,2.28
			c-0.05,0.76-0.09,1.52-0.09,2.28c0,0.77,0.04,1.53,0.09,2.28c-0.05,0.76-0.09,1.52-0.09,2.28s0.04,1.53,0.09,2.28
			c-0.05,0.76-0.09,1.52-0.09,2.28s0.04,1.53,0.09,2.28c-0.05,0.76-0.09,1.52-0.09,2.28s0.04,1.53,0.09,2.28
			c-0.05,0.76-0.09,1.52-0.09,2.28s0.04,1.53,0.09,2.28c-0.05,0.76-0.09,1.52-0.09,2.28c0,0.77,0.04,1.53,0.09,2.28
			c-0.05,0.76-0.09,1.52-0.09,2.28c0,0.77,0.04,1.53,0.09,2.28c-0.05,0.76-0.09,1.52-0.09,2.28c0,0.77,0.04,1.53,0.09,2.28
			c-0.05,0.76-0.09,1.52-0.09,2.28s0.04,1.53,0.09,2.28c-0.05,0.76-0.09,1.52-0.09,2.28s0.04,1.53,0.09,2.28
			c-0.05,0.76-0.09,1.52-0.09,2.28s0.04,1.53,0.09,2.28c-0.05,0.76-0.09,1.52-0.09,2.28c0,0.77,0.04,1.53,0.09,2.28
			c-0.05,0.76-0.09,1.52-0.09,2.28c0,0.77,0.04,1.53,0.09,2.28c-0.05,0.76-0.09,1.52-0.09,2.28c0,0.77,0.04,1.53,0.09,2.28
			c-0.05,0.76-0.09,1.52-0.09,2.28c0,0.77,0.04,1.53,0.09,2.28c-0.05,0.76-0.09,1.52-0.09,2.28c0,0.77,0.04,1.53,0.09,2.28
			c-0.05,0.76-0.09,1.52-0.09,2.28s0.04,1.53,0.09,2.28c-0.05,0.76-0.09,1.52-0.09,2.28s0.04,1.53,0.09,2.28
			c-0.05,0.76-0.09,1.52-0.09,2.28c0,0.77,0.04,1.53,0.09,2.28c-0.05,0.76-0.09,1.52-0.09,2.28c0,0.77,0.04,1.53,0.09,2.28
			c-0.05,0.76-0.09,1.52-0.09,2.28c0,0.77,0.04,1.53,0.09,2.28c-0.05,0.76-0.09,1.52-0.09,2.28c0,0.77,0.04,1.53,0.09,2.28
			c-0.05,0.76-0.09,1.52-0.09,2.28c0,0.77,0.04,1.53,0.09,2.28c-0.05,0.76-0.09,1.52-0.09,2.28s0.04,1.53,0.09,2.28
			c-0.05,0.76-0.09,1.52-0.09,2.28c0,0.77,0.04,1.53,0.09,2.28c-0.05,0.76-0.09,1.52-0.09,2.28c0,0.77,0.04,1.53,0.09,2.28
			c-0.05,0.76-0.09,1.52-0.09,2.28c0,0.77,0.04,1.53,0.09,2.28c-0.05,0.76-0.09,1.52-0.09,2.28c0,0.77,0.04,1.53,0.09,2.28
			c-0.05,0.76-0.09,1.52-0.09,2.28c0,0.77,0.04,1.53,0.09,2.28c-0.05,0.76-0.09,1.52-0.09,2.28c0,0.77,0.04,1.53,0.09,2.28
			c-0.05,0.76-0.09,1.52-0.09,2.28c0,0.77,0.04,1.53,0.09,2.28c-0.05,0.76-0.09,1.52-0.09,2.28c0,0.77,0.04,1.53,0.09,2.28
			c-0.05,0.76-0.09,1.52-0.09,2.28c0,0.77,0.04,1.53,0.09,2.28c-0.05,0.76-0.09,1.52-0.09,2.28c0,0.77,0.04,1.53,0.09,2.28
			c-0.05,0.76-0.09,1.52-0.09,2.28c0,0.77,0.04,1.53,0.09,2.28c-0.05,0.76-0.09,1.52-0.09,2.28c0,0.77,0.04,1.53,0.09,2.28
			c-0.05,0.76-0.09,1.52-0.09,2.28s0.04,1.53,0.09,2.28c-0.05,0.76-0.09,1.52-0.09,2.28s0.04,1.53,0.09,2.28
			c-0.05,0.76-0.09,1.52-0.09,2.28c0,0.77,0.04,1.53,0.09,2.28c-0.05,0.76-0.09,1.52-0.09,2.28c0,0.77,0.04,1.53,0.09,2.28
			c-0.05,0.76-0.09,1.52-0.09,2.28c0,0.77,0.04,1.53,0.09,2.28c-0.05,0.76-0.09,1.52-0.09,2.28c0,0.77,0.04,1.53,0.09,2.28
			c-0.05,0.76-0.09,1.52-0.09,2.28s0.04,1.53,0.09,2.28c-0.05,0.76-0.09,1.52-0.09,2.28c0,17.46,14.15,31.61,31.61,31.61
			c17.46,0,31.61-14.15,31.61-31.61c0-0.77-0.04-1.53-0.09-2.28c0.05-0.76,0.09-1.52,0.09-2.28s-0.04-1.53-0.09-2.28
			c0.05-0.76,0.09-1.52,0.09-2.28c0-0.77-0.04-1.53-0.09-2.28c0.05-0.76,0.09-1.52,0.09-2.28c0-0.77-0.04-1.53-0.09-2.28
			c0.05-0.76,0.09-1.52,0.09-2.28c0-0.77-0.04-1.53-0.09-2.28c0.05-0.76,0.09-1.52,0.09-2.28c0-0.77-0.04-1.53-0.09-2.28
			c0.05-0.76,0.09-1.52,0.09-2.28s-0.04-1.53-0.09-2.28c0.05-0.76,0.09-1.52,0.09-2.28s-0.04-1.53-0.09-2.28
			c0.05-0.76,0.09-1.52,0.09-2.28c0-0.77-0.04-1.53-0.09-2.28c0.05-0.76,0.09-1.52,0.09-2.28c0-0.77-0.04-1.53-0.09-2.28
			c0.05-0.76,0.09-1.52,0.09-2.28c0-0.77-0.04-1.53-0.09-2.28c0.05-0.76,0.09-1.52,0.09-2.28c0-0.77-0.04-1.53-0.09-2.28
			c0.05-0.76,0.09-1.52,0.09-2.28c0-0.77-0.04-1.53-0.09-2.28c0.05-0.76,0.09-1.52,0.09-2.28c0-0.77-0.04-1.53-0.09-2.28
			c0.05-0.76,0.09-1.52,0.09-2.28c0-0.77-0.04-1.53-0.09-2.28c0.05-0.76,0.09-1.52,0.09-2.28c0-0.77-0.04-1.53-0.09-2.28
			c0.05-0.76,0.09-1.52,0.09-2.28c0-0.77-0.04-1.53-0.09-2.28c0.05-0.76,0.09-1.52,0.09-2.28c0-0.77-0.04-1.53-0.09-2.28
			c0.05-0.76,0.09-1.52,0.09-2.28c0-0.77-0.04-1.53-0.09-2.28c0.05-0.76,0.09-1.52,0.09-2.28c0-0.77-0.04-1.53-0.09-2.28
			c0.05-0.76,0.09-1.52,0.09-2.28s-0.04-1.53-0.09-2.28c0.05-0.76,0.09-1.52,0.09-2.28c0-0.77-0.04-1.53-0.09-2.28
			c0.05-0.76,0.09-1.52,0.09-2.28c0-0.77-0.04-1.53-0.09-2.28c0.05-0.76,0.09-1.52,0.09-2.28c0-0.77-0.04-1.53-0.09-2.28
			c0.05-0.76,0.09-1.52,0.09-2.28c0-0.77-0.04-1.53-0.09-2.28c0.05-0.76,0.09-1.52,0.09-2.28c0-0.77-0.04-1.53-0.09-2.28
			c0.05-0.76,0.09-1.52,0.09-2.28s-0.04-1.53-0.09-2.28c0.05-0.76,0.09-1.52,0.09-2.28s-0.04-1.53-0.09-2.28
			c0.05-0.76,0.09-1.52,0.09-2.28c0-0.77-0.04-1.53-0.09-2.28c0.05-0.76,0.09-1.52,0.09-2.28c0-0.77-0.04-1.53-0.09-2.28
			c0.05-0.76,0.09-1.52,0.09-2.28c0-0.77-0.04-1.53-0.09-2.28c0.05-0.76,0.09-1.52,0.09-2.28c0-0.77-0.04-1.53-0.09-2.28
			c0.05-0.76,0.09-1.52,0.09-2.28c0-0.77-0.04-1.53-0.09-2.28c0.05-0.76,0.09-1.52,0.09-2.28s-0.04-1.53-0.09-2.28
			c0.05-0.76,0.09-1.52,0.09-2.28s-0.04-1.53-0.09-2.28c0.05-0.76,0.09-1.52,0.09-2.28s-0.04-1.53-0.09-2.28
			c0.05-0.76,0.09-1.52,0.09-2.28c0-0.77-0.04-1.53-0.09-2.28c0.05-0.76,0.09-1.52,0.09-2.28c0-0.77-0.04-1.53-0.09-2.28
			c0.05-0.76,0.09-1.52,0.09-2.28c0-0.77-0.04-1.53-0.09-2.28c0.05-0.76,0.09-1.52,0.09-2.28s-0.04-1.53-0.09-2.28
			c0.05-0.76,0.09-1.52,0.09-2.28s-0.04-1.53-0.09-2.28c0.05-0.76,0.09-1.52,0.09-2.28s-0.04-1.53-0.09-2.28
			c0.05-0.76,0.09-1.52,0.09-2.28s-0.04-1.53-0.09-2.28c0.05-0.76,0.09-1.52,0.09-2.28c0-0.77-0.04-1.53-0.09-2.28
			c0.05-0.76,0.09-1.52,0.09-2.28c0-0.77-0.04-1.53-0.09-2.28c0.05-0.76,0.09-1.52,0.09-2.28s-0.04-1.53-0.09-2.28
			c0.05-0.76,0.09-1.52,0.09-2.28s-0.04-1.53-0.09-2.28c0.05-0.76,0.09-1.52,0.09-2.28s-0.04-1.53-0.09-2.28
			c0.05-0.76,0.09-1.52,0.09-2.28s-0.04-1.53-0.09-2.28c0.05-0.76,0.09-1.52,0.09-2.28s-0.04-1.53-0.09-2.28
			c0.05-0.76,0.09-1.52,0.09-2.28s-0.04-1.53-0.09-2.28c0.05-0.76,0.09-1.52,0.09-2.28s-0.04-1.53-0.09-2.28
			c0.05-0.76,0.09-1.52,0.09-2.28s-0.04-1.53-0.09-2.28c0.05-0.76,0.09-1.52,0.09-2.28s-0.04-1.53-0.09-2.28
			c0.05-0.76,0.09-1.52,0.09-2.28s-0.04-1.53-0.09-2.28c0.05-0.76,0.09-1.52,0.09-2.28s-0.04-1.53-0.09-2.28
			c0.05-0.76,0.09-1.52,0.09-2.28s-0.04-1.53-0.09-2.28c0.05-0.76,0.09-1.52,0.09-2.28s-0.04-1.53-0.09-2.28
			c0.05-0.76,0.09-1.52,0.09-2.28s-0.04-1.53-0.09-2.28c0.05-0.76,0.09-1.52,0.09-2.28s-0.04-1.53-0.09-2.28
			c0.05-0.76,0.09-1.52,0.09-2.28s-0.04-1.53-0.09-2.28c0.05-0.76,0.09-1.52,0.09-2.28c0-0.77-0.04-1.53-0.09-2.28
			c0.05-0.76,0.09-1.52,0.09-2.28c0-0.77-0.04-1.53-0.09-2.28c0.05-0.76,0.09-1.52,0.09-2.28c0-0.77-0.04-1.53-0.09-2.28
			c0.05-0.76,0.09-1.52,0.09-2.28c0-0.77-0.04-1.53-0.09-2.28c0.05-0.76,0.09-1.52,0.09-2.28c0-0.77-0.04-1.53-0.09-2.28
			c0.05-0.76,0.09-1.52,0.09-2.28c0-0.77-0.04-1.53-0.09-2.28c0.05-0.76,0.09-1.52,0.09-2.28s-0.04-1.53-0.09-2.28
			c0.05-0.76,0.09-1.52,0.09-2.28c0-0.77-0.04-1.53-0.09-2.28c0.05-0.76,0.09-1.52,0.09-2.28c0-0.77-0.04-1.53-0.09-2.28
			c0.05-0.76,0.09-1.52,0.09-2.28c0-0.77-0.04-1.53-0.09-2.28c0.05-0.76,0.09-1.52,0.09-2.28c0-0.77-0.04-1.53-0.09-2.28
			c0.05-0.76,0.09-1.52,0.09-2.28c0-0.77-0.04-1.53-0.09-2.28c0.05-0.76,0.09-1.52,0.09-2.28c0-0.77-0.04-1.53-0.09-2.28
			c0.05-0.76,0.09-1.52,0.09-2.28s-0.04-1.53-0.09-2.28c0.05-0.76,0.09-1.52,0.09-2.28s-0.04-1.53-0.09-2.28
			c0.05-0.76,0.09-1.52,0.09-2.28c0-0.77-0.04-1.53-0.09-2.28c0.05-0.76,0.09-1.52,0.09-2.28c0-0.77-0.04-1.53-0.09-2.28
			c0.05-0.76,0.09-1.52,0.09-2.28c0-0.77-0.04-1.53-0.09-2.28c0.05-0.76,0.09-1.52,0.09-2.28c0-0.77-0.04-1.53-0.09-2.28
			c0.05-0.76,0.09-1.52,0.09-2.28c0-0.77-0.04-1.53-0.09-2.28c0.05-0.76,0.09-1.52,0.09-2.28c0-0.77-0.04-1.53-0.09-2.28
			c0.05-0.76,0.09-1.52,0.09-2.28c0-0.77-0.04-1.53-0.09-2.28c0.05-0.76,0.09-1.52,0.09-2.28c0-0.77-0.04-1.53-0.09-2.28
			c0.05-0.76,0.09-1.52,0.09-2.28c0-0.77-0.04-1.53-0.09-2.28c0.05-0.76,0.09-1.52,0.09-2.28c0-0.77-0.04-1.53-0.09-2.28
			c0.05-0.76,0.09-1.52,0.09-2.28c0-0.77-0.04-1.53-0.09-2.28c0.05-0.76,0.09-1.52,0.09-2.28c0-0.77-0.04-1.53-0.09-2.28
			c0.05-0.76,0.09-1.52,0.09-2.28s-0.04-1.53-0.09-2.28c0.05-0.76,0.09-1.52,0.09-2.28c0-0.77-0.04-1.53-0.09-2.28
			c0.05-0.76,0.09-1.52,0.09-2.28c0-0.77-0.04-1.53-0.09-2.28c0.05-0.76,0.09-1.52,0.09-2.28c0-0.77-0.04-1.53-0.09-2.28
			c0.05-0.76,0.09-1.52,0.09-2.28c0-0.77-0.04-1.53-0.09-2.28c0.05-0.76,0.09-1.52,0.09-2.28c0-0.77-0.04-1.53-0.09-2.28
			c0.05-0.76,0.09-1.52,0.09-2.28c0-0.77-0.04-1.53-0.09-2.28c0.05-0.76,0.09-1.52,0.09-2.28s-0.04-1.53-0.09-2.28
			c0.05-0.76,0.09-1.52,0.09-2.28c0-0.77-0.04-1.53-0.09-2.28c0.05-0.76,0.09-1.52,0.09-2.28c0-0.77-0.04-1.53-0.09-2.28
			c0.05-0.76,0.09-1.52,0.09-2.28c0-0.77-0.04-1.53-0.09-2.28c0.05-0.76,0.09-1.52,0.09-2.28c0-0.77-0.04-1.53-0.09-2.28
			c0.05-0.76,0.09-1.52,0.09-2.28C203.52,330.71,203.48,329.95,203.43,329.19z"/>
		<path class="st6" d="M455.66,536.15c0-17.46-14.15-31.61-31.61-31.61c-9.36,0-17.77,4.08-23.56,10.55
			c-0.88,0.79-1.71,1.62-2.5,2.5c-0.88,0.79-1.71,1.62-2.5,2.5c-0.88,0.79-1.71,1.62-2.5,2.5c-0.88,0.79-1.71,1.62-2.5,2.5
			c-0.88,0.79-1.71,1.62-2.5,2.5c-0.88,0.79-1.71,1.62-2.5,2.5c-0.88,0.79-1.71,1.62-2.5,2.5c-0.88,0.79-1.71,1.62-2.5,2.5
			c-0.88,0.79-1.71,1.62-2.5,2.5c-0.88,0.79-1.71,1.62-2.5,2.5c-0.88,0.79-1.71,1.62-2.5,2.5c-0.88,0.79-1.71,1.62-2.5,2.5
			c-0.88,0.79-1.71,1.62-2.5,2.5c-0.88,0.79-1.71,1.62-2.5,2.5c-0.88,0.79-1.71,1.62-2.5,2.5c-0.88,0.79-1.71,1.62-2.5,2.5
			c-0.88,0.79-1.71,1.62-2.5,2.5c-0.88,0.79-1.71,1.62-2.5,2.5c-0.88,0.79-1.71,1.62-2.5,2.5c-0.88,0.79-1.71,1.62-2.5,2.5
			c-0.88,0.79-1.71,1.62-2.5,2.5c-0.88,0.79-1.71,1.62-2.5,2.5c-0.88,0.79-1.71,1.62-2.5,2.5c-0.88,0.79-1.71,1.62-2.5,2.5
			c-0.88,0.79-1.71,1.62-2.5,2.5c-0.88,0.79-1.71,1.62-2.5,2.5c-0.88,0.79-1.71,1.62-2.5,2.5c-0.88,0.79-1.71,1.62-2.5,2.5
			c-0.88,0.79-1.71,1.62-2.5,2.5c-0.88,0.79-1.71,1.62-2.5,2.5c-0.88,0.79-1.71,1.62-2.5,2.5c-0.88,0.79-1.71,1.62-2.5,2.5
			c-0.88,0.79-1.71,1.62-2.5,2.5c-0.88,0.79-1.71,1.62-2.5,2.5c-0.88,0.79-1.71,1.62-2.5,2.5c-0.88,0.79-1.71,1.62-2.5,2.5
			c-0.88,0.79-1.71,1.62-2.5,2.5c-0.88,0.79-1.71,1.62-2.5,2.5c-0.88,0.79-1.71,1.62-2.5,2.5c-0.88,0.79-1.71,1.62-2.5,2.5
			c-0.88,0.79-1.71,1.62-2.5,2.5c-0.88,0.79-1.71,1.62-2.5,2.5c-0.88,0.79-1.71,1.62-2.5,2.5c-0.88,0.79-1.71,1.62-2.5,2.5
			c-0.88,0.79-1.71,1.62-2.5,2.5c-0.88,0.79-1.71,1.62-2.5,2.5c-0.88,0.79-1.71,1.62-2.5,2.5c-0.88,0.79-1.71,1.62-2.5,2.5
			c-0.88,0.79-1.71,1.62-2.5,2.5c-0.88,0.79-1.71,1.62-2.5,2.5c-0.88,0.79-1.71,1.62-2.5,2.5c-0.88,0.79-1.71,1.62-2.5,2.5
			c-0.88,0.79-1.71,1.62-2.5,2.5c-0.88,0.79-1.71,1.62-2.5,2.5c-0.88,0.79-1.71,1.62-2.5,2.5c-0.88,0.79-1.71,1.62-2.5,2.5
			c-0.88,0.79-1.71,1.62-2.5,2.5c-0.88,0.79-1.71,1.62-2.5,2.5c-0.88,0.79-1.71,1.62-2.5,2.5c-0.88,0.79-1.71,1.62-2.5,2.5
			c-0.88,0.79-1.71,1.62-2.5,2.5c-0.88,0.79-1.71,1.62-2.5,2.5c-0.88,0.79-1.71,1.62-2.5,2.5c-0.88,0.79-1.71,1.62-2.5,2.5
			c-0.88,0.79-1.71,1.62-2.5,2.5c-0.88,0.79-1.71,1.62-2.5,2.5c-0.88,0.79-1.71,1.62-2.5,2.5c-0.88,0.79-1.71,1.62-2.5,2.5
			c-0.88,0.79-1.71,1.62-2.5,2.5c-0.88,0.79-1.71,1.62-2.5,2.5c-0.88,0.79-1.71,1.62-2.5,2.5c-0.88,0.79-1.71,1.62-2.5,2.5
			c-0.88,0.79-1.71,1.62-2.5,2.5c-0.88,0.79-1.71,1.62-2.5,2.5c-0.88,0.79-1.71,1.62-2.5,2.5c-0.88,0.79-1.71,1.62-2.5,2.5
			c-0.88,0.79-1.71,1.62-2.5,2.5c-0.88,0.79-1.71,1.62-2.5,2.5c-0.88,0.79-1.71,1.62-2.5,2.5c-0.88,0.79-1.71,1.62-2.5,2.5
			c-0.88,0.79-1.71,1.62-2.5,2.5c-0.88,0.79-1.71,1.62-2.5,2.5c-0.88,0.79-1.71,1.62-2.5,2.5c-0.88,0.79-1.71,1.62-2.5,2.5
			c-0.88,0.79-1.71,1.62-2.5,2.5c-0.88,0.79-1.71,1.62-2.5,2.5c-0.88,0.79-1.71,1.62-2.5,2.5c-0.88,0.79-1.71,1.62-2.5,2.5
			c-0.88,0.79-1.71,1.62-2.5,2.5c-0.88,0.79-1.71,1.62-2.5,2.5c-0.88,0.79-1.71,1.62-2.5,2.5c-0.88,0.79-1.71,1.62-2.5,2.5
			c-0.88,0.79-1.71,1.62-2.5,2.5c-0.88,0.79-1.71,1.62-2.5,2.5c-0.88,0.79-1.71,1.62-2.5,2.5c-0.88,0.79-1.71,1.62-2.5,2.5
			c-0.88,0.79-1.71,1.62-2.5,2.5c-0.88,0.79-1.71,1.62-2.5,2.5c-0.88,0.79-1.71,1.62-2.5,2.5c-0.88,0.79-1.71,1.62-2.5,2.5
			c-6.47,5.79-10.55,14.2-10.55,23.56c0,17.46,14.15,31.61,31.61,31.61c9.36,0,17.77-4.08,23.56-10.55c0.88-0.79,1.71-1.62,2.5-2.5
			c0.88-0.79,1.71-1.62,2.5-2.5c0.88-0.79,1.71-1.62,2.5-2.5c0.88-0.79,1.71-1.62,2.5-2.5c0.88-0.79,1.71-1.62,2.5-2.5
			c0.88-0.79,1.71-1.62,2.5-2.5c0.88-0.79,1.71-1.62,2.5-2.5c0.88-0.79,1.71-1.62,2.5-2.5c0.88-0.79,1.71-1.62,2.5-2.5
			c0.88-0.79,1.71-1.62,2.5-2.5c0.88-0.79,1.71-1.62,2.5-2.5c0.88-0.79,1.71-1.62,2.5-2.5c0.88-0.79,1.71-1.62,2.5-2.5
			c0.88-0.79,1.71-1.62,2.5-2.5c0.88-0.79,1.71-1.62,2.5-2.5c0.88-0.79,1.71-1.62,2.5-2.5c0.88-0.79,1.71-1.62,2.5-2.5
			c0.88-0.79,1.71-1.62,2.5-2.5c0.88-0.79,1.71-1.62,2.5-2.5c0.88-0.79,1.71-1.62,2.5-2.5c0.88-0.79,1.71-1.62,2.5-2.5
			c0.88-0.79,1.71-1.62,2.5-2.5c0.88-0.79,1.71-1.62,2.5-2.5c0.88-0.79,1.71-1.62,2.5-2.5c0.88-0.79,1.71-1.62,2.5-2.5
			c0.88-0.79,1.71-1.62,2.5-2.5c0.88-0.79,1.71-1.62,2.5-2.5c0.88-0.79,1.71-1.62,2.5-2.5c0.88-0.79,1.71-1.62,2.5-2.5
			c0.88-0.79,1.71-1.62,2.5-2.5c0.88-0.79,1.71-1.62,2.5-2.5c0.88-0.79,1.71-1.62,2.5-2.5c0.88-0.79,1.71-1.62,2.5-2.5
			c0.88-0.79,1.71-1.62,2.5-2.5c0.88-0.79,1.71-1.62,2.5-2.5c0.88-0.79,1.71-1.62,2.5-2.5c0.88-0.79,1.71-1.62,2.5-2.5
			c0.88-0.79,1.71-1.62,2.5-2.5c0.88-0.79,1.71-1.62,2.5-2.5c0.88-0.79,1.71-1.62,2.5-2.5c0.88-0.79,1.71-1.62,2.5-2.5
			c0.88-0.79,1.71-1.62,2.5-2.5c0.88-0.79,1.71-1.62,2.5-2.5c0.88-0.79,1.71-1.62,2.5-2.5c0.88-0.79,1.71-1.62,2.5-2.5
			c0.88-0.79,1.71-1.62,2.5-2.5c0.88-0.79,1.71-1.62,2.5-2.5c0.88-0.79,1.71-1.62,2.5-2.5c0.88-0.79,1.71-1.62,2.5-2.5
			c0.88-0.79,1.71-1.62,2.5-2.5c0.88-0.79,1.71-1.62,2.5-2.5c0.88-0.79,1.71-1.62,2.5-2.5c0.88-0.79,1.71-1.62,2.5-2.5
			c0.88-0.79,1.71-1.62,2.5-2.5c0.88-0.79,1.71-1.62,2.5-2.5c0.88-0.79,1.71-1.62,2.5-2.5c0.88-0.79,1.71-1.62,2.5-2.5
			c0.88-0.79,1.71-1.62,2.5-2.5c0.88-0.79,1.71-1.62,2.5-2.5c0.88-0.79,1.71-1.62,2.5-2.5c0.88-0.79,1.71-1.62,2.5-2.5
			c0.88-0.79,1.71-1.62,2.5-2.5c0.88-0.79,1.71-1.62,2.5-2.5c0.88-0.79,1.71-1.62,2.5-2.5c0.88-0.79,1.71-1.62,2.5-2.5
			c0.88-0.79,1.71-1.62,2.5-2.5c0.88-0.79,1.71-1.62,2.5-2.5c0.88-0.79,1.71-1.62,2.5-2.5c0.88-0.79,1.71-1.62,2.5-2.5
			c0.88-0.79,1.71-1.62,2.5-2.5c0.88-0.79,1.71-1.62,2.5-2.5c0.88-0.79,1.71-1.62,2.5-2.5c0.88-0.79,1.71-1.62,2.5-2.5
			c0.88-0.79,1.71-1.62,2.5-2.5c0.88-0.79,1.71-1.62,2.5-2.5c0.88-0.79,1.71-1.62,2.5-2.5c0.88-0.79,1.71-1.62,2.5-2.5
			c0.88-0.79,1.71-1.62,2.5-2.5c0.88-0.79,1.71-1.62,2.5-2.5c0.88-0.79,1.71-1.62,2.5-2.5c0.88-0.79,1.71-1.62,2.5-2.5
			c0.88-0.79,1.71-1.62,2.5-2.5c0.88-0.79,1.71-1.62,2.5-2.5c0.88-0.79,1.71-1.62,2.5-2.5c0.88-0.79,1.71-1.62,2.5-2.5
			c0.88-0.79,1.71-1.62,2.5-2.5c0.88-0.79,1.71-1.62,2.5-2.5c0.88-0.79,1.71-1.62,2.5-2.5c0.88-0.79,1.71-1.62,2.5-2.5
			c0.88-0.79,1.71-1.62,2.5-2.5c0.88-0.79,1.71-1.62,2.5-2.5c0.88-0.79,1.71-1.62,2.5-2.5c0.88-0.79,1.71-1.62,2.5-2.5
			c0.88-0.79,1.71-1.62,2.5-2.5c0.88-0.79,1.71-1.62,2.5-2.5c0.88-0.79,1.71-1.62,2.5-2.5c0.88-0.79,1.71-1.62,2.5-2.5
			c0.88-0.79,1.71-1.62,2.5-2.5c0.88-0.79,1.71-1.62,2.5-2.5c0.88-0.79,1.71-1.62,2.5-2.5
			C451.59,553.92,455.66,545.51,455.66,536.15z"/>
		<circle class="st7" cx="424.43" cy="535.49" r="31.61"/>
	</g>
</g>
</svg>
