<?xml version="1.0" encoding="utf-8"?>
<!-- Generator: Adobe Illustrator 24.1.2, SVG Export Plug-In . SVG Version: 6.00 Build 0)  -->
<svg version="1.1" id="Camada_1" xmlns="http://www.w3.org/2000/svg" xmlns:xlink="http://www.w3.org/1999/xlink" x="0px" y="0px"
	 viewBox="0 0 400 400" style="enable-background:new 0 0 400 400;" xml:space="preserve">
<style type="text/css">
	.st0{fill:url(#SVGID_1_);}
	.st1{fill:#FFFFFF;}
</style>
<linearGradient id="SVGID_1_" gradientUnits="userSpaceOnUse" x1="-1.346962e-08" y1="1.346780e-08" x2="400" y2="400">
	<stop  offset="0" style="stop-color:#00406A"/>
	<stop  offset="1" style="stop-color:#171638"/>
</linearGradient>
<rect class="st0" width="400" height="400"/>
<g>
	<g>
		<path class="st1" d="M49.89,40.79c1.08,0.94,1.56,1.59,1.86,2.15c0.29,0.56,0.31,0.99,0.16,1.33c-0.16,0.34-0.52,0.58-1.13,0.7
			c-0.63,0.11-1.44,0.13-2.85-0.14c-1.09-0.95-1.57-1.6-1.87-2.16c-0.29-0.56-0.31-0.98-0.15-1.32c0.17-0.33,0.52-0.58,1.14-0.69
			C47.67,40.54,48.48,40.52,49.89,40.79z"/>
		<path class="st1" d="M62.58,40.79c0.46,2.25,0.29,4.19-0.04,6.07c-0.35,1.86-0.95,3.59-1.75,5.23c-0.8,1.64-1.79,3.19-3.03,4.61
			c-1.27,1.41-2.7,2.74-4.76,3.77c-0.47-2.25-0.3-4.2,0.03-6.07c0.35-1.86,0.96-3.59,1.75-5.23c0.8-1.64,1.79-3.18,3.04-4.61
			C59.11,43.15,60.53,41.81,62.58,40.79z"/>
		<path class="st1" d="M75.28,40.79c-0.18,3.55-0.98,6.8-1.94,9.98c-0.99,3.16-2.21,6.2-3.64,9.15c-1.43,2.95-3.06,5.79-4.93,8.52
			c-1.9,2.72-3.96,5.35-6.65,7.68c0.17-3.56,0.97-6.81,1.93-9.98c0.99-3.16,2.21-6.2,3.65-9.14c1.43-2.94,3.07-5.78,4.94-8.52
			C70.53,45.76,72.59,43.12,75.28,40.79z"/>
		<path class="st1" d="M87.98,40.79c-0.81,4.86-2.24,9.41-3.84,13.89c-1.62,4.46-3.48,8.81-5.54,13.06
			c-2.06,4.25-4.33,8.4-6.83,12.43c-2.53,4.02-5.23,7.96-8.56,11.59c0.8-4.86,2.23-9.42,3.83-13.89c1.62-4.46,3.48-8.81,5.55-13.05
			c2.07-4.25,4.34-8.39,6.84-12.43C81.96,48.36,84.66,44.42,87.98,40.79z"/>
		<path class="st1" d="M100.67,40.79c-1.44,6.16-3.51,12.02-5.74,17.8c-2.26,5.77-4.75,11.42-7.44,16.97
			c-2.69,5.55-5.6,11-8.73,16.34c-3.17,5.32-6.49,10.57-10.45,15.5l0,0l0,0.01l0-0.01l0,0c1.44-6.16,3.5-12.02,5.73-17.8
			c2.26-5.76,4.75-11.42,7.45-16.96c2.7-5.55,5.6-11,8.74-16.34C93.39,50.97,96.72,45.73,100.67,40.79z"/>
		<path class="st1" d="M113.37,40.79c-2.08,7.46-4.78,14.62-7.64,21.71c-2.89,7.07-6.02,14.02-9.34,20.88
			c-3.33,6.86-6.86,13.61-10.63,20.25c-3.8,6.63-7.76,13.17-12.36,19.42c2.07-7.47,4.77-14.63,7.63-21.71
			c2.89-7.07,6.02-14.02,9.35-20.88c3.33-6.85,6.87-13.61,10.64-20.25C104.82,53.58,108.78,47.03,113.37,40.79z"/>
		<path class="st1" d="M126.07,40.79c-2.72,8.76-6.04,17.23-9.54,25.62c-3.52,8.37-7.28,16.63-11.24,24.79
			c-3.96,8.16-8.13,16.22-12.53,24.16c-4.43,7.93-9.04,15.78-14.26,23.33l0,0l0,0.01l0-0.01l0,0c2.71-8.77,6.03-17.24,9.53-25.62
			c3.52-8.37,7.28-16.63,11.25-24.79c3.97-8.16,8.14-16.21,12.54-24.16C116.25,56.18,120.86,48.34,126.07,40.79z"/>
		<path class="st1" d="M132.21,54.26c-2.81,8.94-6.21,17.6-9.8,26.16c-3.61,8.55-7.46,16.99-11.51,25.33
			c-4.05,8.34-8.3,16.58-12.8,24.7c-4.51,8.11-9.21,16.14-14.52,23.87c2.8-8.95,6.2-17.6,9.79-26.16
			c3.61-8.55,7.46-16.99,11.51-25.33c4.06-8.34,8.31-16.58,12.8-24.7C122.21,70.02,126.91,62,132.21,54.26z"/>
		<path class="st1" d="M137.07,70.4c-2.79,8.9-6.17,17.51-9.74,26.04c-3.59,8.51-7.42,16.91-11.45,25.21
			c-4.03,8.3-8.26,16.5-12.74,24.58c-4.49,8.07-9.17,16.06-14.46,23.74l0,0l0,0.01l0-0.01l0,0c2.78-8.91,6.16-17.52,9.73-26.04
			c3.59-8.51,7.42-16.91,11.45-25.2c4.04-8.3,8.27-16.49,12.74-24.58C127.11,86.08,131.79,78.09,137.07,70.4z"/>
		<path class="st1" d="M141.92,86.54c-2.77,8.86-6.13,17.43-9.68,25.91c-3.57,8.47-7.38,16.83-11.39,25.08
			c-4.01,8.26-8.23,16.41-12.68,24.46c-4.48,8.03-9.13,15.97-14.4,23.62c2.76-8.86,6.12-17.44,9.67-25.92
			c3.57-8.47,7.38-16.83,11.4-25.08c4.02-8.25,8.23-16.41,12.69-24.45C132.01,102.13,136.67,94.19,141.92,86.54z"/>
		<path class="st1" d="M146.78,102.67c-2.75,8.82-6.09,17.35-9.62,25.79c-3.55,8.43-7.34,16.74-11.33,24.96
			c-3.99,8.22-8.19,16.33-12.62,24.33c-4.45,7.99-9.09,15.89-14.34,23.5c2.74-8.82,6.08-17.35,9.61-25.79
			c3.55-8.43,7.34-16.74,11.34-24.96c4-8.21,8.19-16.33,12.63-24.33C136.9,118.18,141.54,110.28,146.78,102.67z"/>
		<path class="st1" d="M151.63,118.81c-2.73,8.78-6.05,17.27-9.56,25.67c-3.53,8.39-7.3,16.66-11.27,24.84
			c-3.97,8.18-8.15,16.25-12.56,24.21c-4.43,7.95-9.05,15.81-14.28,23.37c2.72-8.78,6.04-17.27,9.55-25.67
			c3.53-8.39,7.3-16.66,11.28-24.83c3.98-8.17,8.15-16.25,12.57-24.21C141.8,134.24,146.42,126.38,151.63,118.81z"/>
		<path class="st1" d="M156.49,134.95c-2.71,8.74-6.02,17.18-9.5,25.54c-3.51,8.35-7.26,16.58-11.21,24.71
			c-3.95,8.14-8.11,16.17-12.5,24.09c-4.42,7.91-9.02,15.73-14.22,23.25c2.7-8.74,6.01-17.19,9.5-25.55
			c3.51-8.35,7.26-16.58,11.22-24.71c3.96-8.13,8.11-16.16,12.51-24.08C146.7,150.3,151.29,142.48,156.49,134.95z"/>
		<path class="st1" d="M161.34,151.08c-2.69,8.7-5.97,17.1-9.44,25.42c-3.49,8.31-7.22,16.5-11.15,24.59
			c-3.93,8.09-8.07,16.09-12.44,23.97c-4.39,7.87-8.97,15.65-14.16,23.13c2.68-8.7,5.96-17.11,9.43-25.43
			c3.49-8.31,7.22-16.5,11.15-24.59c3.94-8.09,8.07-16.08,12.45-23.96C151.59,166.35,156.17,158.57,161.34,151.08z"/>
		<path class="st1" d="M166.2,167.22c-2.67,8.66-5.93,17.02-9.38,25.3c-3.47,8.27-7.18,16.42-11.09,24.47
			c-3.91,8.05-8.03,16-12.38,23.84c-4.38,7.83-8.94,15.56-14.1,23.01c2.66-8.66,5.92-17.03,9.37-25.3
			c3.47-8.27,7.18-16.42,11.1-24.47c3.92-8.05,8.03-16,12.39-23.84C156.49,182.4,161.04,174.66,166.2,167.22z"/>
		<path class="st1" d="M171.06,183.35c-2.65,8.62-5.89,16.94-9.32,25.18c-3.45,8.22-7.14,16.34-11.03,24.35
			c-3.89,8.01-7.99,15.92-12.32,23.72c-4.36,7.79-8.9,15.48-14.04,22.88c2.64-8.62,5.88-16.94,9.31-25.18
			c3.45-8.22,7.14-16.34,11.04-24.34c3.9-8.01,7.99-15.92,12.33-23.72C161.38,198.45,165.92,190.75,171.06,183.35z"/>
		<path class="st1" d="M175.91,199.49c-2.63,8.57-5.85,16.86-9.26,25.05c-3.43,8.18-7.1,16.25-10.97,24.22
			c-3.87,7.97-7.95,15.84-12.26,23.6c-4.34,7.74-8.86,15.4-13.98,22.76c2.62-8.58,5.84-16.86,9.25-25.06
			c3.43-8.18,7.1-16.25,10.98-24.22c3.88-7.97,7.95-15.84,12.27-23.59C166.28,214.51,170.79,206.85,175.91,199.49z"/>
		<path class="st1" d="M180.77,215.63c-2.61,8.53-5.81,16.77-9.2,24.93c-3.41,8.14-7.06,16.17-10.91,24.1
			c-3.85,7.93-7.91,15.76-12.2,23.47c-4.32,7.7-8.82,15.32-13.92,22.64l0,0l0,0.01l0-0.01l0,0c2.6-8.54,5.81-16.78,9.2-24.93
			c3.41-8.14,7.06-16.17,10.92-24.1c3.86-7.93,7.91-15.75,12.21-23.47C171.17,230.56,175.67,222.95,180.77,215.63z"/>
		<path class="st1" d="M185.63,231.76c-2.59,8.49-5.78,16.69-9.14,24.81c-3.39,8.1-7.02,16.09-10.85,23.98
			c-3.83,7.89-7.87,15.68-12.14,23.35c-4.3,7.66-8.78,15.24-13.86,22.51c2.58-8.5,5.77-16.7,9.14-24.81
			c3.39-8.1,7.02-16.09,10.86-23.97c3.84-7.89,7.87-15.67,12.15-23.35C176.07,246.61,180.55,239.04,185.63,231.76z"/>
		<path class="st1" d="M263.14,72.24L263.14,72.24L263.14,72.24c0.02-3.24,0.67-6.16,1.47-9.01c0.82-2.84,1.91-5.55,3.17-8.18
			c1.27-2.62,2.74-5.15,4.46-7.55c1.74-2.39,3.65-4.71,6.18-6.71c-0.01,3.23-0.65,6.16-1.46,9.01c-0.82,2.84-1.91,5.55-3.18,8.17
			c-1.28,2.62-2.74,5.15-4.47,7.55c-1.74,2.39-3.65,4.71-6.17,6.72L263.14,72.24L263.14,72.24z"/>
		<path class="st1" d="M144.73,342.06L144.73,342.06L144.73,342.06c2.57-8.46,5.74-16.62,9.08-24.69
			c3.37-8.06,6.98-16.01,10.79-23.85c3.81-7.85,7.83-15.59,12.08-23.23c4.28-7.62,8.74-15.15,13.8-22.39l0,0l0-0.01l0,0.01l0,0
			c-2.56,8.45-5.73,16.61-9.08,24.69c-3.37,8.06-6.98,16.01-10.8,23.85c-3.82,7.84-7.83,15.59-12.09,23.22
			C154.25,327.28,149.79,334.81,144.73,342.06L144.73,342.06L144.73,342.06z"/>
		<path class="st1" d="M291.12,40.79c-2.81,8.95-6.22,17.6-9.81,26.17c-3.61,8.56-7.46,17-11.51,25.34
			c-4.05,8.34-8.31,16.59-12.8,24.72c-4.52,8.12-9.22,16.15-14.53,23.88c2.8-8.95,6.21-17.61,9.8-26.18
			c3.61-8.56,7.46-17,11.52-25.34c4.06-8.34,8.32-16.58,12.81-24.71C281.12,56.55,285.82,48.52,291.12,40.79z"/>
		<path class="st1" d="M195.34,264.03c-2.55,8.41-5.7,16.53-9.02,24.56c-3.35,8.02-6.94,15.93-10.73,23.73
			c-3.79,7.81-7.79,15.51-12.02,23.11c-4.26,7.58-8.7,15.07-13.74,22.27c2.54-8.41,5.69-16.53,9.02-24.57
			c3.35-8.02,6.94-15.93,10.74-23.73c3.8-7.8,7.79-15.51,12.03-23.1C185.86,278.72,190.3,271.23,195.34,264.03z"/>
		<path class="st1" d="M221.81,209.56c5.59-14.68,11.78-29.06,18.15-43.35c6.39-14.28,13.02-28.44,19.85-42.51
			c6.83-14.07,13.87-28.03,21.14-41.88c7.3-13.84,14.78-27.59,22.86-41.04c-5.58,14.67-11.77,29.05-18.14,43.35
			c-6.39,14.28-13.02,28.45-19.86,42.51c-6.84,14.06-13.88,28.03-21.15,41.88C237.36,182.36,229.88,196.11,221.81,209.56z"/>
		<path class="st1" d="M316.52,40.79c-8.37,20.39-17.34,40.49-26.51,60.49c-9.14,20.02-18.57,39.89-28.18,59.69
			c-9.62,19.78-19.41,39.48-29.5,59.04c-10.05,19.57-20.32,39.04-31.18,58.21c8.37-20.4,17.33-40.5,26.5-60.5
			c9.14-20.02,18.57-39.89,28.18-59.67c9.63-19.78,19.42-39.47,29.51-59.03C295.39,79.43,305.66,59.97,316.52,40.79z"/>
		<path class="st1" d="M200.19,280.16c-2.26,7.84-5.15,15.38-8.19,22.85c-3.07,7.45-6.38,14.78-9.9,22.02
			c-3.51,7.24-7.23,14.37-11.19,21.39c-3.98,7.01-8.13,13.93-12.91,20.55c2.25-7.85,5.14-15.39,8.18-22.85
			c3.07-7.45,6.38-14.78,9.9-22.01c3.52-7.23,7.24-14.37,11.19-21.39C191.28,293.72,195.42,286.79,200.19,280.16z"/>
		<path class="st1" d="M329.21,40.79c-11.96,27.79-24.52,55.28-37.29,82.68c-12.77,27.4-25.74,54.69-38.96,81.87
			c-13.19,27.19-26.64,54.26-40.28,81.23c-13.65,26.97-27.51,53.83-41.97,80.41c11.96-27.79,24.51-55.29,37.28-82.69
			c12.77-27.39,25.74-54.69,38.97-81.87c13.2-27.18,26.65-54.25,40.29-81.22C300.9,94.23,314.76,67.36,329.21,40.79z"/>
		<path class="st1" d="M341.91,40.79c-11.96,27.79-24.52,55.28-37.29,82.68c-12.77,27.4-25.74,54.69-38.96,81.87
			c-13.19,27.19-26.64,54.26-40.28,81.23c-13.65,26.97-27.51,53.83-41.97,80.41c11.96-27.79,24.51-55.29,37.28-82.69
			c12.77-27.39,25.74-54.69,38.97-81.87c13.2-27.18,26.65-54.25,40.29-81.22C313.6,94.23,327.46,67.36,341.91,40.79z"/>
		<path class="st1" d="M353.24,43.6L353.24,43.6L353.24,43.6c-11.85,27.56-24.29,54.82-36.95,81.98
			c-12.65,27.16-25.52,54.22-38.61,81.17c-13.08,26.95-26.41,53.79-39.94,80.52c-13.53,26.73-27.28,53.36-41.63,79.7
			c11.84-27.55,24.28-54.82,36.94-81.98c12.66-27.16,25.51-54.22,38.62-81.16c13.09-26.95,26.42-53.78,39.95-80.52
			C325.15,96.58,338.9,69.95,353.24,43.6L353.24,43.6L353.24,43.6z"/>
		<path class="st1" d="M327.42,122.86l-0.01,0.02l0,0c-8.64,20.94-17.88,41.6-27.32,62.16c-9.41,20.57-19.11,41-28.99,61.35
			c-9.89,20.34-19.95,40.59-30.31,60.7c-10.32,20.13-20.86,40.15-32,59.88c8.63-20.95,17.86-41.61,27.31-62.16
			c9.41-20.57,19.11-41,28.99-61.34c9.9-20.34,19.96-40.59,30.32-60.7c10.33-20.13,20.86-40.15,31.99-59.89v0L327.42,122.86z"/>
		<path class="st1" d="M301.61,202.11l-0.01,0.02l0,0c-5.43,14.34-11.46,28.39-17.67,42.35c-6.23,13.95-12.7,27.79-19.38,41.52
			c-6.67,13.74-13.55,27.37-20.67,40.9c-7.14,13.51-14.46,26.93-22.39,40.06c5.42-14.34,11.45-28.4,17.66-42.36
			c6.23-13.95,12.7-27.79,19.38-41.52c6.68-13.73,13.56-27.37,20.67-40.89c7.14-13.51,14.46-26.93,22.38-40.07l0,0L301.61,202.11z"
			/>
		<path class="st1" d="M275.79,281.37l-0.01,0.02l0,0c-2.21,7.74-5.05,15.18-8.04,22.54c-3.02,7.35-6.29,14.58-9.75,21.71
			c-3.46,7.13-7.13,14.17-11.04,21.08c-3.93,6.9-8.03,13.73-12.76,20.25c2.2-7.75,5.04-15.18,8.03-22.54
			c3.03-7.35,6.28-14.58,9.75-21.71c3.47-7.13,7.14-14.16,11.04-21.08c3.94-6.9,8.03-13.73,12.75-20.25l0,0L275.79,281.37z"/>
		<path class="st1" d="M249.98,360.62c0.98,1.14,1.37,1.99,1.58,2.74c0.2,0.75,0.13,1.37-0.12,1.9c-0.26,0.53-0.7,0.96-1.41,1.27
			c-0.72,0.3-1.62,0.51-3.13,0.43c-0.99-1.14-1.38-1.98-1.59-2.74c-0.2-0.75-0.12-1.37,0.13-1.9c0.27-0.53,0.71-0.97,1.42-1.27
			C247.58,360.75,248.48,360.54,249.98,360.62z"/>
	</g>
</g>
</svg>
