<?xml version="1.0" encoding="utf-8"?>
<!-- Generator: Adobe Illustrator 24.1.2, SVG Export Plug-In . SVG Version: 6.00 Build 0)  -->
<svg version="1.1" id="Camada_1" xmlns="http://www.w3.org/2000/svg" xmlns:xlink="http://www.w3.org/1999/xlink" x="0px" y="0px"
	 viewBox="0 0 1000 1000" style="enable-background:new 0 0 1000 1000;" xml:space="preserve">
<style type="text/css">
	.st0{display:none;}
	.st1{display:inline;fill:#FFFFFF;}
	.st2{fill:#FFFFFF;}
</style>
<g>
	<g>
		<g class="st0">
			<path class="st1" d="M37.67,710.41h65.22v3.95h-8.65l51.88,153.18l51.64-153.18h-8.4v-3.95h23.96v3.95h-7.41l-64.73,192.21
				h-31.38L44.83,714.36h-7.16V710.41z"/>
			<path class="st1" d="M217.52,710.41h61.27v3.95h-5.93v188.26h5.93v3.95h-61.27v-3.95h5.93V714.36h-5.93V710.41z"/>
			<path class="st1" d="M309.42,902.62V714.36h-5.93v-3.95h133.41v63.74h-3.95c-3.95-34.84-26.19-59.79-48.18-59.79h-25.94v92.4
				h13.59c14.33,0,29.15-16.31,31.87-39.53h2.47v83.01h-2.47c-2.72-23.22-17.54-39.53-31.87-39.53h-13.59v91.91h27.42
				c21.49-1.24,42.74-25.7,46.69-59.79h3.95v63.74H303.5v-3.95H309.42z"/>
			<path class="st1" d="M458.15,710.41h55.34l90.18,138.6V714.36h-5.93v-3.95h20.01v3.95h-5.93v192.21h-25.45L472.23,723.5v179.12
				h5.93v3.95h-20.01v-3.95h5.93V714.36h-5.93V710.41z"/>
			<path class="st1" d="M642.45,710.41h55.34l90.18,138.6V714.36h-5.93v-3.95h20.01v3.95h-5.93v192.21h-25.45L656.53,723.5v179.12
				h5.93v3.95h-20.01v-3.95h5.93V714.36h-5.93V710.41z"/>
			<path class="st1" d="M808.22,902.62h7.16l51.39-188.26h-6.42v-3.95h64.24v3.95h-5.93l-1.24-3.95l52.38,192.21h7.16v3.95h-63.99
				v-3.95h7.41l-16.8-62.01h-63l-17.05,62.01h6.67v3.95h-21.99V902.62z M842.81,832.45h58.55l-29.4-106.98L842.81,832.45z"/>
		</g>
		<g>
			<path class="st2" d="M279.68,966.53h-2.93v8.88h-6.18v-27.03h10.81c5.14,0,9.27,4.13,9.27,9.27c0,3.32-2.01,6.33-4.98,7.84
				l5.75,9.92h-6.64L279.68,966.53z M276.74,961.13h4.63c1.7,0,3.09-1.51,3.09-3.48c0-1.97-1.39-3.47-3.09-3.47h-4.63V961.13z"/>
			<path class="st2" d="M346.04,969.47v5.95h-16.99v-27.03h16.8v5.95h-10.62v4.48h9.65v5.87h-9.65v4.79H346.04z"/>
			<path class="st2" d="M382.92,969.28l5.33-3.09c0.97,2.24,2.63,3.75,5.68,3.75c2.93,0,3.67-1.16,3.67-2.2
				c0-1.66-1.54-2.32-5.6-3.44c-4.02-1.12-7.95-3.05-7.95-8.22c0-5.21,4.4-8.22,9.07-8.22c4.44,0,7.92,2.12,9.88,6.1l-5.21,3.05
				c-0.93-1.93-2.2-3.13-4.67-3.13c-1.93,0-2.9,0.97-2.9,2.05c0,1.24,0.66,2.08,4.86,3.36c4.09,1.24,8.69,2.66,8.69,8.38
				c0,5.21-4.17,8.3-10.04,8.3C388.05,975.96,384.42,973.25,382.92,969.28z"/>
			<path class="st2" d="M447.59,948.39v27.03h-6.18v-27.03H447.59z"/>
			<path class="st2" d="M510.91,961.9c0,7.65-5.68,13.51-13.13,13.51h-10.81v-27.03h10.81C505.23,948.39,510.91,954.26,510.91,961.9
				z M504.96,961.9c0-4.63-2.93-7.57-7.18-7.57h-4.63v15.14h4.63C502.03,969.47,504.96,966.53,504.96,961.9z"/>
			<path class="st2" d="M566.12,969.47v5.95h-16.99v-27.03h16.8v5.95h-10.62v4.48h9.65v5.87h-9.65v4.79H566.12z"/>
			<path class="st2" d="M625.58,948.39v27.03h-4.63l-10.42-14.67v14.67h-6.18v-27.03h4.63l10.42,14.67v-14.67H625.58z"/>
			<path class="st2" d="M663.8,961.9c0-7.95,5.91-14.05,14.05-14.05c4.9,0,9.23,2.43,11.58,6.26l-5.33,3.09
				c-1.2-2.08-3.51-3.32-6.25-3.32c-4.79,0-7.88,3.2-7.88,8.03s3.09,8.03,7.88,8.03c2.74,0,5.1-1.24,6.25-3.32l5.33,3.09
				c-2.32,3.82-6.64,6.25-11.58,6.25C669.71,975.96,663.8,969.85,663.8,961.9z"/>
			<path class="st2" d="M744.07,969.47v5.95h-16.99v-27.03h16.8v5.95h-10.62v4.48h9.65v5.87h-9.65v4.79H744.07z"/>
		</g>
		<g>
			<path class="st2" d="M235.85,42.26c1.89,1.65,2.73,2.79,3.26,3.77c0.51,0.98,0.55,1.73,0.28,2.32c-0.29,0.59-0.9,1.02-1.98,1.22
				c-1.1,0.19-2.52,0.23-5-0.25c-1.9-1.66-2.75-2.8-3.28-3.78c-0.51-0.98-0.55-1.72-0.26-2.31c0.3-0.58,0.92-1.01,2-1.21
				C231.97,41.83,233.39,41.79,235.85,42.26z"/>
			<path class="st2" d="M258.09,42.26c0.8,3.94,0.5,7.35-0.06,10.62c-0.61,3.25-1.67,6.29-3.06,9.17c-1.39,2.87-3.13,5.58-5.31,8.07
				c-2.23,2.47-4.72,4.81-8.33,6.6c-0.82-3.95-0.52-7.35,0.05-10.63c0.61-3.25,1.67-6.29,3.07-9.16c1.41-2.87,3.14-5.58,5.32-8.06
				C252,46.4,254.49,44.06,258.09,42.26z"/>
			<path class="st2" d="M280.32,42.26c-0.31,6.22-1.71,11.91-3.39,17.47c-1.74,5.53-3.87,10.86-6.38,16.02
				c-2.5,5.16-5.36,10.14-8.64,14.92c-3.33,4.76-6.94,9.37-11.65,13.45c0.29-6.23,1.69-11.92,3.38-17.48
				c1.74-5.53,3.88-10.86,6.39-16.01c2.51-5.15,5.38-10.13,8.65-14.91C272.01,50.97,275.62,46.35,280.32,42.26z"/>
			<path class="st2" d="M302.56,42.26c-1.42,8.51-3.93,16.48-6.72,24.32c-2.84,7.81-6.1,15.43-9.71,22.87
				c-3.61,7.44-7.58,14.7-11.97,21.77c-4.44,7.04-9.16,13.94-14.98,20.3c1.4-8.51,3.91-16.49,6.71-24.32
				c2.84-7.81,6.1-15.43,9.72-22.86c3.62-7.43,7.6-14.7,11.98-21.76C292.03,55.53,296.74,48.63,302.56,42.26z"/>
			<path class="st2" d="M324.79,42.26c-2.53,10.79-6.15,21.04-10.05,31.17c-3.95,10.1-8.32,19.99-13.03,29.71
				c-4.71,9.72-9.8,19.27-15.29,28.62c-5.54,9.32-11.37,18.51-18.31,27.15l0,0l0,0.01l0-0.01l0,0c2.51-10.79,6.13-21.05,10.04-31.17
				c3.95-10.1,8.32-19.99,13.05-29.71c4.73-9.72,9.81-19.26,15.31-28.61C312.04,60.1,317.87,50.91,324.79,42.26z"/>
			<path class="st2" d="M347.02,42.26c-3.64,13.07-8.37,25.61-13.38,38.01c-5.06,12.38-10.54,24.56-16.36,36.56
				c-5.83,12.01-12.02,23.84-18.62,35.46c-6.65,11.6-13.59,23.07-21.64,34c3.62-13.08,8.35-25.62,13.36-38.02
				c5.06-12.38,10.54-24.56,16.38-36.56c5.84-12,12.03-23.83,18.64-35.46C332.06,64.67,338.99,53.2,347.02,42.26z"/>
			<path class="st2" d="M369.26,42.26c-4.76,15.35-10.57,30.18-16.7,44.86c-6.17,14.66-12.75,29.12-19.69,43.41
				c-6.93,14.29-14.24,28.4-21.95,42.31c-7.75,13.89-15.83,27.63-24.96,40.85l0,0l0,0.01l0-0.01l0,0
				c4.75-15.35,10.56-30.19,16.69-44.87c6.17-14.66,12.75-29.12,19.7-43.4c6.95-14.28,14.25-28.4,21.96-42.31
				C352.06,69.23,360.14,55.49,369.26,42.26z"/>
			<path class="st2" d="M380.01,65.86c-4.92,15.66-10.88,30.81-17.16,45.81c-6.32,14.98-13.06,29.75-20.15,44.36
				c-7.09,14.61-14.54,29.03-22.41,43.26c-7.91,14.21-16.14,28.26-25.42,41.8c4.9-15.67,10.86-30.82,17.15-45.82
				c6.32-14.98,13.06-29.75,20.16-44.35c7.1-14.6,14.56-29.03,22.42-43.25C362.51,93.46,370.74,79.41,380.01,65.86z"/>
			<path class="st2" d="M388.52,94.13c-4.88,15.59-10.81,30.67-17.06,45.59c-6.29,14.91-12.99,29.61-20.04,44.14
				c-7.05,14.53-14.47,28.89-22.3,43.04c-7.87,14.14-16.06,28.12-25.32,41.58l0,0l0,0.01l0-0.01l0,0
				c4.87-15.6,10.79-30.68,17.04-45.6c6.29-14.9,12.99-29.61,20.06-44.14c7.07-14.53,14.49-28.88,22.32-43.04
				C371.09,121.58,379.28,107.6,388.52,94.13z"/>
			<path class="st2" d="M397.03,122.39c-4.85,15.52-10.74,30.52-16.95,45.38c-6.25,14.83-12.92,29.47-19.94,43.93
				c-7.02,14.46-14.4,28.74-22.2,42.83c-7.84,14.06-16,27.97-25.22,41.36c4.83-15.52,10.72-30.53,16.94-45.38
				c6.26-14.83,12.92-29.47,19.96-43.92c7.03-14.46,14.42-28.74,22.22-42.82C379.67,149.69,387.82,135.78,397.03,122.39z"/>
			<path class="st2" d="M405.52,150.63c-4.81,15.45-10.67,30.38-16.85,45.16c-6.22,14.76-12.85,29.32-19.84,43.71
				c-6.98,14.39-14.33,28.6-22.1,42.61c-7.8,13.99-15.93,27.83-25.11,41.15c4.8-15.45,10.65-30.39,16.84-45.17
				c6.22-14.76,12.85-29.32,19.85-43.71c7-14.38,14.35-28.6,22.11-42.61C388.23,177.8,396.35,163.96,405.52,150.63z"/>
			<path class="st2" d="M414.03,178.9c-4.78,15.37-10.6,30.24-16.74,44.95c-6.18,14.69-12.78,29.18-19.73,43.5
				c-6.95,14.32-14.26,28.46-21.99,42.4c-7.77,13.92-15.86,27.68-25.01,40.93c4.76-15.38,10.58-30.25,16.73-44.95
				c6.18-14.69,12.78-29.18,19.74-43.49c6.96-14.31,14.28-28.45,22.01-42.39C396.81,205.92,404.9,192.15,414.03,178.9z"/>
			<path class="st2" d="M422.54,207.16c-4.74,15.3-10.53,30.09-16.64,44.73c-6.15,14.62-12.71,29.03-19.63,43.28
				c-6.91,14.25-14.2,28.31-21.89,42.18c-7.73,13.85-15.79,27.54-24.9,40.72c4.73-15.31,10.52-30.1,16.63-44.74
				c6.15-14.62,12.71-29.03,19.64-43.27c6.93-14.24,14.21-28.31,21.9-42.17C405.38,234.03,413.44,220.34,422.54,207.16z"/>
			<path class="st2" d="M431.03,235.4c-4.71,15.23-10.46,29.95-16.53,44.52c-6.11,14.55-12.64,28.89-19.52,43.07
				c-6.88,14.18-14.12,28.17-21.78,41.97c-7.7,13.78-15.72,27.4-24.8,40.5c4.69-15.24,10.44-29.96,16.52-44.52
				c6.11-14.55,12.64-28.89,19.53-43.06c6.89-14.17,14.14-28.16,21.79-41.96C413.95,262.14,421.97,248.52,431.03,235.4z"/>
			<path class="st2" d="M439.54,263.67c-4.67,15.16-10.39,29.81-16.43,44.3c-6.08,14.47-12.57,28.75-19.42,42.85
				c-6.84,14.1-14.06,28.03-21.68,41.75c-7.66,13.71-15.65,27.25-24.69,40.29c4.66-15.16,10.38-29.82,16.42-44.31
				c6.08-14.47,12.57-28.75,19.43-42.84c6.86-14.1,14.07-28.02,21.69-41.74C422.53,290.25,430.51,276.71,439.54,263.67z"/>
			<path class="st2" d="M448.05,291.91c-4.64,15.09-10.32,29.66-16.33,44.09c-6.04,14.4-12.5,28.61-19.31,42.64
				c-6.81,14.03-13.98,27.88-21.57,41.54c-7.63,13.63-15.58,27.11-24.59,40.07c4.62-15.09,10.31-29.67,16.31-44.09
				c6.05-14.4,12.5-28.61,19.33-42.63c6.82-14.02,14-27.88,21.59-41.53C431.11,318.36,439.05,304.88,448.05,291.91z"/>
			<path class="st2" d="M456.54,320.17c-4.6,15.02-10.25,29.52-16.22,43.87c-6.01,14.33-12.43,28.46-19.21,42.42
				c-6.77,13.96-13.91,27.74-21.47,41.32c-7.59,13.56-15.51,26.97-24.48,39.86c4.59-15.02,10.24-29.53,16.21-43.88
				c6.01-14.33,12.43-28.46,19.22-42.41c6.79-13.95,13.93-27.73,21.48-41.31C439.67,346.48,447.58,333.07,456.54,320.17z"/>
			<path class="st2" d="M465.05,348.44c-4.57,14.94-10.18,29.38-16.12,43.65c-5.97,14.26-12.36,28.32-19.1,42.2
				c-6.74,13.89-13.84,27.6-21.36,41.11c-7.56,13.49-15.44,26.82-24.38,39.64l0,0l0,0.01l0-0.01l0,0
				c4.55-14.95,10.17-29.38,16.1-43.66c5.98-14.26,12.36-28.32,19.12-42.2c6.75-13.88,13.86-27.59,21.38-41.1
				C448.25,374.59,456.13,361.26,465.05,348.44z"/>
			<path class="st2" d="M473.56,376.68c-4.53,14.87-10.11,29.23-16.01,43.44c-5.94,14.19-12.29,28.17-19,41.99
				c-6.7,13.82-13.78,27.45-21.26,40.89c-7.52,13.42-15.37,26.68-24.27,39.43c4.52-14.88,10.1-29.24,16-43.45
				c5.94-14.19,12.29-28.17,19.01-41.98c6.72-13.81,13.79-27.45,21.27-40.88C456.83,402.7,464.67,389.44,473.56,376.68z"/>
			<path class="st2" d="M609.29,97.34l0.01-0.02l0,0c0.04-5.66,1.17-10.78,2.57-15.77c1.44-4.98,3.34-9.72,5.55-14.32
				c2.23-4.59,4.79-9.02,7.82-13.22c3.05-4.19,6.39-8.24,10.83-11.76c-0.02,5.66-1.14,10.79-2.55,15.78
				c-1.44,4.98-3.34,9.72-5.57,14.31c-2.24,4.58-4.8,9.01-7.83,13.22c-3.05,4.19-6.38,8.24-10.81,11.77l0,0L609.29,97.34z"/>
			<path class="st2" d="M401.94,569.84l0-0.01l0,0c4.5-14.8,10.05-29.09,15.91-43.22c5.91-14.11,12.22-28.03,18.89-41.77
				c6.67-13.74,13.71-27.31,21.15-40.67c7.49-13.35,15.3-26.53,24.17-39.21l0,0l0-0.01l0,0.01l0,0
				c-4.48,14.8-10.03,29.1-15.89,43.23c-5.91,14.11-12.22,28.03-18.91,41.76c-6.68,13.74-13.72,27.3-21.17,40.67
				c-7.49,13.34-15.3,26.53-24.15,39.21l0,0L401.94,569.84z"/>
			<path class="st2" d="M658.3,42.26c-4.92,15.67-10.89,30.83-17.17,45.83c-6.33,14.98-13.07,29.77-20.16,44.38
				c-7.09,14.61-14.55,29.05-22.42,43.28c-7.91,14.22-16.14,28.27-25.44,41.82c4.91-15.67,10.87-30.84,17.16-45.84
				c6.33-14.98,13.07-29.77,20.17-44.37c7.11-14.61,14.56-29.04,22.44-43.27C640.79,69.87,649.02,55.81,658.3,42.26z"/>
			<path class="st2" d="M490.56,433.19c-4.46,14.73-9.97,28.95-15.8,43.01c-5.87,14.04-12.15,27.89-18.79,41.56
				c-6.63,13.67-13.64,27.17-21.05,40.46c-7.45,13.28-15.23,26.39-24.06,39c4.45-14.73,9.96-28.96,15.79-43.02
				c5.87-14.04,12.15-27.89,18.8-41.55c6.65-13.67,13.65-27.16,21.06-40.45C473.97,458.92,481.74,445.8,490.56,433.19z"/>
			<path class="st2" d="M536.91,337.82c9.8-25.7,20.64-50.88,31.79-75.91c11.2-25.01,22.81-49.81,34.77-74.44
				c11.96-24.63,24.29-49.08,37.02-73.34c12.78-24.23,25.88-48.31,40.04-71.87c-9.78,25.7-20.61,50.88-31.77,75.91
				c-11.2,25.01-22.81,49.82-34.79,74.44c-11.98,24.63-24.3,49.09-37.04,73.34C564.15,290.19,551.06,314.26,536.91,337.82z"/>
			<path class="st2" d="M702.77,42.26c-14.66,35.71-30.36,70.91-46.42,105.93c-16,35.06-32.53,69.86-49.34,104.52
				c-16.84,34.65-34,69.14-51.66,103.38c-17.61,34.27-35.59,68.36-54.61,101.93c14.65-35.72,30.35-70.93,46.41-105.95
				c16-35.05,32.52-69.85,49.35-104.5c16.86-34.63,34-69.13,51.67-103.36C665.78,109.94,683.75,75.85,702.77,42.26z"/>
			<path class="st2" d="M499.07,461.45c-3.96,13.74-9.01,26.94-14.34,40.01c-5.38,13.04-11.18,25.88-17.33,38.56
				c-6.15,12.67-12.66,25.16-19.59,37.46c-6.98,12.27-14.24,24.4-22.6,35.99c3.94-13.74,8.99-26.95,14.33-40.01
				c5.38-13.04,11.18-25.88,17.34-38.55c6.16-12.66,12.68-25.16,19.6-37.45C483.46,485.19,490.72,473.05,499.07,461.45z"/>
			<path class="st2" d="M725,42.26c-20.95,48.66-42.94,96.81-65.3,144.79c-22.36,47.97-45.08,95.77-68.22,143.37
				c-23.1,47.61-46.65,95.01-70.54,142.24c-23.9,47.23-48.18,94.27-73.5,140.81c20.94-48.66,42.92-96.82,65.28-144.8
				c22.37-47.97,45.08-95.78,68.24-143.36c23.12-47.6,46.66-95.01,70.56-142.23C675.43,135.85,699.7,88.8,725,42.26z"/>
			<path class="st2" d="M747.24,42.26c-20.95,48.66-42.94,96.81-65.3,144.79c-22.36,47.97-45.08,95.77-68.22,143.37
				c-23.1,47.61-46.65,95.01-70.54,142.24c-23.9,47.23-48.18,94.27-73.5,140.81c20.94-48.66,42.92-96.82,65.28-144.8
				c22.37-47.97,45.08-95.78,68.24-143.36c23.12-47.6,46.66-95.01,70.56-142.23C697.66,135.85,721.93,88.8,747.24,42.26z"/>
			<path class="st2" d="M767.07,47.19l0,0.01v0c-20.75,48.25-42.54,95.99-64.7,143.55c-22.16,47.56-44.68,94.95-67.62,142.13
				c-22.9,47.2-46.25,94.19-69.95,141.01c-23.7,46.81-47.78,93.45-72.9,139.57c20.74-48.25,42.52-96,64.68-143.56
				c22.17-47.56,44.68-94.95,67.64-142.13c22.92-47.19,46.26-94.18,69.96-141c23.7-46.81,47.77-93.45,72.88-139.58l0,0L767.07,47.19
				z"/>
			<path class="st2" d="M721.87,185.99l-0.01,0.04l0,0c-15.13,36.68-31.3,72.85-47.84,108.85c-16.47,36.03-33.47,71.8-50.76,107.43
				c-17.32,35.62-34.94,71.08-53.08,106.3c-18.08,35.25-36.53,70.31-56.03,104.87c15.12-36.68,31.28-72.86,47.82-108.86
				c16.48-36.03,33.47-71.8,50.77-107.42c17.33-35.61,34.95-71.08,53.1-106.29c18.08-35.24,36.53-70.31,56.02-104.87v0
				L721.87,185.99z"/>
			<path class="st2" d="M676.66,324.77l-0.02,0.04l0,0c-9.51,25.11-20.07,49.72-30.94,74.17c-10.92,24.43-22.25,48.66-33.93,72.72
				c-11.68,24.06-23.73,47.94-36.19,71.62c-12.5,23.66-25.32,47.16-39.2,70.15c9.5-25.12,20.05-49.73,30.93-74.17
				c10.92-24.43,22.25-48.66,33.94-72.71c11.69-24.05,23.74-47.93,36.2-71.61c12.5-23.66,25.32-47.16,39.19-70.16l0,0L676.66,324.77
				z"/>
			<path class="st2" d="M631.46,463.56l-0.02,0.04l0,0c-3.87,13.56-8.84,26.58-14.09,39.47c-5.3,12.86-11.01,25.53-17.07,38.02
				c-6.06,12.49-12.49,24.81-19.33,36.92c-6.89,12.09-14.06,24.04-22.34,35.46c3.86-13.56,8.82-26.59,14.07-39.48
				c5.3-12.86,11.01-25.53,17.08-38.01c6.07-12.49,12.5-24.8,19.34-36.92c6.89-12.09,14.06-24.04,22.32-35.47l0,0L631.46,463.56z"/>
			<path class="st2" d="M586.25,602.35c1.72,2,2.4,3.48,2.76,4.8c0.34,1.31,0.22,2.4-0.21,3.33c-0.45,0.92-1.23,1.69-2.47,2.22
				c-1.26,0.53-2.84,0.9-5.49,0.76c-1.74-1.99-2.42-3.47-2.78-4.8c-0.34-1.32-0.22-2.41,0.23-3.33c0.46-0.92,1.24-1.69,2.49-2.23
				C582.05,602.58,583.63,602.2,586.25,602.35z"/>
		</g>
	</g>
	<g>
		<path class="st2" d="M41.78,691.37h16.31l64.96,177.44l65.24-177.44h16.03l-73.39,196.84h-15.75L41.78,691.37z"/>
		<path class="st2" d="M247.62,691.37v196.84h-14.9V691.37H247.62z"/>
		<path class="st2" d="M409.88,874.15v14.06H296.55V691.37h111.92v14.06h-97.01v76.49h89.98v14.06h-89.98v78.17H409.88z"/>
		<path class="st2" d="M590.69,691.37v196.84h-13.22L461.33,718.92v169.28h-14.9V691.37h12.94l116.42,169.28V691.37H590.69z"/>
		<path class="st2" d="M783.88,691.37v196.84h-13.22L654.52,718.92v169.28h-14.9V691.37h12.94l116.42,169.28V691.37H783.88z"/>
		<path class="st2" d="M946.13,838.15h-98.7l-19.12,50.05h-15.75l76.49-196.84h15.75L981,888.21h-15.75L946.13,838.15z
			 M940.79,824.09l-43.87-114.45l-43.87,114.45H940.79z"/>
	</g>
</g>
</svg>
